<!-- Copyright 2020 Tianshu AI Platform. All Rights Reserved.

Licensed under the Apache License, Version 2.0 (the "License");
you may not use this file except in compliance with the License.
You may obtain a copy of the License at

    http://www.apache.org/licenses/LICENSE-2.0

Unless required by applicable law or agreed to in writing, software
distributed under the License is distributed on an "AS IS" BASIS,
WITHOUT WARRANTIES OR CONDITIONS OF ANY KIND, either express or implied.
See the License for the specific language governing permissions and
limitations under the License.
=============================================================
-->

<svg xmlns="http://www.w3.org/2000/svg" width="28" height="28" viewBox="0 0 28 28">
  <g id="介绍icon" transform="translate(-240 -173)">
    <rect id="矩形_899" data-name="矩形 899" width="28" height="28" rx="4" transform="translate(240 173)" fill="#ffe8d7"/>
    <path id="dengpao" d="M0,8.045H2.336V9.169H0ZM1.372,3.093l.795-.8L3.819,3.95l-.8.795ZM14.965,8.045H17.3V9.169H14.965ZM8.045,0H9.169V2.336H8.045ZM6.92,16.176h3.46V17.3H6.92ZM9.256,3.46A5.121,5.121,0,0,0,3.633,7.439,5.192,5.192,0,0,0,6.92,13.495v.346a1.145,1.145,0,0,0,1.125,1.125H9.169a1.145,1.145,0,0,0,1.125-1.125v-.346A5.188,5.188,0,0,0,9.256,3.46Zm1.99,5.19a2.705,2.705,0,0,0-1.125-2.163c-.519-.433,0-1.038.519-.692A3.478,3.478,0,0,1,12.111,8.65c0,.692-.865.692-.865,0Zm2.237-4.823,1.651-1.651.795.8-1.652,1.65Z" transform="translate(245 178)" fill="#ff7207"/>
  </g>
</svg>
