<!-- Copyright 2020 Tianshu AI Platform. All Rights Reserved.

Licensed under the Apache License, Version 2.0 (the "License");
you may not use this file except in compliance with the License.
You may obtain a copy of the License at

    http://www.apache.org/licenses/LICENSE-2.0

Unless required by applicable law or agreed to in writing, software
distributed under the License is distributed on an "AS IS" BASIS,
WITHOUT WARRANTIES OR CONDITIONS OF ANY KIND, either express or implied.
See the License for the specific language governing permissions and
limitations under the License.
=============================================================
-->

<?xml version="1.0" encoding="utf-8"?>
<!-- Generator: Adobe Illustrator 25.4.1, SVG Export Plug-In . SVG Version: 6.00 Build 0)  -->
<svg version="1.1" id="图层_1" xmlns="http://www.w3.org/2000/svg" xmlns:xlink="http://www.w3.org/1999/xlink" x="0px" y="0px"
	 viewBox="0 0 16 16" style="enable-background:new 0 0 16 16;" xml:space="preserve">
<g>
	<path class="st0" d="M13,16H3c-0.3,0-0.5-0.2-0.5-0.5S2.7,15,3,15h10c0.3,0,0.5,0.2,0.5,0.5S13.3,16,13,16z"/>
</g>
<g>
	<path class="st0" d="M11,14H5c-0.3,0-0.5-0.2-0.5-0.5S4.7,13,5,13h6c0.3,0,0.5,0.2,0.5,0.5S11.3,14,11,14z"/>
</g>
<path class="st0" d="M14,1c0.6,0,1,0.5,1,1v8c0,0.6-0.5,1-1,1H2c-0.6,0-1-0.5-1-1V2c0-0.6,0.5-1,1-1H14 M14,0H2C0.9,0,0,0.9,0,2v8
	c0,1.1,0.9,2,2,2h12c1.1,0,2-0.9,2-2V2C16,0.9,15.1,0,14,0L14,0z"/>
<g>
	<path class="st0" d="M10.3,10c-0.1,0-0.2,0-0.2-0.1L8,8.9L5.9,9.9C5.8,10,5.6,10,5.4,9.9C5.2,9.8,5.2,9.6,5.2,9.4l0.4-2.2L4,5.6
		C3.8,5.4,3.8,5.2,3.8,5.1C3.9,4.9,4,4.7,4.2,4.7l2.3-0.4l1-2.1C7.6,2.1,7.8,2,8,2l0,0c0.2,0,0.4,0.1,0.5,0.3l1,2.1l2.3,0.4
		c0.2,0,0.3,0.2,0.4,0.3c0.1,0.2,0,0.4-0.1,0.5l-1.7,1.6l0.4,2.2c0,0.2,0,0.4-0.2,0.5C10.5,10,10.4,10,10.3,10z M8,7.8
		c0.1,0,0.2,0,0.2,0.1l1.4,0.7L9.3,7.1c0-0.2,0-0.3,0.1-0.5l1.2-1.1L9,5.3C8.9,5.3,8.7,5.2,8.6,5L8,3.7L7.4,5C7.3,5.2,7.1,5.3,7,5.3
		L5.4,5.5l1.2,1.1c0.1,0.1,0.2,0.3,0.1,0.5L6.4,8.6l1.4-0.7C7.8,7.8,7.9,7.8,8,7.8z"/>
</g>
</svg>
