<svg xmlns="http://www.w3.org/2000/svg" xmlns:xlink="http://www.w3.org/1999/xlink" width="18" height="18" viewBox="0 0 18 18" fill="none"><defs><path id="path_0"
        transform="translate(0 0) rotate(0 9 9)"
        d="M0,18L18,18L18,0L0,0L0,18Z" /></defs><g opacity="1" transform="translate(0 0)  rotate(0 9 9)"><g opacity="1" transform="translate(0 0)  rotate(0 9 9)"><mask id="mask-0" fill="white"><use xlink:href="#path_0"></use></mask><g mask="url(#mask-0)"></g><g mask="url(#mask-0)"><path id="并集" fill-rule="evenodd" style="fill:#75777D" transform="translate(1 1)  rotate(0 8 8)" opacity="1" d="M0 14C0 15.1 0.9 16 2 16L14 16C15.1 16 16 15.1 16 14L16 2C16 0.9 15.1 0 14 0L2 0C0.9 0 0 0.9 0 2L0 14ZM2 1C1.73 1 1.49 1.1 1.29 1.29C1.1 1.49 1 1.73 1 2L1 14C1 14.27 1.1 14.51 1.29 14.71C1.49 14.9 1.73 15 2 15L14 15C14.27 15 14.51 14.9 14.71 14.71C14.9 14.51 15 14.27 15 14L15 2C15 1.73 14.9 1.49 14.71 1.29C14.51 1.1 14.27 1 14 1L2 1ZM10.92 2.72C10.9 2.7 10.88 2.67 10.85 2.65C10.83 2.62 10.81 2.6 10.78 2.59C10.75 2.57 10.72 2.55 10.69 2.54L10.6 2.51C10.57 2.5 10.53 2.5 10.5 2.5L2.5 2.5C2.47 2.5 2.43 2.5 2.4 2.51L2.31 2.54C2.28 2.55 2.25 2.57 2.22 2.58C2.19 2.6 2.17 2.62 2.15 2.65C2.12 2.67 2.1 2.69 2.08 2.72C2.07 2.75 2.05 2.78 2.04 2.81L2.01 2.9C2 2.93 2 2.97 2 3C2 3.03 2 3.07 2.01 3.1L2.04 3.19C2.05 3.22 2.07 3.25 2.08 3.28C2.1 3.31 2.12 3.33 2.15 3.35C2.17 3.38 2.19 3.4 2.22 3.42C2.25 3.43 2.28 3.45 2.31 3.46L2.4 3.49C2.43 3.5 2.47 3.5 2.5 3.5L10.5 3.5C10.57 3.5 10.63 3.49 10.69 3.46C10.75 3.44 10.81 3.4 10.85 3.35C10.9 3.31 10.94 3.25 10.96 3.19C10.99 3.13 11 3.07 11 3C11 2.97 11 2.94 10.99 2.9L10.96 2.81C10.95 2.78 10.93 2.75 10.92 2.72ZM2.5 6.5L6.5 6.5C6.53 6.5 6.57 6.5 6.6 6.49L6.69 6.46C6.72 6.45 6.75 6.43 6.78 6.42C6.81 6.4 6.83 6.38 6.85 6.35C6.88 6.33 6.9 6.31 6.92 6.28C6.93 6.25 6.95 6.22 6.96 6.19L6.99 6.1C7 6.07 7 6.03 7 6C7 5.97 7 5.94 6.99 5.9L6.96 5.81C6.95 5.78 6.93 5.75 6.92 5.72C6.9 5.7 6.88 5.67 6.85 5.65C6.83 5.62 6.81 5.6 6.78 5.58C6.75 5.57 6.72 5.55 6.69 5.54L6.6 5.51C6.57 5.5 6.53 5.5 6.5 5.5L2.5 5.5C2.47 5.5 2.43 5.5 2.4 5.51L2.31 5.54C2.28 5.55 2.25 5.57 2.22 5.58C2.19 5.6 2.17 5.62 2.15 5.65C2.12 5.67 2.1 5.69 2.08 5.72C2.07 5.75 2.05 5.78 2.04 5.81L2.01 5.9C2 5.93 2 5.97 2 6C2 6.03 2 6.07 2.01 6.1L2.04 6.19C2.05 6.22 2.07 6.25 2.08 6.28C2.1 6.31 2.12 6.33 2.15 6.35C2.17 6.38 2.19 6.4 2.22 6.42C2.25 6.43 2.28 6.45 2.31 6.46L2.4 6.49C2.43 6.5 2.47 6.5 2.5 6.5ZM12.3118 6.30903C11.9228 5.92012 11.2864 5.92012 10.8975 6.30903L6.86703 10.3395C6.72561 10.481 6.63369 10.6577 6.59833 10.8487L6.068 13.5003C6.03972 13.6276 6.08922 13.7619 6.18114 13.8539C6.27306 13.9458 6.40741 13.9953 6.53469 13.967L9.18634 13.4367C9.37726 13.4013 9.55404 13.3094 9.69546 13.168L13.726 9.13746C14.1149 8.74855 14.1149 8.11215 13.726 7.72325L12.3118 6.30903ZM8.98835 12.4609L13.0189 8.43035L11.6046 7.01614L7.58121 11.0396L7.57414 11.0466L7.22766 12.8073L8.98835 12.4609ZM6.34377 12.9841C6.34024 12.9877 6.3367 12.9877 6.33317 12.9877L6.34377 12.9841ZM6.33317 12.9877L6.32256 12.9912C6.3261 12.9877 6.32963 12.9877 6.33317 12.9877ZM7.05795 13.67L7.05088 13.6842C7.05265 13.6789 7.05442 13.6735 7.05795 13.67ZM7.05088 13.6842C7.04911 13.6895 7.04734 13.6948 7.04381 13.6983L7.05088 13.6842Z " /></g></g></g></svg>