<svg xmlns="http://www.w3.org/2000/svg" xmlns:xlink="http://www.w3.org/1999/xlink" width="18" height="18" viewBox="0 0 18 18" fill="none"><defs><path id="path_0"
        transform="translate(0 0) rotate(0 9 9)"
        d="M0,18L18,18L18,0L0,0L0,18Z" /></defs><g opacity="1" transform="translate(0 0)  rotate(0 9 9)"><mask id="mask-0" fill="white"><use xlink:href="#path_0"></use></mask><g mask="url(#mask-0)"></g><g mask="url(#mask-0)"><path id="减去顶层" fill-rule="evenodd" style="fill:#2E4FDE" transform="translate(1 1)  rotate(0 8 8)" opacity="1" d="M0 14L0 2C0 0.9 0.9 0 2 0L14 0C15.1 0 16 0.9 16 2L16 14C16 15.1 15.1 16 14 16L2 16C0.9 16 0 15.1 0 14ZM10.6 2.51C10.57 2.5 10.53 2.5 10.5 2.5L2.5 2.5C2.47 2.5 2.43 2.5 2.4 2.51L2.31 2.54C2.28 2.55 2.25 2.57 2.22 2.58C2.19 2.6 2.17 2.62 2.15 2.65C2.12 2.67 2.1 2.69 2.08 2.72C2.07 2.75 2.05 2.78 2.04 2.81L2.01 2.9C2 2.93 2 2.97 2 3C2 3.03 2 3.07 2.01 3.1L2.04 3.19C2.05 3.22 2.07 3.25 2.08 3.28C2.1 3.31 2.12 3.33 2.15 3.35C2.17 3.38 2.19 3.4 2.22 3.42C2.25 3.43 2.28 3.45 2.31 3.46L2.4 3.49C2.43 3.5 2.47 3.5 2.5 3.5L10.5 3.5C10.57 3.5 10.63 3.49 10.69 3.46C10.75 3.44 10.81 3.4 10.85 3.35C10.9 3.31 10.94 3.25 10.96 3.19C10.99 3.13 11 3.07 11 3C11 2.97 11 2.94 10.99 2.9L10.96 2.81C10.95 2.78 10.93 2.75 10.92 2.72C10.9 2.7 10.88 2.67 10.85 2.65C10.83 2.62 10.81 2.6 10.78 2.59C10.75 2.57 10.72 2.55 10.69 2.54L10.6 2.51ZM2.31 5.54L2.4 5.51C2.43 5.5 2.47 5.5 2.5 5.5L6.5 5.5C6.53 5.5 6.57 5.5 6.6 5.51L6.69 5.54C6.72 5.55 6.75 5.57 6.78 5.58C6.81 5.6 6.83 5.62 6.85 5.65C6.88 5.67 6.9 5.7 6.92 5.72C6.93 5.75 6.95 5.78 6.96 5.81L6.99 5.9C7 5.94 7 5.97 7 6C7 6.03 7 6.07 6.99 6.1L6.96 6.19C6.95 6.22 6.93 6.25 6.92 6.28C6.9 6.31 6.88 6.33 6.85 6.35C6.83 6.38 6.81 6.4 6.78 6.42C6.75 6.43 6.72 6.45 6.69 6.46L6.6 6.49C6.57 6.5 6.53 6.5 6.5 6.5L2.5 6.5C2.47 6.5 2.43 6.5 2.4 6.49L2.31 6.46C2.28 6.45 2.25 6.43 2.22 6.42C2.19 6.4 2.17 6.38 2.15 6.35C2.12 6.33 2.1 6.31 2.08 6.28C2.07 6.25 2.05 6.22 2.04 6.19L2.01 6.1C2 6.07 2 6.03 2 6C2 5.97 2 5.93 2.01 5.9L2.04 5.81C2.05 5.78 2.07 5.75 2.08 5.72C2.1 5.69 2.12 5.67 2.15 5.65C2.17 5.62 2.19 5.6 2.22 5.58C2.25 5.57 2.28 5.55 2.31 5.54ZM12.31 6.31C11.92 5.92 11.29 5.92 10.9 6.31L6.87 10.34C6.73 10.48 6.63 10.66 6.6 10.85L6.07 13.5C6.04 13.63 6.09 13.76 6.18 13.85C6.27 13.95 6.41 14 6.53 13.97L9.19 13.44C9.38 13.4 9.55 13.31 9.7 13.17L13.73 9.14C14.11 8.75 14.11 8.11 13.73 7.72L12.31 6.31ZM6.34 12.98L6.33 12.99C6.34 12.99 6.34 12.99 6.34 12.98ZM7.06 13.67C7.05 13.67 7.05 13.68 7.05 13.68L7.04 13.7C7.05 13.69 7.05 13.69 7.05 13.68L7.06 13.67Z" /></g></g></svg>