<svg xmlns="http://www.w3.org/2000/svg" xmlns:xlink="http://www.w3.org/1999/xlink" width="18" height="18" viewBox="0 0 18 18" fill="none"><defs><path id="path_0"
        transform="translate(0 0) rotate(0 9 9)"
        d="M0,18L18,18L18,0L0,0L0,18Z" /></defs><g opacity="1" transform="translate(0 0)  rotate(0 9 9)"><mask id="mask-0" fill="white"><use xlink:href="#path_0"></use></mask><g mask="url(#mask-0)"></g><g mask="url(#mask-0)"><path id="并集" fill-rule="evenodd" style="fill:#75777D" transform="translate(1.0004692077636719 0.9849481582641602)  rotate(0 7.999530792236328 8.01505184173584)" opacity="1" d="M1.51 15.89L7 12.6L12.49 15.89C12.8 16.07 13.18 16.08 13.49 15.9C13.81 15.72 14 15.39 14 15.03L14 2C14 0.9 13.1 0 12 0L2 0C0.9 0 0 0.9 0 2L0 15.03C0 15.39 0.19 15.72 0.51 15.9C0.82 16.08 1.2 16.07 1.51 15.89ZM15.3991 15.99C15.4291 16 15.4691 16 15.4991 16C15.5291 16 15.5691 16 15.5991 15.99L15.6891 15.96C15.7191 15.95 15.7491 15.93 15.7791 15.92C15.8091 15.9 15.8291 15.88 15.8491 15.85C15.8791 15.83 15.8991 15.81 15.9191 15.78C15.9291 15.75 15.9491 15.72 15.9591 15.69L15.9891 15.6C15.9991 15.57 15.9991 15.53 15.9991 15.5L15.9991 0.5C15.9991 0.47 15.9991 0.43 15.9891 0.4C15.9791 0.37 15.9791 0.34 15.9591 0.31C15.9491 0.28 15.9291 0.25 15.9191 0.22C15.8991 0.19 15.8791 0.17 15.8491 0.15C15.8291 0.12 15.8091 0.1 15.7791 0.08C15.7491 0.07 15.7191 0.05 15.6891 0.04L15.5991 0.01C15.5691 0 15.5291 0 15.4991 0C15.4691 0 15.4391 0 15.3991 0.01L15.3091 0.04C15.2791 0.05 15.2491 0.07 15.2191 0.08C15.1991 0.1 15.1691 0.12 15.1491 0.15C15.1191 0.17 15.0991 0.19 15.0891 0.22C15.0691 0.25 15.0491 0.28 15.0391 0.31L15.0091 0.4C14.9991 0.43 14.9991 0.47 14.9991 0.5L14.9991 15.5C14.9991 15.53 14.9991 15.57 15.0091 15.6L15.0391 15.69C15.0491 15.72 15.0691 15.75 15.0791 15.78C15.0991 15.81 15.1191 15.83 15.1491 15.85C15.1691 15.88 15.1891 15.9 15.2191 15.92C15.2491 15.93 15.2791 15.95 15.3091 15.96L15.3991 15.99ZM1.29 1.29C1.1 1.49 1 1.73 1 2L1 15.03L1.01 15.03L7 11.43L13 15.03C12.99 15.03 12.99 15.03 12.99 15.04L13 15.03L13 2C13 1.73 12.9 1.49 12.71 1.29C12.51 1.1 12.27 1 12 1L2 1C1.73 1 1.49 1.1 1.29 1.29ZM10.69 4.46C10.75 4.44 10.81 4.4 10.85 4.35C10.9 4.31 10.94 4.25 10.96 4.19C10.99 4.13 11 4.07 11 4C11 3.97 11 3.94 10.99 3.9L10.96 3.81C10.95 3.78 10.93 3.75 10.92 3.72C10.9 3.7 10.88 3.67 10.85 3.65C10.83 3.62 10.81 3.6 10.78 3.59C10.75 3.57 10.72 3.55 10.69 3.54L10.6 3.51C10.57 3.5 10.53 3.5 10.5 3.5L3.5 3.5C3.43 3.5 3.37 3.51 3.31 3.54C3.25 3.56 3.19 3.6 3.15 3.65C3.1 3.69 3.06 3.75 3.04 3.81C3.01 3.87 3 3.93 3 4C3 4.07 3.01 4.13 3.04 4.19C3.06 4.25 3.1 4.31 3.15 4.35C3.19 4.4 3.25 4.44 3.31 4.46C3.37 4.49 3.43 4.5 3.5 4.5L10.5 4.5C10.57 4.5 10.63 4.49 10.69 4.46ZM10.92 7.72C10.9 7.7 10.88 7.67 10.85 7.65C10.83 7.62 10.81 7.6 10.78 7.59C10.75 7.57 10.72 7.55 10.69 7.54L10.6 7.51C10.57 7.5 10.53 7.5 10.5 7.5L3.5 7.5C3.43 7.5 3.37 7.51 3.31 7.54C3.25 7.56 3.19 7.6 3.15 7.65C3.1 7.69 3.06 7.75 3.04 7.81C3.01 7.87 3 7.93 3 8C3 8.07 3.01 8.13 3.04 8.19C3.06 8.25 3.1 8.31 3.15 8.35C3.19 8.4 3.25 8.44 3.31 8.46C3.37 8.49 3.43 8.5 3.5 8.5L10.5 8.5C10.57 8.5 10.63 8.49 10.69 8.46C10.75 8.44 10.81 8.4 10.85 8.35C10.9 8.31 10.94 8.25 10.96 8.19C10.99 8.13 11 8.07 11 8C11 7.97 11 7.94 10.99 7.9L10.96 7.81C10.95 7.78 10.93 7.75 10.92 7.72ZM15.4991 15.5L15.9991 15.5M15.9991 15.5L15.4991 15.5 " /></g></g></svg>