<svg xmlns="http://www.w3.org/2000/svg" xmlns:xlink="http://www.w3.org/1999/xlink" width="18" height="18" viewBox="0 0 18 18" fill="none"><defs><path id="path_0"
        transform="translate(0 0) rotate(0 9 9)"
        d="M0,18L18,18L18,0L0,0L0,18Z" /></defs><g opacity="1" transform="translate(0 0)  rotate(0 9 9)"><mask id="mask-0" fill="white"><use xlink:href="#path_0"></use></mask><g mask="url(#mask-0)"></g><g mask="url(#mask-0)"><path id="并集" fill-rule="evenodd" style="fill:#2E4FDE" transform="translate(1 1)  rotate(0 8 8)" opacity="1" d="M2 7.5L5.5 7.5C6.6 7.5 7.5 6.6 7.5 5.5L7.5 2C7.5 0.9 6.6 0 5.5 0L2 0C0.9 0 0 0.9 0 2L0 5.5C0 6.6 0.9 7.5 2 7.5ZM9.31 1.04L9.4 1.01C9.43 1 9.47 1 9.5 1L15 1C15.07 1 15.13 1.01 15.19 1.04C15.25 1.06 15.31 1.1 15.35 1.15C15.4 1.19 15.44 1.25 15.46 1.31C15.49 1.37 15.5 1.43 15.5 1.5C15.5 1.53 15.5 1.57 15.49 1.6L15.46 1.69C15.45 1.72 15.43 1.75 15.42 1.78C15.4 1.81 15.38 1.83 15.35 1.85C15.33 1.88 15.31 1.9 15.28 1.92C15.25 1.93 15.22 1.95 15.19 1.96C15.16 1.98 15.13 1.98 15.1 1.99C15.07 2 15.03 2 15 2L9.5 2C9.47 2 9.43 2 9.4 1.99L9.31 1.96C9.28 1.95 9.25 1.93 9.22 1.92C9.19 1.9 9.17 1.88 9.15 1.85C9.12 1.83 9.1 1.81 9.08 1.78C9.07 1.75 9.05 1.72 9.04 1.69L9.01 1.6C9 1.57 9 1.53 9 1.5C9 1.47 9 1.43 9.01 1.4L9.04 1.31C9.05 1.28 9.07 1.25 9.08 1.22C9.1 1.19 9.12 1.17 9.15 1.15C9.17 1.12 9.19 1.1 9.22 1.08C9.25 1.07 9.28 1.05 9.31 1.04ZM9.04 5.81L9.01 5.9C9 5.93 9 5.97 9 6C9 6.03 9 6.07 9.01 6.1L9.04 6.19C9.05 6.22 9.07 6.25 9.08 6.28C9.1 6.31 9.12 6.33 9.15 6.35C9.17 6.38 9.19 6.4 9.22 6.42C9.25 6.43 9.28 6.45 9.31 6.46L9.4 6.49C9.43 6.5 9.47 6.5 9.5 6.5L15 6.5C15.03 6.5 15.07 6.5 15.1 6.49C15.13 6.48 15.16 6.48 15.19 6.46C15.22 6.45 15.25 6.43 15.28 6.42C15.31 6.4 15.33 6.38 15.35 6.35C15.38 6.33 15.4 6.31 15.42 6.28C15.43 6.25 15.45 6.22 15.46 6.19L15.49 6.1C15.5 6.07 15.5 6.03 15.5 6C15.5 5.93 15.49 5.87 15.46 5.81C15.44 5.75 15.4 5.69 15.35 5.65C15.31 5.6 15.25 5.56 15.19 5.54C15.13 5.51 15.07 5.5 15 5.5L9.5 5.5C9.47 5.5 9.43 5.5 9.4 5.51L9.31 5.54C9.28 5.55 9.25 5.57 9.22 5.58C9.19 5.6 9.17 5.62 9.15 5.65C9.12 5.67 9.1 5.69 9.08 5.72C9.07 5.75 9.05 5.78 9.04 5.81ZM0 14C0 15.1 0.9 16 2 16L5.5 16C6.6 16 7.5 15.1 7.5 14L7.5 10.5C7.5 9.4 6.6 8.5 5.5 8.5L2 8.5C0.9 8.5 0 9.4 0 10.5L0 14ZM10.5 8.5L14 8.5C15.1 8.5 16 9.4 16 10.5L16 14C16 15.1 15.1 16 14 16L10.5 16C9.4 16 8.5 15.1 8.5 14L8.5 10.5C8.5 9.4 9.4 8.5 10.5 8.5Z" /></g></g></svg>