<svg xmlns="http://www.w3.org/2000/svg" xmlns:xlink="http://www.w3.org/1999/xlink" width="18" height="18" viewBox="0 0 18 18" fill="none"><defs><path id="path_0"
        transform="translate(0 0) rotate(0 9 9)"
        d="M0,18L18,18L18,0L0,0L0,18Z" /></defs><g opacity="1" transform="translate(0 0)  rotate(0 9 9)"><mask id="mask-0" fill="white"><use xlink:href="#path_0"></use></mask><g mask="url(#mask-0)"></g><g mask="url(#mask-0)"><path id="并集" fill-rule="evenodd" style="fill:#75777D" transform="translate(1 1)  rotate(0 8 8)" opacity="1" d="M2 7.5C0.9 7.5 0 6.6 0 5.5L0 2C0 0.9 0.9 0 2 0L5.5 0C6.6 0 7.5 0.9 7.5 2L7.5 5.5C7.5 6.6 6.6 7.5 5.5 7.5L2 7.5Z M6.5 2L6.5 5.5C6.5 5.77 6.4 6.01 6.21 6.21C6.01 6.4 5.77 6.5 5.5 6.5L2 6.5C1.73 6.5 1.49 6.4 1.29 6.21C1.1 6.01 1 5.77 1 5.5L1 2C1 1.73 1.1 1.49 1.29 1.29C1.49 1.1 1.73 1 2 1L5.5 1C5.77 1 6.01 1.1 6.21 1.29C6.4 1.49 6.5 1.73 6.5 2Z M15.28 1.92C15.25 1.93 15.22 1.95 15.19 1.96C15.16 1.98 15.13 1.98 15.1 1.99C15.07 2 15.03 2 15 2L9.5 2C9.47 2 9.43 2 9.4 1.99L9.31 1.96C9.28 1.95 9.25 1.93 9.22 1.92C9.19 1.9 9.17 1.88 9.15 1.85C9.12 1.83 9.1 1.81 9.08 1.78C9.07 1.75 9.05 1.72 9.04 1.69L9.01 1.6C9 1.57 9 1.53 9 1.5C9 1.47 9 1.43 9.01 1.4L9.04 1.31C9.05 1.28 9.07 1.25 9.08 1.22C9.1 1.19 9.12 1.17 9.15 1.15C9.17 1.12 9.19 1.1 9.22 1.08C9.25 1.07 9.28 1.05 9.31 1.04L9.4 1.01C9.43 1 9.47 1 9.5 1L15 1C15.07 1 15.13 1.01 15.19 1.04C15.25 1.06 15.31 1.1 15.35 1.15C15.4 1.19 15.44 1.25 15.46 1.31C15.49 1.37 15.5 1.43 15.5 1.5C15.5 1.53 15.5 1.57 15.49 1.6L15.46 1.69C15.45 1.72 15.43 1.75 15.42 1.78C15.4 1.81 15.38 1.83 15.35 1.85C15.33 1.88 15.31 1.9 15.28 1.92Z M15.5 6C15.5 5.93 15.49 5.87 15.46 5.81C15.44 5.75 15.4 5.69 15.35 5.65C15.31 5.6 15.25 5.56 15.19 5.54C15.13 5.51 15.07 5.5 15 5.5L9.5 5.5C9.47 5.5 9.43 5.5 9.4 5.51L9.31 5.54C9.28 5.55 9.25 5.57 9.22 5.58C9.19 5.6 9.17 5.62 9.15 5.65C9.12 5.67 9.1 5.69 9.08 5.72C9.07 5.75 9.05 5.78 9.04 5.81L9.01 5.9C9 5.93 9 5.97 9 6C9 6.03 9 6.07 9.01 6.1L9.04 6.19C9.05 6.22 9.07 6.25 9.08 6.28C9.1 6.31 9.12 6.33 9.15 6.35C9.17 6.38 9.19 6.4 9.22 6.42C9.25 6.43 9.28 6.45 9.31 6.46L9.4 6.49C9.43 6.5 9.47 6.5 9.5 6.5L15 6.5C15.03 6.5 15.07 6.5 15.1 6.49C15.13 6.48 15.16 6.48 15.19 6.46C15.22 6.45 15.25 6.43 15.28 6.42C15.31 6.4 15.33 6.38 15.35 6.35C15.38 6.33 15.4 6.31 15.42 6.28C15.43 6.25 15.45 6.22 15.46 6.19L15.49 6.1C15.5 6.07 15.5 6.03 15.5 6Z M2 8.5L5.5 8.5C6.6 8.5 7.5 9.4 7.5 10.5L7.5 14C7.5 15.1 6.6 16 5.5 16L2 16C0.9 16 0 15.1 0 14L0 10.5C0 9.4 0.9 8.5 2 8.5Z M16 14C16 15.1 15.1 16 14 16L10.5 16C9.4 16 8.5 15.1 8.5 14L8.5 10.5C8.5 9.4 9.4 8.5 10.5 8.5L14 8.5C15.1 8.5 16 9.4 16 10.5L16 14Z M5.5 15L2 15C1.73 15 1.49 14.9 1.29 14.71C1.1 14.51 1 14.27 1 14L1 10.5C1 10.23 1.1 9.99 1.29 9.79C1.49 9.6 1.73 9.5 2 9.5L5.5 9.5C5.77 9.5 6.01 9.6 6.21 9.79C6.4 9.99 6.5 10.23 6.5 10.5L6.5 14C6.5 14.27 6.4 14.51 6.21 14.71C6.01 14.9 5.77 15 5.5 15Z M15 10.5L15 14C15 14.27 14.9 14.51 14.71 14.71C14.51 14.9 14.27 15 14 15L10.5 15C10.23 15 9.99 14.9 9.79 14.71C9.6 14.51 9.5 14.27 9.5 14L9.5 10.5C9.5 10.23 9.6 9.99 9.79 9.79C9.99 9.6 10.23 9.5 10.5 9.5L14 9.5C14.27 9.5 14.51 9.6 14.71 9.79C14.9 9.99 15 10.23 15 10.5Z " /></g></g></svg>