<?xml version="1.0" encoding="utf-8"?>
<!-- Generator: Adobe Illustrator 25.4.1, SVG Export Plug-In . SVG Version: 6.00 Build 0)  -->
<svg version="1.1" id="图层_1" xmlns="http://www.w3.org/2000/svg" xmlns:xlink="http://www.w3.org/1999/xlink" x="0px" y="0px"
	 viewBox="0 0 22 20" style="enable-background:new 0 0 22 20;" xml:space="preserve">
<style type="text/css">
	.st0{fill:#00AA0E;}
</style>
<g>
	<path class="st0" d="M16,0H6C4.9,0,4,0.9,4,2v4.3h1V2c0-0.6,0.4-1,1-1h10c2.8,0,5,2.2,5,5v12c0,0.6-0.4,1-1,1H6c-0.6,0-1-0.4-1-1
		v-3.1H4V18c0,1.1,0.9,2,2,2h14c1.1,0,2-0.9,2-2V6C22,2.7,19.3,0,16,0z"/>
</g>
<g id="直线_90">
	<rect x="16.5" y="0.5" class="st0" width="1" height="5"/>
</g>
<g id="直线_91">
	<rect x="16.5" y="4.5" class="st0" width="5" height="1"/>
</g>
<path class="st0" d="M17,5.9H1c-0.6,0-1,0.4-1,1v8c0,0.6,0.4,1,1,1h16c0.6,0,1-0.4,1-1v-8C18,6.3,17.6,5.9,17,5.9z M4.7,13.4
	l-1.1-1.9c0-0.1-0.1-0.1-0.1-0.2h0c0,0.1-0.1,0.1-0.1,0.2l-1.2,1.9H1.5l1.6-2.5L1.6,8.5h0.7l1,1.7c0.1,0.1,0.1,0.2,0.2,0.3h0
	c0.1-0.2,0.1-0.3,0.2-0.4l1-1.7h0.7l-1.5,2.4l1.6,2.5H4.7z M8.7,13.4H6.1V8.5h0.6v4.4h2V13.4z M12,12.8c-0.1,0.2-0.2,0.3-0.4,0.4
	c-0.2,0.1-0.3,0.2-0.6,0.2s-0.4,0.1-0.7,0.1c-0.1,0-0.2,0-0.3,0c-0.1,0-0.2,0-0.3-0.1c-0.1,0-0.2-0.1-0.3-0.1
	c-0.1,0-0.2-0.1-0.3-0.1v-0.7c0.1,0.1,0.2,0.1,0.3,0.2s0.2,0.1,0.3,0.1c0.1,0,0.2,0.1,0.4,0.1s0.2,0,0.3,0c0.4,0,0.6-0.1,0.8-0.2
	c0.2-0.1,0.3-0.3,0.3-0.6c0-0.1,0-0.2-0.1-0.3c-0.1-0.1-0.1-0.2-0.2-0.3c-0.1-0.1-0.2-0.2-0.4-0.2c-0.1-0.1-0.3-0.2-0.5-0.2
	c-0.2-0.1-0.3-0.2-0.5-0.3c-0.1-0.1-0.3-0.2-0.4-0.3s-0.2-0.2-0.3-0.4C9.2,10,9.2,9.9,9.2,9.7c0-0.2,0-0.4,0.1-0.6
	C9.5,9,9.6,8.8,9.7,8.7c0.2-0.1,0.3-0.2,0.5-0.2s0.4-0.1,0.6-0.1c0.5,0,0.8,0.1,1.1,0.2v0.6c-0.3-0.2-0.7-0.3-1.1-0.3
	c-0.1,0-0.3,0-0.4,0c-0.1,0-0.2,0.1-0.3,0.1S10,9.2,9.9,9.3S9.8,9.5,9.8,9.6c0,0.1,0,0.2,0.1,0.3s0.1,0.2,0.2,0.2s0.2,0.1,0.3,0.2
	s0.3,0.1,0.5,0.2c0.2,0.1,0.3,0.2,0.5,0.3s0.3,0.2,0.4,0.3c0.1,0.1,0.2,0.2,0.3,0.4s0.1,0.3,0.1,0.5C12.2,12.4,12.1,12.6,12,12.8z
	 M15.8,13.4l-1.1-1.9c0-0.1-0.1-0.1-0.1-0.2h0c0,0.1-0.1,0.1-0.1,0.2l-1.2,1.9h-0.7l1.6-2.5l-1.5-2.4h0.7l1,1.7
	c0.1,0.1,0.1,0.2,0.2,0.3h0c0.1-0.2,0.1-0.3,0.2-0.4l1-1.7h0.7L15,10.9l1.6,2.5H15.8z"/>
</svg>
