<svg xmlns="http://www.w3.org/2000/svg" xmlns:xlink="http://www.w3.org/1999/xlink" width="22" height="20" viewBox="0 0 22 20" fill="none"><defs><rect id="path_0" x="0" y="0" width="22" height="20" /></defs><g opacity="1" transform="translate(0 0)  rotate(0 11 10)"><g opacity="1" transform="translate(0 0)  rotate(0 11 10)"><mask id="bg-mask-0" fill="white"><use xlink:href="#path_0"></use></mask><g mask="url(#bg-mask-0)" ><g opacity="1" transform="translate(4 0)  rotate(0 9 10)"><path id="路径 1" fill-rule="evenodd" style="fill:#00AA0E" transform="translate(0 0)  rotate(0 9 10)" opacity="1" d="M2,20L16,20C17.1,20 18,19.1 18,18L18,6C18,2.7 15.3,0 12,0L2,0C0.9,0 0,0.9 0,2L0,6.3L1,6.3L1,2C1,1.4 1.4,1 2,1L12,1C14.8,1 17,3.2 17,6L17,18C17,18.6 16.6,19 16,19L2,19C1.4,19 1,18.6 1,18L1,14.9L0,14.9L0,18C0,19.1 0.9,20 2,20Z " /></g><g opacity="1" transform="translate(16.5 0.5)  rotate(0 0.5 2.5)"><path id="路径 2" fill-rule="evenodd" style="fill:#00AA0E" transform="translate(0 0)  rotate(0 0.5 2.5)" opacity="1" d="M0,5L1,5L1,0L0,0L0,5Z " /></g><g opacity="1" transform="translate(16.5 4.5)  rotate(0 2.5 0.5)"><path id="路径 3" fill-rule="evenodd" style="fill:#00AA0E" transform="translate(0 0)  rotate(0 2.5 0.5)" opacity="1" d="M0,1L5,1L5,0L0,0L0,1Z " /></g><path id="减去顶层" fill-rule="evenodd" style="fill:#00AA0E" transform="translate(1 5.899999999999977)  rotate(0 8 5)" opacity="1" d="M0 1C0 0.4 0.36 0 0.89 0L15.11 0C15.64 0 16 0.4 16 1L16 9C16 9.6 15.64 10 15.11 10L0.89 10C0.36 10 0 9.6 0 9L0 1Z M5.7 5.96713C5.56 6.77713 4.86 7.29713 3.93 7.29713C2.74 7.29713 2 6.41713 2 4.99713C2 3.58713 2.74 2.70713 3.93 2.70713C4.85 2.70713 5.57 3.28713 5.7 4.12713L5.15 4.12713C5 3.56713 4.53 3.20713 3.93 3.20713C3.09 3.20713 2.56 3.90713 2.56 4.99713C2.56 6.09713 3.09 6.78713 3.93 6.78713C4.54 6.78713 5.01 6.47713 5.15 5.96713L5.7 5.96713Z M9.61 3.91713L9.06 3.91713C8.98 3.46713 8.61 3.19713 8.07 3.19713C7.48 3.19713 7.1 3.49713 7.1 3.93713C7.1 4.27713 7.34 4.47713 7.94 4.62713L8.4 4.75713C9.31 4.97713 9.67 5.33713 9.67 5.97713C9.67 6.77713 9.04 7.29713 8.04 7.29713C7.11 7.29713 6.47 6.79713 6.41 6.04713L6.96 6.04713C7.03 6.50713 7.47 6.79713 8.09 6.79713C8.68 6.79713 9.11 6.47713 9.11 6.04713C9.11 5.66713 8.84 5.43713 8.23 5.27713L7.67 5.13713C6.88 4.93713 6.54 4.57713 6.54 3.95713C6.54 3.20713 7.16 2.70713 8.08 2.70713C8.93 2.70713 9.56 3.20713 9.61 3.91713Z M13.43 2.80713L14 2.80713L12.39 7.18713L11.85 7.18713L10.23 2.80713L10.8 2.80713L12.09 6.48713L12.14 6.48713L13.43 2.80713Z " /></g></g></g></svg>