<svg xmlns="http://www.w3.org/2000/svg" xmlns:xlink="http://www.w3.org/1999/xlink" width="18" height="18" viewBox="0 0 18 18" fill="none"><defs><path id="path_0"
        transform="translate(0 0) rotate(0 9 9)"
        d="M0,18L18,18L18,0L0,0L0,18Z" /></defs><g opacity="1" transform="translate(0 0)  rotate(0 9 9)"><mask id="mask-0" fill="white"><use xlink:href="#path_0"></use></mask><g mask="url(#mask-0)"></g><g mask="url(#mask-0)"><path id="并集" fill-rule="evenodd" style="fill:#2E4FDE" transform="translate(0.9668674468994141 1)  rotate(0 8.033132553100586 8)" opacity="1" d="M5.65 15.69C5.64 15.72 5.62 15.75 5.6 15.78C5.59 15.8 5.57 15.83 5.54 15.85C5.52 15.88 5.49 15.9 5.47 15.91C5.44 15.93 5.41 15.95 5.38 15.96L5.29 15.99C5.26 16 5.22 16 5.19 16L2.5 16C2.16 16 1.84 15.93 1.53 15.8C1.23 15.68 0.96 15.5 0.73 15.27C0.5 15.04 0.32 14.77 0.2 14.47C0.07 14.16 0 13.84 0 13.5L0 2.5C0 2.16 0.07 1.84 0.2 1.53C0.32 1.23 0.5 0.96 0.73 0.73C0.96 0.5 1.23 0.32 1.53 0.2C1.84 0.07 2.16 0 2.5 0L13.63 0C13.95 0 14.25 0.06 14.54 0.18C14.83 0.3 15.08 0.47 15.3 0.7C15.53 0.92 15.7 1.18 15.82 1.47C15.94 1.76 16 2.06 16 2.38L16 3.31C16 3.35 16 3.38 15.99 3.41L15.96 3.5C15.95 3.53 15.93 3.56 15.92 3.59C15.9 3.62 15.88 3.64 15.85 3.67C15.83 3.69 15.81 3.71 15.78 3.73C15.75 3.75 15.72 3.76 15.69 3.77Q15.645 3.8 15.6 3.8C15.57 3.81 15.53 3.81 15.5 3.81C15.47 3.81 15.43 3.81 15.4 3.8Q15.355 3.8 15.31 3.77C15.28 3.76 15.25 3.75 15.22 3.73C15.19 3.71 15.17 3.69 15.15 3.67C15.12 3.64 15.1 3.62 15.08 3.59C15.07 3.56 15.05 3.53 15.04 3.5L15.01 3.41C15 3.38 15 3.35 15 3.31L15 2.38C15 2 14.87 1.67 14.6 1.4C14.33 1.13 14.01 1 13.63 1L2.5 1C2.09 1 1.74 1.15 1.44 1.44C1.15 1.74 1 2.09 1 2.5L1 13.5C1 13.91 1.15 14.26 1.44 14.56C1.74 14.85 2.09 15 2.5 15L5.19 15C5.22 15 5.26 15 5.29 15.01L5.38 15.04C5.41 15.05 5.44 15.07 5.47 15.09C5.49 15.1 5.52 15.12 5.54 15.15C5.57 15.17 5.59 15.2 5.6 15.22C5.62 15.25 5.64 15.28 5.65 15.31L5.68 15.4C5.68 15.43 5.69 15.47 5.69 15.5C5.69 15.53 5.68 15.57 5.68 15.6L5.65 15.69Z M5.45211 9.84279L7.29062 11.3855C7.3519 11.4369 7.41961 11.4807 7.49252 11.5027C7.559 11.5324 7.63833 11.5467 7.70877 11.5405C7.78045 11.5485 7.84966 11.5282 7.91121 11.5015C7.97275 11.4749 8.02664 11.4418 8.07164 11.3881C8.09092 11.3652 8.11663 11.3345 8.12826 11.3051C8.13988 11.2757 8.1515 11.2463 8.15546 11.2104C8.16709 11.181 8.17105 11.1452 8.17501 11.1094C8.17898 11.0735 8.16885 11.0389 8.15872 11.0043C8.16269 10.9685 8.15256 10.9339 8.13478 10.8928C8.11822 10.8659 8.1081 10.8313 8.08388 10.7979C8.05967 10.7645 8.04312 10.7376 8.0189 10.7042C7.99469 10.6709 7.96405 10.6452 7.9334 10.6194L6.0949 9.07675L7.38047 7.54466L9.21898 9.08735C9.28026 9.13877 9.34797 9.18254 9.42088 9.20455C9.48736 9.23422 9.56669 9.24858 9.63714 9.24241C9.70881 9.25034 9.77802 9.23009 9.83957 9.20341C9.90112 9.17673 9.955 9.14362 10 9.09C10.0193 9.06702 10.045 9.03638 10.0566 9.00697C10.0682 8.97756 10.0799 8.94815 10.0838 8.91231C10.0955 8.8829 10.0994 8.84707 10.1034 8.81123C10.1073 8.77539 10.0972 8.74079 10.0871 8.70618C10.0911 8.67035 10.0809 8.63574 10.0631 8.59471C10.0466 8.56776 10.0365 8.53316 10.0122 8.49979C9.98803 8.46642 9.97148 8.43947 9.94726 8.4061C9.92305 8.37273 9.89241 8.34702 9.86177 8.32131L8.02326 6.77861L9.30884 5.24653L11.1473 6.78922C11.2086 6.84064 11.2763 6.8844 11.3492 6.90642C11.4157 6.93609 11.4951 6.95044 11.5655 6.94428C11.6372 6.95221 11.7064 6.93195 11.7679 6.90528C11.8295 6.8786 11.8834 6.84549 11.9284 6.79187C11.9476 6.76889 11.9734 6.73824 11.985 6.70883C11.9966 6.67943 12.0082 6.65002 12.0122 6.61418C12.0238 6.58477 12.0278 6.54893 12.0317 6.5131C12.0357 6.47726 12.0256 6.44265 12.0154 6.40805C12.0194 6.37221 12.0093 6.33761 11.9915 6.29658C11.9749 6.26963 11.9648 6.23503 11.9406 6.20165C11.9164 6.16828 11.8998 6.14134 11.8756 6.10797C11.8514 6.07459 11.8208 6.04888 11.7901 6.02317L9.95162 4.48048L11.2372 2.94839C11.5907 2.52707 12.2247 2.4716 12.646 2.82514L15.7102 5.39629C16.1315 5.74982 16.187 6.38379 15.8335 6.80512L8.7628 15.2316C8.40927 15.6529 7.77529 15.7084 7.35397 15.3549L4.28979 12.7837C3.86847 12.4302 3.813 11.7962 4.16653 11.3749L5.45211 9.84279Z " /></g></g></svg>