<svg xmlns="http://www.w3.org/2000/svg" xmlns:xlink="http://www.w3.org/1999/xlink" width="18" height="18" viewBox="0 0 18 18" fill="none"><defs><path id="path_0"
        transform="translate(0 0) rotate(0 9 9)"
        d="M0,18L18,18L18,0L0,0L0,18Z" /></defs><g opacity="1" transform="translate(0 0)  rotate(0 9 9)"><mask id="mask-0" fill="white"><use xlink:href="#path_0"></use></mask><g mask="url(#mask-0)"></g><g mask="url(#mask-0)"><path id="并集" fill-rule="evenodd" style="fill:#75777D" transform="translate(0.9668674468994141 1)  rotate(0 8.033132553100586 8)" opacity="1" d="M2.5 1C2.09 1 1.74 1.15 1.44 1.44C1.15 1.74 1 2.09 1 2.5L1 13.5C1 13.91 1.15 14.26 1.44 14.56C1.74 14.85 2.09 15 2.5 15L5.19 15C5.22 15 5.26 15 5.29 15.01L5.38 15.04C5.41 15.05 5.44 15.07 5.47 15.09C5.49 15.1 5.52 15.12 5.54 15.15C5.57 15.17 5.59 15.2 5.6 15.22C5.62 15.25 5.64 15.28 5.65 15.31L5.68 15.4C5.68 15.43 5.69 15.47 5.69 15.5C5.69 15.53 5.68 15.57 5.68 15.6L5.65 15.69C5.64 15.72 5.62 15.75 5.6 15.78C5.59 15.8 5.57 15.83 5.54 15.85C5.52 15.88 5.49 15.9 5.47 15.91C5.44 15.93 5.41 15.95 5.38 15.96L5.29 15.99C5.26 16 5.22 16 5.19 16L2.5 16C2.16 16 1.84 15.93 1.53 15.8C1.23 15.68 0.96 15.5 0.73 15.27C0.5 15.04 0.32 14.77 0.2 14.47C0.07 14.16 0 13.84 0 13.5L0 2.5C0 2.16 0.07 1.84 0.2 1.53C0.32 1.23 0.5 0.96 0.73 0.73C0.96 0.5 1.23 0.32 1.53 0.2C1.84 0.07 2.16 0 2.5 0L13.63 0C13.95 0 14.25 0.06 14.54 0.18C14.83 0.3 15.08 0.47 15.3 0.7C15.53 0.92 15.7 1.18 15.82 1.47C15.94 1.76 16 2.06 16 2.38L16 3.31C16 3.35 16 3.38 15.99 3.41L15.96 3.5C15.95 3.53 15.93 3.56 15.92 3.59C15.9 3.62 15.88 3.64 15.85 3.67C15.83 3.69 15.81 3.71 15.78 3.73C15.75 3.75 15.72 3.76 15.69 3.77Q15.645 3.8 15.6 3.8C15.57 3.81 15.53 3.81 15.5 3.81C15.47 3.81 15.43 3.81 15.4 3.8Q15.355 3.8 15.31 3.77C15.28 3.76 15.25 3.75 15.22 3.73C15.19 3.71 15.17 3.69 15.15 3.67C15.12 3.64 15.1 3.62 15.08 3.59C15.07 3.56 15.05 3.53 15.04 3.5L15.01 3.41C15 3.38 15 3.35 15 3.31L15 2.38C15 2 14.87 1.67 14.6 1.4C14.33 1.13 14.01 1 13.63 1L2.5 1ZM4.29 12.78C3.87 12.43 3.81 11.8 4.17 11.37L11.24 2.95C11.59 2.53 12.22 2.47 12.65 2.83L15.71 5.4C16.13 5.75 16.19 6.38 15.83 6.81L8.76 15.23C8.41 15.65 7.78 15.71 7.35 15.35L4.29 12.78ZM8 14.59L15.07 6.16L12 3.59L10.72 5.12L12.25 6.41C12.27 6.43 12.3 6.45 12.32 6.48L12.37 6.56C12.39 6.59 12.4 6.62 12.41 6.65C12.42 6.68 12.43 6.71 12.42 6.75C12.43 6.78 12.43 6.81 12.43 6.85L12.4 6.94L12.37 7.03C12.36 7.06 12.33 7.09 12.31 7.11Q12.25 7.2 12.16 7.23C12.11 7.27 12.04 7.29 11.97 7.28C11.91 7.3 11.84 7.29 11.78 7.27C11.71 7.25 11.66 7.22 11.61 7.17L10.08 5.89L8.79 7.42L10.32 8.71C10.34 8.73 10.38 8.75 10.39 8.78L10.44 8.86C10.46 8.89 10.47 8.92 10.48 8.95C10.49 8.98 10.5 9.01 10.49 9.05C10.5 9.08 10.51 9.11 10.5 9.15C10.49 9.17 10.49 9.21 10.47 9.24L10.44 9.33C10.43 9.36 10.4 9.39 10.38 9.41Q10.32 9.485 10.23 9.53C10.18 9.56 10.11 9.58 10.04 9.58C9.98 9.6 9.91 9.59 9.85 9.56C9.78 9.55 9.73 9.52 9.68 9.47L8.15 8.19L6.86 9.72L8.39 11C8.42 11.02 8.45 11.05 8.46 11.08L8.51 11.16C8.53 11.18 8.54 11.22 8.56 11.25C8.57 11.28 8.57 11.31 8.57 11.34C8.58 11.38 8.58 11.41 8.57 11.44C8.56 11.47 8.56 11.51 8.55 11.54L8.51 11.63C8.5 11.66 8.47 11.69 8.45 11.71C8.41 11.76 8.36 11.8 8.3 11.83C8.25 11.86 8.18 11.88 8.12 11.88C8.05 11.89 7.98 11.89 7.92 11.86C7.86 11.85 7.8 11.82 7.75 11.77L6.22 10.49L4.93 12.02L8 14.59Z" /></g></g></svg>