<svg xmlns="http://www.w3.org/2000/svg" xmlns:xlink="http://www.w3.org/1999/xlink" width="18" height="18" viewBox="0 0 18 18" fill="none"><defs><path id="path_0"
        transform="translate(0 0) rotate(0 9 9)"
        d="M0,18L18,18L18,0L0,0L0,18Z" /></defs><g opacity="1" transform="translate(0 0)  rotate(0 9 9)"><g opacity="1" transform="translate(0 0)  rotate(0 9 9)"><mask id="mask-0" fill="white"><use xlink:href="#path_0"></use></mask><g mask="url(#mask-0)"></g><g mask="url(#mask-0)"><path id="减去顶层" fill-rule="evenodd" style="fill:#2E4FDE" transform="translate(1 1)  rotate(0 8 8)" opacity="1" d="M16 14C16 15.1 15.1 16 14 16L2 16C0.9 16 0 15.1 0 14L0 2C0 0.9 0.9 0 2 0L14 0C15.1 0 16 0.9 16 2L16 14Z M13.55 5.7C13.74 6.17 13.87 6.65 13.94 7.14C13.98 7.43 14 7.71 14 8L8 8L8 2C8.29 2 8.57 2.02 8.86 2.06C9.35 2.13 9.83 2.26 10.3 2.45C11.03 2.75 11.69 3.2 12.24 3.76C12.8 4.31 13.25 4.97 13.55 5.7Z M12.21 9.71C12.09 10.43 11.83 11.11 11.42 11.71C10.85 12.56 10.05 13.22 9.11 13.61C8.17 14 7.13 14.1 6.14 13.9C5.15 13.7 4.23 13.21 3.51 12.49C2.79 11.77 2.3 10.85 2.1 9.86C1.9 8.87 2 7.83 2.39 6.89C2.78 5.95 3.44 5.15 4.29 4.58C4.89 4.17 5.57 3.91 6.29 3.79C6.57 3.74 6.85 3.71 7.14 3.71L7.14 8.86L12.29 8.86C12.29 9.15 12.26 9.43 12.21 9.71Z M8.78 12.81C8.39 12.98 7.98 13.08 7.56 13.12C7.14 13.16 6.72 13.14 6.31 13.06C5.46 12.89 4.73 12.5 4.12 11.88C3.5 11.27 3.11 10.54 2.94 9.69C2.86 9.27 2.84 8.86 2.88 8.44C2.92 8.02 3.02 7.61 3.19 7.21C3.35 6.82 3.56 6.47 3.83 6.14C4.1 5.81 4.41 5.53 4.77 5.29C5.24 4.97 5.75 4.76 6.29 4.65L6.29 9.71L11.35 9.71C11.24 10.26 11.03 10.76 10.71 11.24C10.47 11.59 10.19 11.9 9.86 12.17C9.53 12.44 9.18 12.65 8.78 12.81Z " /></g></g></g></svg>