<svg xmlns="http://www.w3.org/2000/svg" xmlns:xlink="http://www.w3.org/1999/xlink" width="18" height="18" viewBox="0 0 18 18" fill="none"><defs><path id="path_0"
        transform="translate(0 0) rotate(0 9 9)"
        d="M0,18L18,18L18,0L0,0L0,18Z" /></defs><g opacity="1" transform="translate(0 0)  rotate(0 9 9)"><mask id="mask-0" fill="white"><use xlink:href="#path_0"></use></mask><g mask="url(#mask-0)"></g><g mask="url(#mask-0)"><path id="并集" fill-rule="evenodd" style="fill:#2E4FDE" transform="translate(1 1)  rotate(0 8 8)" opacity="1" d="M2 14L2 4L0.5 4C0.47 4 0.43 4 0.4 3.99C0.37 3.98 0.34 3.98 0.31 3.96C0.28 3.95 0.25 3.93 0.22 3.92C0.19 3.9 0.17 3.88 0.15 3.85C0.12 3.83 0.1 3.81 0.08 3.78C0.07 3.75 0.05 3.72 0.04 3.69L0.01 3.6C0 3.57 0 3.53 0 3.5C0 3.47 0 3.44 0.01 3.4L0.04 3.31C0.05 3.28 0.07 3.25 0.08 3.22C0.1 3.2 0.12 3.17 0.15 3.15C0.17 3.12 0.19 3.1 0.22 3.09C0.25 3.07 0.28 3.05 0.31 3.04L0.4 3.01C0.43 3 0.47 3 0.5 3L4 3L4 2C4 0.9 4.9 0 6 0L10 0C11.1 0 12 0.9 12 2L12 3L15.5 3C15.53 3 15.57 3 15.6 3.01L15.69 3.04C15.72 3.05 15.75 3.07 15.78 3.08C15.81 3.1 15.83 3.12 15.85 3.15C15.88 3.17 15.9 3.19 15.92 3.22C15.93 3.25 15.95 3.28 15.96 3.31L15.99 3.4C16 3.43 16 3.47 16 3.5C16 3.57 15.99 3.63 15.96 3.69C15.94 3.75 15.9 3.81 15.85 3.85C15.81 3.9 15.75 3.94 15.69 3.96C15.63 3.99 15.57 4 15.5 4L14 4L14 14C14 15.1 13.1 16 12 16L4 16C2.9 16 2 15.1 2 14ZM11 3L11 2C11 1.73 10.9 1.49 10.71 1.29C10.51 1.1 10.27 1 10 1L6 1C5.73 1 5.49 1.1 5.29 1.29C5.1 1.49 5 1.73 5 2L5 3L11 3ZM5 6C4.97 6 4.94 6 4.9 6.01L4.81 6.04C4.78 6.05 4.75 6.07 4.72 6.08C4.7 6.1 4.67 6.12 4.65 6.15C4.62 6.17 4.6 6.19 4.59 6.22C4.57 6.25 4.55 6.28 4.54 6.31L4.51 6.4C4.5 6.43 4.5 6.47 4.5 6.5L4.5 12.5C4.5 12.53 4.5 12.57 4.51 12.6L4.54 12.69C4.55 12.72 4.57 12.75 4.58 12.78C4.6 12.81 4.62 12.83 4.65 12.85C4.67 12.88 4.69 12.9 4.72 12.92C4.75 12.93 4.78 12.95 4.81 12.96L4.9 12.99C4.93 13 4.97 13 5 13C5.03 13 5.07 13 5.1 12.99L5.19 12.96C5.22 12.95 5.25 12.93 5.28 12.92C5.31 12.9 5.33 12.88 5.35 12.85C5.38 12.83 5.4 12.81 5.42 12.78C5.43 12.75 5.45 12.72 5.46 12.69L5.49 12.6C5.5 12.57 5.5 12.53 5.5 12.5L5.5 6.5C5.5 6.47 5.5 6.43 5.49 6.4C5.49 6.37 5.48 6.34 5.46 6.31C5.45 6.28 5.44 6.25 5.42 6.22C5.4 6.19 5.38 6.17 5.35 6.15C5.33 6.12 5.31 6.1 5.28 6.08C5.25 6.07 5.22 6.05 5.19 6.04L5.1 6.01C5.07 6 5.03 6 5 6ZM8.19 6.04C8.22 6.05 8.25 6.07 8.28 6.08C8.31 6.1 8.33 6.12 8.35 6.15C8.38 6.17 8.4 6.19 8.42 6.22C8.44 6.25 8.45 6.28 8.46 6.31C8.48 6.34 8.49 6.37 8.49 6.4C8.5 6.43 8.5 6.47 8.5 6.5L8.5 12.5C8.5 12.53 8.5 12.57 8.49 12.6L8.46 12.69C8.45 12.72 8.43 12.75 8.42 12.78C8.4 12.81 8.38 12.83 8.35 12.85C8.33 12.88 8.31 12.9 8.28 12.92C8.25 12.93 8.22 12.95 8.19 12.96L8.1 12.99C8.07 13 8.03 13 8 13C7.97 13 7.93 13 7.9 12.99L7.81 12.96C7.78 12.95 7.75 12.93 7.72 12.92C7.69 12.9 7.67 12.88 7.65 12.85C7.62 12.83 7.6 12.81 7.58 12.78C7.57 12.75 7.55 12.72 7.54 12.69L7.51 12.6C7.5 12.57 7.5 12.53 7.5 12.5L7.5 6.5C7.5 6.47 7.5 6.43 7.51 6.4L7.54 6.31C7.55 6.28 7.57 6.25 7.59 6.22C7.6 6.19 7.62 6.17 7.65 6.15C7.67 6.12 7.7 6.1 7.72 6.08C7.75 6.07 7.78 6.05 7.81 6.04L7.9 6.01C7.94 6 7.97 6 8 6C8.03 6 8.07 6 8.1 6.01L8.19 6.04ZM11.35 12.85C11.38 12.83 11.4 12.81 11.42 12.78C11.43 12.75 11.45 12.72 11.46 12.69L11.49 12.6C11.5 12.57 11.5 12.53 11.5 12.5L11.5 6.5C11.5 6.47 11.5 6.43 11.49 6.4C11.49 6.37 11.48 6.34 11.46 6.31C11.45 6.28 11.44 6.25 11.42 6.22C11.4 6.19 11.38 6.17 11.35 6.15C11.33 6.12 11.31 6.1 11.28 6.08C11.25 6.07 11.22 6.05 11.19 6.04L11.1 6.01C11.07 6 11.03 6 11 6C10.97 6 10.94 6 10.9 6.01L10.81 6.04C10.78 6.05 10.75 6.07 10.72 6.08C10.7 6.1 10.67 6.12 10.65 6.15C10.62 6.17 10.6 6.19 10.59 6.22C10.57 6.25 10.55 6.28 10.54 6.31L10.51 6.4C10.5 6.43 10.5 6.47 10.5 6.5L10.5 12.5C10.5 12.53 10.5 12.57 10.51 12.6L10.54 12.69C10.55 12.72 10.57 12.75 10.58 12.78C10.6 12.81 10.62 12.83 10.65 12.85C10.67 12.88 10.69 12.9 10.72 12.92C10.75 12.93 10.78 12.95 10.81 12.96L10.9 12.99C10.93 13 10.97 13 11 13C11.03 13 11.07 13 11.1 12.99L11.19 12.96C11.22 12.95 11.25 12.93 11.28 12.92C11.31 12.9 11.33 12.88 11.35 12.85Z" /></g></g></svg>