<svg xmlns="http://www.w3.org/2000/svg" xmlns:xlink="http://www.w3.org/1999/xlink" width="18" height="18" viewBox="0 0 18 18" fill="none"><defs><path id="path_0"
        transform="translate(0 0) rotate(0 9 9)"
        d="M0,18L18,18L18,0L0,0L0,18Z" /></defs><g opacity="1" transform="translate(0 0)  rotate(0 9 9)"><mask id="mask-0" fill="white"><use xlink:href="#path_0"></use></mask><g mask="url(#mask-0)"></g><g mask="url(#mask-0)"><path id="并集" fill-rule="evenodd" style="fill:#2E4FDE" transform="translate(1 1.3449196815490723)  rotate(0 8 7.655080318450928)" opacity="1" d="M0 1C0 0.63 0.2 0.29 0.52 0.12C0.85 -0.06 1.24 -0.04 1.55 0.16L6.5 3.4L6.5 11.9L1.55 15.14C1.24 15.34 0.85 15.36 0.52 15.18C0.2 15.01 0 14.67 0 14.3L0 1ZM9.5 3.41L14.45 0.17C14.76 -0.03 15.15 -0.05 15.48 0.13C15.8 0.3 16 0.64 16 1.01L16 14.31C16 14.68 15.8 15.02 15.48 15.19C15.15 15.37 14.76 15.35 14.45 15.15L9.5 11.91L9.5 3.41ZM1 1L1 14.3L1.01 14.3L5.5 11.36L5.5 3.94L1 1ZM8.35 12.01C8.4 11.97 8.44 11.91 8.46 11.85C8.49 11.79 8.5 11.73 8.5 11.66L8.5 3.66C8.5 3.63 8.5 3.59 8.49 3.56L8.46 3.47C8.45 3.44 8.43 3.41 8.42 3.38C8.4 3.35 8.38 3.33 8.35 3.31C8.33 3.28 8.31 3.26 8.28 3.24C8.25 3.23 8.22 3.21 8.19 3.2L8.1 3.17C8.07 3.16 8.03 3.16 8 3.16C7.97 3.16 7.93 3.16 7.9 3.17L7.81 3.2C7.78 3.21 7.75 3.23 7.72 3.24C7.69 3.26 7.67 3.28 7.65 3.31C7.62 3.33 7.6 3.35 7.58 3.38C7.57 3.41 7.55 3.44 7.54 3.47L7.51 3.56C7.5 3.59 7.5 3.63 7.5 3.66L7.5 11.66C7.5 11.69 7.5 11.73 7.51 11.76L7.54 11.85C7.55 11.88 7.57 11.91 7.58 11.94C7.6 11.97 7.62 11.99 7.65 12.01C7.67 12.04 7.7 12.06 7.72 12.08C7.75 12.09 7.78 12.11 7.81 12.12L7.9 12.15C7.94 12.16 7.97 12.16 8 12.16C8.07 12.16 8.13 12.15 8.19 12.12C8.25 12.1 8.31 12.06 8.35 12.01Z" /></g></g></svg>