<svg xmlns="http://www.w3.org/2000/svg" xmlns:xlink="http://www.w3.org/1999/xlink" width="18" height="18" viewBox="0 0 18 18" fill="none"><defs><path id="path_0"
        transform="translate(0 0) rotate(0 9 9)"
        d="M0,18L18,18L18,0L0,0L0,18Z" /></defs><g opacity="1" transform="translate(0 0)  rotate(0 9 9)"><mask id="mask-0" fill="white"><use xlink:href="#path_0"></use></mask><g mask="url(#mask-0)"></g><g mask="url(#mask-0)"><path id="并集" fill-rule="evenodd" style="fill:#75777D" transform="translate(1 1.348306655883789)  rotate(0 8 7.651693344116211)" opacity="1" d="M6.5 3.4L1.55 0.16C1.24 -0.04 0.85 -0.06 0.52 0.12C0.2 0.29 0 0.63 0 1L0 14.3C0 14.67 0.2 15.01 0.52 15.18C0.85 15.36 1.24 15.34 1.55 15.14L6.5 11.9L6.5 3.4ZM9.5 3.4L14.45 0.16C14.76 -0.04 15.15 -0.06 15.48 0.12C15.8 0.29 16 0.63 16 1L16 14.3C16 14.67 15.8 15.01 15.48 15.18C15.15 15.36 14.76 15.34 14.45 15.14L9.5 11.9L9.5 3.4ZM1 1L5.5 3.94L5.5 11.36L1.01 14.3L1 14.3L1 1ZM10.5 3.94L10.5 11.36L15 14.31L15 1L14.99 1L10.5 3.94ZM8.42 3.37C8.4 3.34 8.38 3.32 8.35 3.3C8.33 3.27 8.31 3.25 8.28 3.23C8.25 3.22 8.22 3.2 8.19 3.19L8.1 3.16C8.07 3.15 8.03 3.15 8 3.15C7.97 3.15 7.93 3.15 7.9 3.16L7.81 3.19C7.78 3.2 7.75 3.22 7.72 3.23C7.69 3.25 7.67 3.27 7.65 3.3C7.62 3.32 7.6 3.34 7.58 3.37C7.57 3.4 7.55 3.43 7.54 3.46L7.51 3.55C7.5 3.58 7.5 3.62 7.5 3.65L7.5 11.65C7.5 11.68 7.5 11.72 7.51 11.75L7.54 11.84C7.55 11.87 7.57 11.9 7.58 11.93C7.6 11.96 7.62 11.98 7.65 12C7.67 12.03 7.7 12.05 7.72 12.07C7.75 12.08 7.78 12.1 7.81 12.11L7.9 12.14C7.94 12.15 7.97 12.15 8 12.15C8.07 12.15 8.13 12.14 8.19 12.11C8.25 12.09 8.31 12.05 8.35 12C8.4 11.96 8.44 11.9 8.46 11.84C8.49 11.78 8.5 11.72 8.5 11.65L8.5 3.65C8.5 3.62 8.5 3.58 8.49 3.55L8.46 3.46C8.45 3.43 8.43 3.4 8.42 3.37Z" /></g></g></svg>