<svg xmlns="http://www.w3.org/2000/svg" xmlns:xlink="http://www.w3.org/1999/xlink" width="18" height="18" viewBox="0 0 18 18" fill="none"><defs><path id="path_0"
        transform="translate(0 0) rotate(0 9 9)"
        d="M0,18L18,18L18,0L0,0L0,18Z" /></defs><g opacity="1" transform="translate(0 0)  rotate(0 9 9)"><g opacity="1" transform="translate(0 0)  rotate(0 9 9)"><mask id="mask-0" fill="white"><use xlink:href="#path_0"></use></mask><g mask="url(#mask-0)"></g><g mask="url(#mask-0)"><path id="并集" fill-rule="evenodd" style="fill:#75777D" transform="translate(0.3000000000001819 0.3578167280629714)  rotate(0 8.7 8.642183271937027)" opacity="1" d="M12.9951 2.95L12.9951 6.62C12.9951 7.02 12.7851 7.38 12.4451 7.58L9.25506 9.42C8.90506 9.62 8.49506 9.62 8.14506 9.42L4.95506 7.58C4.61506 7.38 4.40506 7.02 4.40506 6.62L4.40506 2.95C4.40506 2.55 4.61506 2.19 4.95506 1.99L8.14506 0.15C8.49506 -0.05 8.90506 -0.05 9.25506 0.15L12.4451 1.99C12.7851 2.19 12.9951 2.55 12.9951 2.95Z M11.8951 2.94L11.8951 6.63L8.69506 8.47L5.50506 6.63L5.50506 2.94L8.69506 1.1L8.70506 1.1L11.8951 2.94Z M6.90481 3.61551L8.59481 2.64551C8.65481 2.60551 8.74481 2.60551 8.81481 2.64551L10.4948 3.61551C10.5648 3.66551 10.6048 3.73551 10.6048 3.81551L10.6048 5.75551C10.6048 5.83551 10.5648 5.90551 10.4948 5.95551L8.81481 6.92551C8.74481 6.96551 8.65481 6.96551 8.59481 6.92551L6.90481 5.95551C6.83481 5.90551 6.79481 5.83551 6.79481 5.75551L6.79481 3.81551C6.79481 3.73551 6.83481 3.66551 6.90481 3.61551Z M9.50481 5.25551L8.70481 5.71551L7.89481 5.25551L7.89481 4.31551L8.70481 3.85551L9.50481 4.31551L9.50481 5.25551Z M0.55 9.69886C0.21 9.89886 0 10.2589 0 10.6589L0 14.3289C0 14.7289 0.21 15.0889 0.55 15.2889L3.74 17.1289C4.09 17.3289 4.5 17.3289 4.85 17.1289L8.04 15.2889C8.38 15.0889 8.59 14.7289 8.59 14.3289L8.59 10.6589C8.59 10.2589 8.38 9.89886 8.04 9.69886L4.85 7.85886C4.5 7.65886 4.09 7.65886 3.74 7.85886L0.55 9.69886Z M13.6601 7.85886C13.3101 7.65886 12.9001 7.65886 12.5501 7.85886L9.36013 9.69886C9.02013 9.89886 8.81013 10.2589 8.81013 10.6589L8.81013 14.3289C8.81013 14.7289 9.02013 15.0889 9.36013 15.2889L12.5501 17.1289C12.9001 17.3289 13.3101 17.3289 13.6601 17.1289L16.8501 15.2889C17.1901 15.0889 17.4001 14.7289 17.4001 14.3289L17.4001 10.6589C17.4001 10.2589 17.1901 9.89886 16.8501 9.69886L13.6601 7.85886Z M4.3 8.80886L4.29 8.80886L1.1 10.6489L1.1 14.3389L4.29 16.1789L7.49 14.3389L7.49 10.6489L4.3 8.80886Z M16.3001 14.3389L16.3001 10.6489L13.1101 8.80886L13.1001 8.80886L9.91013 10.6489L9.91013 14.3389L13.1001 16.1789L16.3001 14.3389Z M6.19975 13.4644C6.19975 13.5444 6.15975 13.6144 6.08975 13.6644L4.40975 14.6344C4.33975 14.6744 4.24975 14.6744 4.18975 14.6344L2.49975 13.6644C2.42975 13.6144 2.38975 13.5444 2.38975 13.4644L2.38975 11.5244C2.38975 11.4444 2.42975 11.3744 2.49975 11.3244L4.18975 10.3544C4.24975 10.3144 4.33975 10.3144 4.40975 10.3544L6.08975 11.3244C6.15975 11.3744 6.19975 11.4444 6.19975 11.5244L6.19975 13.4644Z M11.3099 13.6644C11.2399 13.6144 11.1999 13.5444 11.1999 13.4644L11.1999 11.5244C11.1999 11.4444 11.2399 11.3744 11.3099 11.3244L12.9999 10.3544C13.0599 10.3144 13.1499 10.3144 13.2199 10.3544L14.8999 11.3244C14.9699 11.3744 15.0099 11.4444 15.0099 11.5244L15.0099 13.4644C15.0099 13.5444 14.9699 13.6144 14.8999 13.6644L13.2199 14.6344C13.1499 14.6744 13.0599 14.6744 12.9999 14.6344L11.3099 13.6644Z M5.09975 12.0244L5.09975 12.9644L4.29975 13.4244L3.48975 12.9644L3.48975 12.0244L4.29975 11.5644L5.09975 12.0244Z M13.9099 12.0244L13.9099 12.9644L13.1099 13.4244L12.2999 12.9644L12.2999 12.0244L13.1099 11.5644L13.9099 12.0244Z " /></g></g></g></svg>