<svg xmlns="http://www.w3.org/2000/svg" xmlns:xlink="http://www.w3.org/1999/xlink" width="18" height="18" viewBox="0 0 18 18" fill="none"><defs><path id="path_0"
        transform="translate(0 0) rotate(0 9 9)"
        d="M0,18L18,18L18,0L0,0L0,18Z" /></defs><g opacity="1" transform="translate(0 0)  rotate(0 9 9)"><g opacity="1" transform="translate(0 0)  rotate(0 9 9)"><mask id="mask-0" fill="white"><use xlink:href="#path_0"></use></mask><g mask="url(#mask-0)"></g><g mask="url(#mask-0)"><path id="并集" fill-rule="evenodd" style="fill:#2E4FDE" transform="translate(0.40000000000009095 0.45987271465217816)  rotate(0 8.6 8.540127285347818)" opacity="1" d="M9.14 0.15C8.81 -0.05 8.39 -0.05 8.06 0.15L4.9 1.96C4.56 2.16 4.35 2.52 4.35 2.91L4.35 6.55C4.35 6.94 4.56 7.3 4.9 7.5L8.06 9.31C8.39 9.51 8.81 9.51 9.14 9.31L12.3 7.5C12.64 7.3 12.85 6.94 12.85 6.55L12.85 2.91C12.85 2.52 12.64 2.16 12.3 1.96L9.14 0.15ZM8.49 2.62C8.56 2.57 8.64 2.57 8.71 2.62L10.37 3.58C10.44 3.62 10.48 3.7 10.48 3.77L10.48 5.69C10.48 5.76 10.44 5.84 10.37 5.88L8.71 6.84C8.64 6.89 8.56 6.89 8.49 6.84L6.83 5.88C6.76 5.84 6.72 5.76 6.72 5.69L6.72 3.77C6.72 3.7 6.76 3.62 6.83 3.58L8.49 2.62ZM0.54 15.12L3.7 16.93C4.04 17.13 4.45 17.13 4.79 16.93L7.95 15.12C8.28 14.92 8.49 14.56 8.49 14.17L8.49 10.53C8.49 10.14 8.28 9.78 7.95 9.59L4.79 7.77C4.45 7.57 4.04 7.57 3.7 7.77L0.54 9.59C0.21 9.78 0 10.14 0 10.53L0 14.17C0 14.56 0.21 14.92 0.54 15.12ZM13.5 16.93C13.16 17.13 12.75 17.13 12.41 16.93L9.25 15.12C8.92 14.92 8.71 14.56 8.71 14.17L8.71 10.53C8.71 10.14 8.92 9.78 9.25 9.59L12.41 7.77C12.75 7.57 13.16 7.57 13.5 7.77L16.66 9.59C16.99 9.78 17.2 10.14 17.2 10.53L17.2 14.17C17.2 14.56 16.99 14.92 16.66 15.12L13.5 16.93ZM4.14 10.24C4.2 10.19 4.29 10.19 4.35 10.24L6.02 11.2C6.09 11.24 6.13 11.32 6.13 11.39L6.13 13.31C6.13 13.38 6.09 13.46 6.02 13.5L4.35 14.46C4.29 14.51 4.2 14.51 4.14 14.46L2.47 13.5C2.41 13.46 2.36 13.38 2.36 13.31L2.36 11.39C2.36 11.32 2.41 11.24 2.47 11.2L4.14 10.24ZM14.84 13.31L14.84 11.39C14.84 11.32 14.79 11.24 14.73 11.2L13.06 10.24C13 10.19 12.91 10.19 12.85 10.24L11.18 11.2C11.11 11.24 11.07 11.32 11.07 11.39L11.07 13.31C11.07 13.38 11.11 13.46 11.18 13.5L12.85 14.46C12.91 14.51 13 14.51 13.06 14.46L14.73 13.5C14.79 13.46 14.84 13.38 14.84 13.31Z" /></g></g></g></svg>