<svg xmlns="http://www.w3.org/2000/svg" xmlns:xlink="http://www.w3.org/1999/xlink" width="18" height="18" viewBox="0 0 18 18" fill="none"><defs><path id="path_0"
        transform="translate(0 0) rotate(0 9 9)"
        d="M0,18L18,18L18,0L0,0L0,18Z" /></defs><g opacity="1" transform="translate(0 0)  rotate(0 9 9)"><mask id="mask-0" fill="white"><use xlink:href="#path_0"></use></mask><g mask="url(#mask-0)"></g><g mask="url(#mask-0)"><path id="并集" fill-rule="evenodd" style="fill:#2E4FDE" transform="translate(1 1)  rotate(0 8 8)" opacity="1" d="M16 2L16 14C16 15.1 15.1 16 14 16L2 16C0.9 16 0 15.1 0 14L0 2C0 0.9 0.9 0 2 0L14 0C15.1 0 16 0.9 16 2ZM15 2C15 1.73 14.9 1.49 14.71 1.29C14.51 1.1 14.27 1 14 1L2 1C1.73 1 1.49 1.1 1.29 1.29C1.1 1.49 1 1.73 1 2L1 14C1 14.27 1.1 14.51 1.29 14.71C1.49 14.9 1.73 15 2 15L14 15C14.27 15 14.51 14.9 14.71 14.71C14.9 14.51 15 14.27 15 14L15 2ZM13.54 11.7C13.58 11.79 13.61 11.88 13.64 11.97C13.78 12.33 13.88 12.71 13.93 13.1C13.98 13.4 14 13.7 14 14L2 14C2 13.43 2.08 12.87 2.24 12.33C2.26 12.26 2.28 12.19 2.31 12.11C2.35 11.97 2.4 11.84 2.46 11.7C2.76 10.98 3.2 10.31 3.76 9.76C4.31 9.2 4.98 8.76 5.7 8.46C5.88 8.39 6.07 8.32 6.25 8.26C5.28 7.67 4.63 6.6 4.63 5.38C4.63 3.51 6.14 2 8.01 2C9.86 2 11.38 3.51 11.38 5.38C11.38 6.6 10.72 7.67 9.75 8.26C9.94 8.32 10.12 8.39 10.3 8.46C10.84 8.68 11.35 8.99 11.81 9.36C11.96 9.49 12.11 9.62 12.25 9.76C12.41 9.92 12.55 10.09 12.69 10.26C13.04 10.7 13.33 11.19 13.54 11.7Z" /></g></g></svg>