<svg xmlns="http://www.w3.org/2000/svg" xmlns:xlink="http://www.w3.org/1999/xlink" width="18" height="18" viewBox="0 0 18 18" fill="none"><defs><path id="path_0"
        transform="translate(0 0) rotate(0 9 9)"
        d="M0,18L18,18L18,0L0,0L0,18Z" /></defs><g opacity="1" transform="translate(0 0)  rotate(0 9 9)"><mask id="mask-0" fill="white"><use xlink:href="#path_0"></use></mask><g mask="url(#mask-0)"></g><g mask="url(#mask-0)"><path id="并集" fill-rule="evenodd" style="fill:#75777D" transform="translate(1 1)  rotate(0 8 8)" opacity="1" d="M14 16C15.1 16 16 15.1 16 14L16 2C16 0.9 15.1 0 14 0L2 0C0.9 0 0 0.9 0 2L0 14C0 15.1 0.9 16 2 16L14 16Z M14 15C14.27 15 14.51 14.9 14.71 14.71C14.9 14.51 15 14.27 15 14L15 2C15 1.73 14.9 1.49 14.71 1.29C14.51 1.1 14.27 1 14 1L2 1C1.73 1 1.49 1.1 1.29 1.29C1.1 1.49 1 1.73 1 2L1 14C1 14.27 1.1 14.51 1.29 14.71C1.49 14.9 1.73 15 2 15L14 15Z M11.5 5.5234C11.5 3.5934 9.93003 2.0234 8.00003 2.0234C6.07003 2.0234 4.50003 3.5934 4.50003 5.5234C4.50003 6.69934 5.08287 7.74162 5.97486 8.37657C5.88443 8.40979 5.79448 8.44539 5.70497 8.4834C4.97497 8.7734 4.32497 9.2134 3.76497 9.7834C3.20497 10.3334 2.77497 10.9834 2.46497 11.7134C2.32497 12.0634 2.20497 12.4334 2.12497 12.8334C2.09497 12.9834 2.06497 13.1734 2.03497 13.4134L2.78497 13.5034L2.03497 13.4234C2.03497 13.4934 2.03497 13.5534 2.05497 13.6234C2.07497 13.6834 2.10497 13.7434 2.14497 13.7934C2.19497 13.8434 2.24497 13.8834 2.29497 13.9134C2.35497 13.9534 2.42497 13.9634 2.48497 13.9734L2.58497 13.9734C2.61497 13.9734 2.64497 13.9634 2.68497 13.9534C2.71497 13.9434 2.74497 13.9334 2.77497 13.9134C2.79497 13.9034 2.82497 13.8834 2.85497 13.8634C2.87497 13.8434 2.90497 13.8234 2.92497 13.7934C2.94497 13.7734 2.96497 13.7434 2.97497 13.7134C2.99497 13.6834 3.00497 13.6534 3.01497 13.6234C3.02497 13.5934 3.02497 13.5534 3.03497 13.5234C3.05497 13.3134 3.07497 13.1634 3.10497 13.0534C3.17497 12.7034 3.26497 12.3834 3.38497 12.1134C3.64497 11.4934 4.00497 10.9534 4.46497 10.4834Q5.18497 9.7784 6.08497 9.4034C6.69497 9.1534 7.33497 9.0234 7.99497 9.0234C8.66497 9.0234 9.30497 9.1534 9.91497 9.4034C10.515 9.6534 11.055 10.0134 11.535 10.4834Q12.225 11.1884 12.615 12.1034C12.735 12.3834 12.825 12.6934 12.895 13.0434C12.925 13.1534 12.945 13.3134 12.965 13.5234C12.975 13.5534 12.975 13.5934 12.985 13.6234C12.995 13.6534 13.005 13.6834 13.025 13.7134C13.035 13.7434 13.055 13.7734 13.075 13.7934C13.095 13.8234 13.125 13.8434 13.145 13.8634C13.175 13.8834 13.205 13.9034 13.225 13.9134C13.255 13.9334 13.285 13.9434 13.315 13.9534C13.355 13.9634 13.385 13.9734 13.415 13.9734L13.515 13.9734C13.545 13.9734 13.575 13.9634 13.615 13.9534C13.645 13.9434 13.675 13.9334 13.705 13.9134C13.725 13.9034 13.755 13.8834 13.785 13.8634C13.805 13.8434 13.835 13.8234 13.855 13.7934C13.875 13.7734 13.895 13.7434 13.905 13.7134C13.925 13.6834 13.935 13.6534 13.945 13.6234C13.955 13.5934 13.955 13.5534 13.965 13.5234L13.965 13.4234L13.215 13.5034L13.965 13.4134C13.935 13.1734 13.905 12.9834 13.875 12.8434C13.795 12.4334 13.685 12.0634 13.535 11.7234C13.225 10.9834 12.795 10.3334 12.235 9.7834C11.675 9.2134 11.025 8.7834 10.295 8.4834C10.2056 8.44544 10.1156 8.40988 10.025 8.3767C10.9171 7.74176 11.5 6.69941 11.5 5.5234Z M9.77003 7.2934C10 7.0634 10.18 6.7934 10.3 6.4934C10.43 6.1834 10.5 5.8634 10.5 5.5234C10.5 5.1834 10.43 4.8634 10.3 4.5534C10.18 4.2534 10 3.9834 9.77003 3.7534C9.54003 3.5234 9.27003 3.3434 8.97003 3.2234C8.66003 3.0934 8.34003 3.0234 8.00003 3.0234C7.66003 3.0234 7.34003 3.0934 7.03003 3.2234C6.73003 3.3434 6.46003 3.5234 6.23003 3.7534C6.00003 3.9834 5.82003 4.2534 5.70003 4.5534C5.57003 4.8634 5.50003 5.1834 5.50003 5.5234C5.50003 5.8634 5.57003 6.1834 5.70003 6.4934C5.82003 6.7934 6.00003 7.0634 6.23003 7.2934C6.46003 7.5234 6.73003 7.7034 7.03003 7.8234C7.34003 7.9534 7.66003 8.0234 8.00003 8.0234C8.34003 8.0234 8.66003 7.9534 8.97003 7.8234C9.27003 7.7034 9.54003 7.5234 9.77003 7.2934Z " /></g></g></svg>