<svg xmlns="http://www.w3.org/2000/svg" xmlns:xlink="http://www.w3.org/1999/xlink" width="18" height="18" viewBox="0 0 18 18" fill="none"><defs><path id="path_0"
        transform="translate(0 0) rotate(0 9 9)"
        d="M0,18L18,18L18,0L0,0L0,18Z" /></defs><g opacity="1" transform="translate(0 0)  rotate(0 9 9)"><mask id="mask-0" fill="white"><use xlink:href="#path_0"></use></mask><g mask="url(#mask-0)"></g><g mask="url(#mask-0)"><path id="并集" fill-rule="evenodd" style="fill:#2E4FDE" transform="translate(1 1)  rotate(0 8 8)" opacity="1" d="M14 14C15.1 14 16 13.1 16 12L16 2C16 0.9 15.1 0 14 0L2 0C0.9 0 0 0.9 0 2L0 12C0 13.1 0.9 14 2 14L14 14ZM4.71 3.29C4.52 3.11 4.27 3 4 3C3.73 3 3.48 3.11 3.29 3.29C3.11 3.48 3 3.73 3 4L3 10C3 10.27 3.11 10.52 3.29 10.71C3.48 10.89 3.73 11 4 11C4.27 11 4.52 10.89 4.71 10.71C4.89 10.52 5 10.27 5 10L5 4C5 3.73 4.89 3.48 4.71 3.29ZM7 10C7 10.27 7.11 10.52 7.29 10.71C7.48 10.89 7.73 11 8 11C8.27 11 8.52 10.89 8.71 10.71C8.89 10.52 9 10.27 9 10L9 6C9 5.73 8.89 5.48 8.71 5.29C8.52 5.11 8.27 5 8 5C7.73 5 7.48 5.11 7.29 5.29C7.11 5.48 7 5.73 7 6L7 10ZM13 8L13 10C13 10.27 12.89 10.52 12.71 10.71C12.52 10.89 12.27 11 12 11C11.73 11 11.48 10.89 11.29 10.71C11.11 10.52 11 10.27 11 10L11 8C11 7.73 11.11 7.48 11.29 7.29C11.48 7.11 11.73 7 12 7C12.27 7 12.52 7.11 12.71 7.29C12.89 7.48 13 7.73 13 8ZM13.46 15.69C13.45 15.72 13.43 15.75 13.42 15.78C13.4 15.81 13.38 15.83 13.35 15.85C13.33 15.88 13.31 15.9 13.28 15.92C13.25 15.93 13.22 15.95 13.19 15.96C13.16 15.98 13.13 15.98 13.1 15.99C13.07 16 13.03 16 13 16L3 16C2.93 16 2.87 15.99 2.81 15.96C2.75 15.94 2.69 15.9 2.65 15.85C2.6 15.81 2.56 15.75 2.54 15.69C2.51 15.63 2.5 15.57 2.5 15.5C2.5 15.43 2.51 15.37 2.54 15.31C2.56 15.25 2.6 15.19 2.65 15.15C2.69 15.1 2.75 15.06 2.81 15.04C2.87 15.01 2.93 15 3 15L13 15C13.07 15 13.13 15.01 13.19 15.04C13.25 15.06 13.31 15.1 13.35 15.15C13.4 15.19 13.44 15.25 13.46 15.31C13.49 15.37 13.5 15.43 13.5 15.5C13.5 15.53 13.5 15.57 13.49 15.6L13.46 15.69Z" /></g></g></svg>