<svg xmlns="http://www.w3.org/2000/svg" xmlns:xlink="http://www.w3.org/1999/xlink" width="18" height="18" viewBox="0 0 18 18" fill="none"><defs><path id="path_0"
        transform="translate(0 0) rotate(0 9 9)"
        d="M0,18L18,18L18,0L0,0L0,18Z" /></defs><g opacity="1" transform="translate(0 0)  rotate(0 9 9)"><mask id="mask-0" fill="white"><use xlink:href="#path_0"></use></mask><g mask="url(#mask-0)"></g><g mask="url(#mask-0)"><path id="并集" fill-rule="evenodd" style="fill:#75777D" transform="translate(1 1)  rotate(0 8 8)" opacity="1" d="M14 0C15.1 0 16 0.9 16 2L16 14C16 15.1 15.1 16 14 16L2 16C0.9 16 0 15.1 0 14L0 2C0 0.9 0.9 0 2 0L14 0Z M1.29 14.71C1.1 14.51 1 14.27 1 14L1 2C1 1.73 1.1 1.49 1.29 1.29C1.49 1.1 1.73 1 2 1L14 1C14.27 1 14.51 1.1 14.71 1.29C14.9 1.49 15 1.73 15 2L15 14C15 14.27 14.9 14.51 14.71 14.71C14.51 14.9 14.27 15 14 15L2 15C1.73 15 1.49 14.9 1.29 14.71Z M3.0396 12.19L3.0096 12.1C2.9996 12.07 2.9996 12.03 2.9996 12L2.9996 7.91489C2.41653 7.70939 2 7.15443 2 6.5C2 5.84557 2.41653 5.29061 2.9996 5.08511L2.9996 4C2.9996 3.97 2.9996 3.93 3.0096 3.9L3.0396 3.81C3.0496 3.78 3.0696 3.75 3.0796 3.72C3.0996 3.69 3.1196 3.67 3.1496 3.65C3.1696 3.62 3.1896 3.6 3.2196 3.58C3.2496 3.57 3.2796 3.55 3.3096 3.54L3.3996 3.51C3.4296 3.5 3.4696 3.5 3.4996 3.5C3.5296 3.5 3.5696 3.5 3.5996 3.51L3.6896 3.54C3.7196 3.55 3.7496 3.57 3.7796 3.58C3.8096 3.6 3.8296 3.62 3.8496 3.65C3.8796 3.67 3.8996 3.69 3.9196 3.72C3.9296 3.75 3.9496 3.78 3.9596 3.81L3.9896 3.9C3.9996 3.93 3.9996 3.97 3.9996 4L3.9996 5.08483C4.58309 5.2901 5 5.84527 5 6.5C5 7.15473 4.58309 7.7099 3.9996 7.91517L3.9996 12C3.9996 12.03 3.9996 12.07 3.9896 12.1C3.9796 12.13 3.9796 12.16 3.9596 12.19C3.9496 12.22 3.9296 12.25 3.9196 12.28C3.8996 12.31 3.8796 12.33 3.8496 12.35C3.8296 12.38 3.8096 12.4 3.7796 12.42C3.7496 12.43 3.7196 12.45 3.6896 12.46L3.5996 12.49C3.5696 12.5 3.5296 12.5 3.4996 12.5C3.4696 12.5 3.4396 12.5 3.3996 12.49L3.3096 12.46C3.2796 12.45 3.2496 12.43 3.2196 12.42C3.1996 12.4 3.1696 12.38 3.1496 12.35C3.1196 12.33 3.0996 12.31 3.0896 12.28C3.0696 12.25 3.0496 12.22 3.0396 12.19Z M8.4896 3.9C8.4996 3.93 8.4996 3.97 8.4996 4L8.4996 8.08483C9.08309 8.2901 9.5 8.84527 9.5 9.5C9.5 10.1547 9.08309 10.7099 8.4996 10.9152L8.4996 12C8.4996 12.03 8.4996 12.07 8.4896 12.1C8.4796 12.13 8.4796 12.16 8.4596 12.19C8.4496 12.22 8.4296 12.25 8.4196 12.28C8.3996 12.31 8.3796 12.33 8.3496 12.35C8.3296 12.38 8.3096 12.4 8.2796 12.42C8.2496 12.43 8.2196 12.45 8.1896 12.46L8.0996 12.49C8.0696 12.5 8.0296 12.5 7.9996 12.5C7.9696 12.5 7.9396 12.5 7.8996 12.49L7.8096 12.46C7.7796 12.45 7.7496 12.43 7.7196 12.42C7.6996 12.4 7.6696 12.38 7.6496 12.35C7.6196 12.33 7.5996 12.31 7.5896 12.28C7.5696 12.25 7.5496 12.22 7.5396 12.19L7.5096 12.1C7.4996 12.07 7.4996 12.03 7.4996 12L7.4996 10.9149C6.91653 10.7094 6.5 10.1544 6.5 9.5C6.5 8.84557 6.91653 8.29061 7.4996 8.08511L7.4996 4C7.4996 3.97 7.4996 3.93 7.5096 3.9L7.5396 3.81C7.5496 3.78 7.5696 3.75 7.5796 3.72C7.5996 3.69 7.6196 3.67 7.6496 3.65C7.6696 3.62 7.6896 3.6 7.7196 3.58C7.7496 3.57 7.7796 3.55 7.8096 3.54L7.8996 3.51C7.9296 3.5 7.9696 3.5 7.9996 3.5C8.0296 3.5 8.0696 3.5 8.0996 3.51L8.1896 3.54C8.2196 3.55 8.2496 3.57 8.2796 3.58C8.3096 3.6 8.3296 3.62 8.3496 3.65C8.3796 3.67 8.3996 3.69 8.4196 3.72C8.4296 3.75 8.4496 3.78 8.4596 3.81L8.4896 3.9Z M12.2196 12.42C12.1996 12.4 12.1696 12.38 12.1496 12.35C12.1196 12.33 12.0996 12.31 12.0896 12.28C12.0696 12.25 12.0496 12.22 12.0396 12.19L12.0096 12.1C11.9996 12.07 11.9996 12.03 11.9996 12L11.9996 7.91489C11.4165 7.70939 11 7.15443 11 6.5C11 5.84557 11.4165 5.29061 11.9996 5.08511L11.9996 4C11.9996 3.97 11.9996 3.93 12.0096 3.9L12.0396 3.81C12.0496 3.78 12.0696 3.75 12.0796 3.72C12.0996 3.69 12.1196 3.67 12.1496 3.65C12.1696 3.62 12.1896 3.6 12.2196 3.58C12.2496 3.57 12.2796 3.55 12.3096 3.54L12.3996 3.51C12.4296 3.5 12.4696 3.5 12.4996 3.5C12.5296 3.5 12.5696 3.5 12.5996 3.51L12.6896 3.54C12.7196 3.55 12.7496 3.57 12.7796 3.58C12.8096 3.6 12.8296 3.62 12.8496 3.65C12.8796 3.67 12.8996 3.69 12.9196 3.72C12.9296 3.75 12.9496 3.78 12.9596 3.81L12.9896 3.9C12.9996 3.93 12.9996 3.97 12.9996 4L12.9996 5.08483C13.5831 5.2901 14 5.84527 14 6.5C14 7.15473 13.5831 7.7099 12.9996 7.91517L12.9996 12C12.9996 12.03 12.9996 12.07 12.9896 12.1C12.9796 12.13 12.9796 12.16 12.9596 12.19C12.9496 12.22 12.9296 12.25 12.9196 12.28C12.8996 12.31 12.8796 12.33 12.8496 12.35C12.8296 12.38 12.8096 12.4 12.7796 12.42C12.7496 12.43 12.7196 12.45 12.6896 12.46L12.5996 12.49C12.5696 12.5 12.5296 12.5 12.4996 12.5C12.4696 12.5 12.4396 12.5 12.3996 12.49L12.3096 12.46C12.2796 12.45 12.2496 12.43 12.2196 12.42Z " /></g></g></svg>