<svg xmlns="http://www.w3.org/2000/svg" xmlns:xlink="http://www.w3.org/1999/xlink" width="18" height="18" viewBox="0 0 18 18" fill="none"><defs><path id="path_0"
        transform="translate(0 0) rotate(0 9 9)"
        d="M0,18L18,18L18,0L0,0L0,18Z" /></defs><g opacity="1" transform="translate(0 0)  rotate(0 9 9)"><mask id="mask-0" fill="white"><use xlink:href="#path_0"></use></mask><g mask="url(#mask-0)"></g><g mask="url(#mask-0)"><path id="减去顶层" fill-rule="evenodd" style="fill:#2E4FDE" transform="translate(1 1)  rotate(0 8 8)" opacity="1" d="M16 2L16 14C16 15.1 15.1 16 14 16L2 16C0.9 16 0 15.1 0 14L0 2C0 0.9 0.9 0 2 0L14 0C15.1 0 16 0.9 16 2ZM3.22 3.58C3.19 3.6 3.17 3.62 3.15 3.65C3.12 3.67 3.1 3.69 3.08 3.72C3.07 3.75 3.05 3.78 3.04 3.81L3.01 3.9C3 3.93 3 3.97 3 4L3 5.09C2.42 5.29 2 5.85 2 6.5C2 7.15 2.42 7.71 3 7.91L3 12C3 12.03 3 12.07 3.01 12.1L3.04 12.19C3.05 12.22 3.07 12.25 3.09 12.28C3.1 12.31 3.12 12.33 3.15 12.35C3.17 12.38 3.2 12.4 3.22 12.42C3.25 12.43 3.28 12.45 3.31 12.46L3.4 12.49C3.44 12.5 3.47 12.5 3.5 12.5C3.53 12.5 3.57 12.5 3.6 12.49L3.69 12.46C3.72 12.45 3.75 12.43 3.78 12.42C3.81 12.4 3.83 12.38 3.85 12.35C3.88 12.33 3.9 12.31 3.92 12.28C3.93 12.25 3.95 12.22 3.96 12.19C3.98 12.16 3.98 12.13 3.99 12.1C4 12.07 4 12.03 4 12L4 7.92C4.58 7.71 5 7.15 5 6.5C5 5.85 4.58 5.29 4 5.08L4 4C4 3.97 4 3.93 3.99 3.9L3.96 3.81C3.95 3.78 3.93 3.75 3.92 3.72C3.9 3.69 3.88 3.67 3.85 3.65C3.83 3.62 3.81 3.6 3.78 3.58C3.75 3.57 3.72 3.55 3.69 3.54L3.6 3.51C3.57 3.5 3.53 3.5 3.5 3.5C3.47 3.5 3.43 3.5 3.4 3.51L3.31 3.54C3.28 3.55 3.25 3.57 3.22 3.58ZM7.59 12.28C7.6 12.31 7.62 12.33 7.65 12.35C7.67 12.38 7.7 12.4 7.72 12.42C7.75 12.43 7.78 12.45 7.81 12.46L7.9 12.49C7.94 12.5 7.97 12.5 8 12.5C8.03 12.5 8.07 12.5 8.1 12.49L8.19 12.46C8.22 12.45 8.25 12.43 8.28 12.42C8.31 12.4 8.33 12.38 8.35 12.35C8.38 12.33 8.4 12.31 8.42 12.28C8.43 12.25 8.45 12.22 8.46 12.19C8.48 12.16 8.48 12.13 8.49 12.1C8.5 12.07 8.5 12.03 8.5 12L8.5 10.92C9.08 10.71 9.5 10.15 9.5 9.5C9.5 8.85 9.08 8.29 8.5 8.08L8.5 4C8.5 3.97 8.5 3.93 8.49 3.9L8.46 3.81C8.45 3.78 8.43 3.75 8.42 3.72C8.4 3.69 8.38 3.67 8.35 3.65C8.33 3.62 8.31 3.6 8.28 3.58C8.25 3.57 8.22 3.55 8.19 3.54L8.1 3.51C8.07 3.5 8.03 3.5 8 3.5C7.97 3.5 7.93 3.5 7.9 3.51L7.81 3.54C7.78 3.55 7.75 3.57 7.72 3.58C7.69 3.6 7.67 3.62 7.65 3.65C7.62 3.67 7.6 3.69 7.58 3.72C7.57 3.75 7.55 3.78 7.54 3.81L7.51 3.9C7.5 3.93 7.5 3.97 7.5 4L7.5 8.09C6.92 8.29 6.5 8.85 6.5 9.5C6.5 10.15 6.92 10.71 7.5 10.91L7.5 12C7.5 12.03 7.5 12.07 7.51 12.1L7.54 12.19C7.55 12.22 7.57 12.25 7.59 12.28ZM12 7.91C11.42 7.71 11 7.15 11 6.5C11 5.85 11.42 5.29 12 5.09L12 4C12 3.97 12 3.93 12.01 3.9L12.04 3.81C12.05 3.78 12.07 3.75 12.08 3.72C12.1 3.69 12.12 3.67 12.15 3.65C12.17 3.62 12.19 3.6 12.22 3.58C12.25 3.57 12.28 3.55 12.31 3.54L12.4 3.51C12.43 3.5 12.47 3.5 12.5 3.5C12.53 3.5 12.57 3.5 12.6 3.51L12.69 3.54C12.72 3.55 12.75 3.57 12.78 3.58C12.81 3.6 12.83 3.62 12.85 3.65C12.88 3.67 12.9 3.69 12.92 3.72C12.93 3.75 12.95 3.78 12.96 3.81L12.99 3.9C13 3.93 13 3.97 13 4L13 5.08C13.58 5.29 14 5.85 14 6.5C14 7.15 13.58 7.71 13 7.92L13 12C13 12.03 13 12.07 12.99 12.1C12.98 12.13 12.98 12.16 12.96 12.19C12.95 12.22 12.93 12.25 12.92 12.28C12.9 12.31 12.88 12.33 12.85 12.35C12.83 12.38 12.81 12.4 12.78 12.42C12.75 12.43 12.72 12.45 12.69 12.46L12.6 12.49C12.57 12.5 12.53 12.5 12.5 12.5C12.47 12.5 12.44 12.5 12.4 12.49L12.31 12.46C12.28 12.45 12.25 12.43 12.22 12.42C12.2 12.4 12.17 12.38 12.15 12.35C12.12 12.33 12.1 12.31 12.09 12.28C12.07 12.25 12.05 12.22 12.04 12.19L12.01 12.1C12 12.07 12 12.03 12 12L12 7.91Z" /></g></g></svg>