<svg xmlns="http://www.w3.org/2000/svg" xmlns:xlink="http://www.w3.org/1999/xlink" width="18" height="18" viewBox="0 0 18 18" fill="none"><defs><path id="path_0"
        transform="translate(0 0) rotate(0 9 9)"
        d="M0,18L18,18L18,0L0,0L0,18Z" /></defs><g opacity="1" transform="translate(0 0)  rotate(0 9 9)"><mask id="mask-0" fill="white"><use xlink:href="#path_0"></use></mask><g mask="url(#mask-0)"></g><g mask="url(#mask-0)"><path id="并集" fill-rule="evenodd" style="fill:#2E4FDE" transform="translate(1.2100000381469727 0.6700000762939453)  rotate(0 7.789999961853027 8.329999923706055)" opacity="1" d="M7.31 0.12C7.61 -0.04 7.97 -0.04 8.27 0.12L15.06 3.81C15.38 3.99 15.58 4.32 15.58 4.69L15.58 11.97C15.58 12.34 15.38 12.67 15.06 12.85L8.27 16.54C7.97 16.7 7.61 16.7 7.31 16.54L0.52 12.85C0.2 12.67 0 12.34 0 11.97L0 4.69C0 4.32 0.2 3.99 0.52 3.81L7.31 0.12Z M14.2769 4.52092L7.79 1L7.78 1L1.30886 4.5219L7.79203 8.26695L14.2769 4.52092Z M6.45765 10.7447C6.42765 10.7647 6.40765 10.7947 6.37765 10.8147C6.34765 10.8347 6.31765 10.8547 6.28765 10.8647C6.25765 10.8847 6.22765 10.8947 6.18765 10.9047C6.15765 10.9147 6.12765 10.9147 6.08765 10.9247C6.05765 10.9247 6.01765 10.9247 5.98765 10.9147C5.94765 10.9147 5.91765 10.9047 5.88765 10.8947C5.84765 10.8847 5.81765 10.8647 5.78765 10.8547L2.11765 8.73471C2.05765 8.69471 2.00765 8.65471 1.96765 8.59471C1.92765 8.54471 1.89765 8.47471 1.87765 8.41471C1.85765 8.34471 1.85765 8.27471 1.85765 8.20471C1.86765 8.13471 1.89765 8.07471 1.92765 8.00471C1.96765 7.94471 2.00765 7.89471 2.06765 7.85471C2.11765 7.81471 2.17765 7.78471 2.24765 7.76471C2.31765 7.74471 2.38765 7.74471 2.45765 7.74471C2.52765 7.75471 2.58765 7.78471 2.64765 7.81471L6.31765 9.93471L6.40765 9.99471L6.47765 10.0647C6.49765 10.0947 6.51765 10.1247 6.52765 10.1547C6.54765 10.1847 6.55765 10.2247 6.56765 10.2547C6.57765 10.2847 6.57765 10.3247 6.58765 10.3547C6.58765 10.3947 6.58765 10.4247 6.57765 10.4647C6.57765 10.4947 6.56765 10.5247 6.55765 10.5647C6.54765 10.5947 6.52765 10.6247 6.51765 10.6547L6.45765 10.7447Z M9.05765 10.4647C9.05765 10.3947 9.05765 10.3247 9.07765 10.2547C9.09765 10.1847 9.12765 10.1247 9.16765 10.0647C9.20765 10.0147 9.25765 9.96471 9.31765 9.93471L12.9876 7.81471C13.0176 7.79471 13.0476 7.78471 13.0876 7.77471C13.1176 7.76471 13.1476 7.75471 13.1876 7.74471L13.2876 7.74471C13.3276 7.74471 13.3576 7.75471 13.3876 7.76471C13.4276 7.77471 13.4576 7.78471 13.4876 7.79471L13.5776 7.85471C13.6076 7.87471 13.6276 7.89471 13.6576 7.92471C13.6776 7.95471 13.6976 7.97471 13.7176 8.00471C13.7476 8.07471 13.7676 8.13471 13.7776 8.20471C13.7876 8.27471 13.7876 8.34471 13.7676 8.41471C13.7476 8.47471 13.7176 8.54471 13.6776 8.59471C13.6276 8.65471 13.5776 8.69471 13.5176 8.73471L9.84765 10.8547C9.78765 10.8847 9.72765 10.9047 9.65765 10.9147C9.58765 10.9247 9.51765 10.9247 9.44765 10.9047C9.37765 10.8847 9.31765 10.8547 9.26765 10.8147C9.20765 10.7647 9.16765 10.7147 9.12765 10.6547C9.09765 10.5947 9.06765 10.5347 9.05765 10.4647Z M5.88765 13.3347C5.84765 13.3247 5.81765 13.3047 5.78765 13.2947L2.11765 11.1747C2.05765 11.1347 2.00765 11.0947 1.96765 11.0347C1.92765 10.9847 1.89765 10.9147 1.87765 10.8547C1.85765 10.7847 1.85765 10.7147 1.85765 10.6447C1.86765 10.5747 1.89765 10.5147 1.92765 10.4447C1.96765 10.3847 2.00765 10.3347 2.06765 10.2947C2.11765 10.2547 2.17765 10.2247 2.24765 10.2047C2.31765 10.1847 2.38765 10.1847 2.45765 10.1847C2.52765 10.1947 2.58765 10.2247 2.64765 10.2547L6.31765 12.3747L6.40765 12.4347L6.47765 12.5047C6.49765 12.5347 6.51765 12.5647 6.52765 12.5947C6.54765 12.6247 6.55765 12.6647 6.56765 12.6947C6.57765 12.7247 6.57765 12.7647 6.58765 12.7947C6.58765 12.8347 6.58765 12.8647 6.57765 12.9047C6.57765 12.9347 6.56765 12.9647 6.55765 13.0047C6.54765 13.0347 6.52765 13.0647 6.51765 13.0947L6.45765 13.1847C6.42765 13.2047 6.40765 13.2347 6.37765 13.2547C6.34765 13.2747 6.31765 13.2947 6.28765 13.3047C6.25765 13.3247 6.22765 13.3347 6.18765 13.3447C6.15765 13.3547 6.12765 13.3547 6.08765 13.3647C6.05765 13.3647 6.01765 13.3647 5.98765 13.3547C5.94765 13.3547 5.91765 13.3447 5.88765 13.3347Z M13.6576 10.3647C13.6776 10.3947 13.6976 10.4147 13.7176 10.4447C13.7476 10.5147 13.7676 10.5747 13.7776 10.6447C13.7876 10.7147 13.7876 10.7847 13.7676 10.8547C13.7476 10.9147 13.7176 10.9847 13.6776 11.0347C13.6276 11.0947 13.5776 11.1347 13.5176 11.1747L9.84765 13.2947C9.78765 13.3247 9.72765 13.3447 9.65765 13.3547C9.58765 13.3647 9.51765 13.3647 9.44765 13.3447C9.37765 13.3247 9.31765 13.2947 9.26765 13.2547C9.20765 13.2047 9.16765 13.1547 9.12765 13.0947C9.09765 13.0347 9.06765 12.9747 9.05765 12.9047C9.05765 12.8347 9.05765 12.7647 9.07765 12.6947C9.09765 12.6247 9.12765 12.5647 9.16765 12.5047C9.20765 12.4547 9.25765 12.4047 9.31765 12.3747L12.9876 10.2547C13.0176 10.2347 13.0476 10.2247 13.0876 10.2147C13.1176 10.2047 13.1476 10.1947 13.1876 10.1847L13.2876 10.1847C13.3276 10.1847 13.3576 10.1947 13.3876 10.2047C13.4276 10.2147 13.4576 10.2247 13.4876 10.2347L13.5776 10.2947C13.6076 10.3147 13.6276 10.3347 13.6576 10.3647Z " /></g></g></svg>