<svg xmlns="http://www.w3.org/2000/svg" xmlns:xlink="http://www.w3.org/1999/xlink" width="18" height="18" viewBox="0 0 18 18" fill="none"><defs><path id="path_0"
        transform="translate(0 0) rotate(0 9 9)"
        d="M0,18L18,18L18,0L0,0L0,18Z" /></defs><g opacity="1" transform="translate(0 0)  rotate(0 9 9)"><mask id="mask-0" fill="white"><use xlink:href="#path_0"></use></mask><g mask="url(#mask-0)"></g><g mask="url(#mask-0)"><path id="并集" fill-rule="evenodd" style="fill:#75777D" transform="translate(1.2100000381469727 0.6700000762939453)  rotate(0 7.789999961853027 8.329999923706055)" opacity="1" d="M0 11.97C0 12.34 0.2 12.67 0.52 12.85L7.31 16.54C7.61 16.7 7.97 16.7 8.27 16.54L15.06 12.85C15.38 12.67 15.58 12.34 15.58 11.97L15.58 4.69C15.58 4.32 15.38 3.99 15.06 3.81L8.27 0.12C7.97 -0.04 7.61 -0.04 7.31 0.12L0.52 3.81C0.2 3.99 0 4.32 0 4.69L0 11.97Z M1.30886 4.5219L7.79203 8.26695L14.2769 4.52092L7.79 1L7.78 1L1.30886 4.5219Z M1 4.79673L1.00898 4.7811C1.006 4.78252 1.00301 4.78391 1 4.78527L1 4.79673Z M14.58 4.78527L14.58 4.78967L14.5766 4.78371C14.5777 4.78423 14.5789 4.78476 14.58 4.78527Z M1 5.50232L1 11.97L1.01 11.98L7.28947 15.3883L7.28947 9.13547L1 5.50232Z M8.28947 15.3936L8.28947 9.13843L14.58 5.50466L14.58 11.97L8.28947 15.3936Z M6.30993 9.96757L2.63993 7.84757C2.57993 7.80757 2.51993 7.78757 2.45993 7.77757C2.38993 7.77757 2.31993 7.77757 2.25993 7.79757C2.19993 7.80757 2.13993 7.83757 2.08993 7.87757C2.02993 7.91757 1.98993 7.96757 1.95993 8.02757C1.91993 8.08757 1.89993 8.14757 1.88993 8.20757C1.88993 8.27757 1.88993 8.34757 1.90993 8.40757C1.91993 8.46757 1.94993 8.52757 1.98993 8.57757C2.02993 8.63757 2.07993 8.67757 2.13993 8.70757L5.80993 10.8276C5.86993 10.8576 5.92993 10.8876 5.98993 10.8876C6.05993 10.8976 6.11993 10.8976 6.18993 10.8776C6.24993 10.8576 6.30993 10.8276 6.35993 10.7876C6.40993 10.7476 6.45993 10.7076 6.48993 10.6476C6.50993 10.6176 6.51993 10.5876 6.52993 10.5576C6.53993 10.5276 6.54993 10.4976 6.54993 10.4576C6.55993 10.4276 6.55993 10.3976 6.55993 10.3676C6.54993 10.3276 6.54993 10.2976 6.53993 10.2676L6.50993 10.1776L6.44993 10.0876C6.42993 10.0676 6.40993 10.0376 6.38993 10.0176C6.35993 9.99757 6.33993 9.97757 6.30993 9.95757L6.30993 9.96757Z M13.76 8.30757C13.76 8.27757 13.76 8.24757 13.75 8.20757C13.75 8.17757 13.74 8.14757 13.73 8.11757C13.72 8.08757 13.71 8.05757 13.69 8.02757C13.66 7.96757 13.61 7.91757 13.56 7.87757C13.51 7.83757 13.45 7.80757 13.39 7.79757C13.32 7.77757 13.26 7.77757 13.19 7.77757C13.13 7.78757 13.07 7.80757 13.01 7.84757L9.34 9.96757L9.34 9.95757C9.31 9.97757 9.29 9.99757 9.26 10.0176L9.19 10.0876C9.17 10.1176 9.16 10.1476 9.14 10.1776L9.11 10.2676C9.1 10.2976 9.09 10.3276 9.09 10.3676L9.09 10.4576C9.1 10.4976 9.11 10.5276 9.12 10.5576C9.13 10.5876 9.14 10.6176 9.16 10.6476C9.17 10.6776 9.19 10.6976 9.21 10.7276C9.24 10.7476 9.26 10.7676 9.29 10.7876C9.31 10.8076 9.34 10.8276 9.37 10.8476L9.46 10.8776C9.49 10.8876 9.52 10.8876 9.56 10.8976C9.59 10.8976 9.62 10.8976 9.65 10.8876C9.69 10.8876 9.72 10.8776 9.75 10.8676C9.77999 10.8576 9.81 10.8476 9.84 10.8276L13.51 8.70757C13.54 8.69757 13.56 8.67757 13.59 8.64757C13.61 8.62757 13.64 8.60757 13.66 8.57757C13.68 8.55757 13.69 8.52757 13.71 8.49757L13.74 8.40757C13.75 8.37757 13.75 8.33757 13.76 8.30757Z M1.98993 11.0129C2.02993 11.0729 2.07993 11.1129 2.13993 11.1429L5.80993 13.2629C5.86993 13.2929 5.92993 13.3229 5.98993 13.3229C6.05993 13.3329 6.11993 13.3329 6.18993 13.3129C6.24993 13.2929 6.30993 13.2629 6.35993 13.2229C6.40993 13.1829 6.45993 13.1429 6.48993 13.0829C6.50993 13.0529 6.51993 13.0229 6.52993 12.9929C6.53993 12.9629 6.54993 12.9329 6.54993 12.8929C6.55993 12.8629 6.55993 12.8329 6.55993 12.8029C6.54993 12.7629 6.54993 12.7329 6.53993 12.7029L6.50993 12.6129L6.44993 12.5229C6.42993 12.5029 6.40993 12.4729 6.38993 12.4529C6.35993 12.4329 6.33993 12.4129 6.30993 12.3929L6.30993 12.4029L2.63993 10.2829C2.57993 10.2429 2.51993 10.2229 2.45993 10.2129C2.38993 10.2129 2.31993 10.2129 2.25993 10.2329C2.19993 10.2429 2.13993 10.2729 2.08993 10.3129C2.02993 10.3529 1.98993 10.4029 1.95993 10.4629C1.91993 10.5229 1.89993 10.5829 1.88993 10.6429C1.88993 10.7129 1.88993 10.7829 1.90993 10.8429C1.91993 10.9029 1.94993 10.9629 1.98993 11.0129Z M9.56 13.3329C9.59 13.3329 9.62 13.3329 9.65 13.3229C9.69 13.3229 9.72 13.3129 9.75 13.3029C9.77999 13.2929 9.81 13.2829 9.84 13.2629L13.51 11.1429C13.54 11.1329 13.56 11.1129 13.59 11.0829C13.61 11.0629 13.64 11.0429 13.66 11.0129C13.68 10.9929 13.69 10.9629 13.71 10.9329L13.74 10.8429C13.75 10.8129 13.75 10.7729 13.76 10.7429C13.76 10.7129 13.76 10.6829 13.75 10.6429C13.75 10.6129 13.74 10.5829 13.73 10.5529C13.72 10.5229 13.71 10.4929 13.69 10.4629C13.66 10.4029 13.61 10.3529 13.56 10.3129C13.51 10.2729 13.45 10.2429 13.39 10.2329C13.32 10.2129 13.26 10.2129 13.19 10.2129C13.13 10.2229 13.07 10.2429 13.01 10.2829L9.34 12.4029L9.34 12.3929C9.31 12.4129 9.29 12.4329 9.26 12.4529L9.19 12.5229C9.17 12.5529 9.16 12.5829 9.14 12.6129L9.11 12.7029C9.1 12.7329 9.09 12.7629 9.09 12.8029L9.09 12.8929C9.1 12.9329 9.11 12.9629 9.12 12.9929C9.13 13.0229 9.14 13.0529 9.16 13.0829C9.17 13.1129 9.19 13.1329 9.21 13.1629C9.24 13.1829 9.26 13.2029 9.29 13.2229C9.31 13.2429 9.34 13.2629 9.37 13.2829L9.46 13.3129C9.49 13.3229 9.52 13.3229 9.56 13.3329Z " /></g></g></svg>