<svg xmlns="http://www.w3.org/2000/svg" xmlns:xlink="http://www.w3.org/1999/xlink" width="18" height="18" viewBox="0 0 18 18" fill="none"><defs><path id="path_0"
        transform="translate(0 0) rotate(0 9 9)"
        d="M0,18L18,18L18,0L0,0L0,18Z" /></defs><g opacity="1" transform="translate(0 0)  rotate(0 9 9)"><mask id="mask-0" fill="white"><use xlink:href="#path_0"></use></mask><g mask="url(#mask-0)"></g><g mask="url(#mask-0)"><path id="并集" fill-rule="evenodd" style="fill:#75777D" transform="translate(1.083749771118164 1.0580368041992188)  rotate(0 7.916250228881836 7.941963195800781)" opacity="1" d="M7.79 1.68C7.84 1.64 7.87 1.58 7.87 1.52C7.87 1.46 7.84 1.4 7.79 1.36L6.07 0.04C6.01 0 5.93 -0.01 5.86 0.02C5.8 0.05 5.75 0.12 5.75 0.19L5.75 1.09C5.35 1.18 4.98 1.3 4.63 1.45C3.72 1.82 2.91 2.37 2.2 3.08C1.5 3.76 0.97 4.56 0.59 5.46C0.2 6.38 0 7.36 0 8.38C0 8.41 0 8.45 0.01 8.48L0.04 8.57C0.05 8.6 0.07 8.63 0.09 8.66C0.1 8.68 0.12 8.71 0.15 8.73C0.17 8.75 0.2 8.78 0.22 8.79C0.25 8.81 0.28 8.83 0.31 8.84L0.4 8.87C0.43 8.87 0.47 8.88 0.5 8.88C0.53 8.88 0.57 8.87 0.6 8.87L0.69 8.84C0.72 8.83 0.75 8.81 0.78 8.79C0.8 8.78 0.83 8.75 0.85 8.73C0.88 8.71 0.9 8.68 0.91 8.66C0.93 8.63 0.95 8.6 0.96 8.57L0.99 8.48C1 8.45 1 8.41 1 8.38C1 7.49 1.17 6.65 1.51 5.84C1.84 5.07 2.3 4.38 2.9 3.78C3.52 3.17 4.22 2.7 5.01 2.37C5.25 2.27 5.49 2.19 5.75 2.12L5.75 2.85C5.75 2.92 5.8 2.99 5.86 3.02C5.93 3.05 6.01 3.04 6.07 3L7.79 1.68Z M13.83 11.3345C13.85 11.3945 13.91 11.4345 13.97 11.4445C14.03 11.4545 14.09 11.4345 14.14 11.3945L15.77 9.96449C15.82 9.91449 15.84 9.83449 15.83 9.76449C15.81 9.69449 15.75 9.63449 15.68 9.62449L14.92 9.47449C14.97 9.09449 15 8.73449 15 8.38449C15 7.38449 14.81 6.42449 14.43 5.51449Q13.845 4.10449 12.81 3.08449C12.11 2.37449 11.29 1.82449 10.37 1.45449C10.31 1.42449 10.24 1.41449 10.18 1.41449C10.11 1.41449 10.05 1.42449 9.99 1.45449C9.93 1.47449 9.87 1.51449 9.83 1.56449C9.78 1.60449 9.74 1.66449 9.72 1.72449C9.69 1.78449 9.68 1.84449 9.68 1.91449C9.68 1.98449 9.69 2.04449 9.72 2.10449C9.74 2.16449 9.78 2.22449 9.83 2.26449C9.87 2.31449 9.93 2.35449 9.99 2.37449Q11.19 2.86949 12.09 3.78449C12.7 4.37449 13.17 5.08449 13.51 5.89449C13.84 6.68449 14 7.51449 14 8.38449C14 8.67449 13.98 8.96449 13.94 9.27449L13.07 9.10449C13 9.09449 12.92 9.12449 12.88 9.18449C12.84 9.24449 12.83 9.32449 12.86 9.39449L13.83 11.3345Z M10.3759 10.7444C10.6859 10.5644 10.8759 10.2344 10.8759 9.87445L10.8759 7.03445C10.8759 6.67445 10.6859 6.34445 10.3759 6.16445L7.91588 4.74445C7.60588 4.56445 7.22588 4.56445 6.91588 4.74445L4.45588 6.16445C4.14588 6.34445 3.95588 6.67445 3.95588 7.03445L3.95588 9.87445C3.95588 10.2344 4.14588 10.5644 4.45588 10.7444L6.91588 12.1644C7.22588 12.3444 7.60588 12.3444 7.91588 12.1644L10.3759 10.7444Z M9.87588 9.87445L9.87588 7.02445L7.41588 5.60445L4.95588 7.02445L4.95588 9.87445L7.41588 11.2944L9.87588 9.87445Z M0.279578 12.9739C0.279578 13.0439 0.319578 13.1139 0.389578 13.1439C0.449578 13.1739 0.529578 13.1739 0.589578 13.1339L1.26958 12.6539L1.26958 12.6639L1.68958 12.3939L1.27958 12.6639C1.56958 13.0739 1.87958 13.4439 2.20958 13.7539C2.89958 14.4339 3.70958 14.9539 4.63958 15.3339C5.55958 15.7039 6.51958 15.8839 7.50958 15.8839C8.50958 15.8839 9.45958 15.7039 10.3696 15.3339C11.3096 14.9539 12.1196 14.4339 12.7996 13.7539C12.8296 13.7339 12.8496 13.7139 12.8696 13.6839C12.8796 13.6539 12.8996 13.6339 12.9096 13.6039C12.9296 13.5739 12.9296 13.5439 12.9396 13.5139C12.9496 13.4839 12.9496 13.4439 12.9496 13.4139C12.9496 13.3839 12.9496 13.3539 12.9396 13.3239C12.9296 13.2939 12.9296 13.2639 12.9096 13.2339C12.8996 13.2039 12.8796 13.1739 12.8696 13.1439C12.8496 13.1239 12.8296 13.0939 12.7996 13.0739C12.7796 13.0439 12.7596 13.0239 12.7296 13.0139C12.6996 13.0039 12.6696 12.9839 12.6396 12.9739L12.5496 12.9439C12.5196 12.9339 12.4796 12.9339 12.4496 12.9339C12.4196 12.9339 12.3896 12.9339 12.3496 12.9439L12.2596 12.9739C12.2296 12.9839 12.1996 13.0039 12.1696 13.0139C12.1496 13.0239 12.1196 13.0439 12.0996 13.0739L12.4696 13.4339L12.0896 13.0739C11.4996 13.6539 10.7996 14.1139 9.98958 14.4439C9.19958 14.7639 8.37958 14.9139 7.50958 14.9139C6.64958 14.9139 5.81958 14.7639 5.01958 14.4439C4.21958 14.1139 3.50958 13.6539 2.90958 13.0739Q2.48958 12.6539 2.09958 12.1139C2.08958 12.1039 2.07958 12.0839 2.06958 12.0739L2.72958 11.6039C2.77958 11.5639 2.80958 11.4839 2.79958 11.4239C2.77958 11.3539 2.72958 11.2939 2.65958 11.2739L0.579578 10.6939C0.509578 10.6739 0.449578 10.6839 0.399578 10.7239C0.349578 10.7539 0.319578 10.8139 0.319578 10.8739L0.279578 12.9739Z " /></g></g></svg>