<svg xmlns="http://www.w3.org/2000/svg" xmlns:xlink="http://www.w3.org/1999/xlink" width="18" height="18" viewBox="0 0 18 18" fill="none"><defs><path id="path_0"
        transform="translate(0 0) rotate(0 9 9)"
        d="M0,18L18,18L18,0L0,0L0,18Z" /></defs><g opacity="1" transform="translate(0 0)  rotate(0 9 9)"><mask id="mask-0" fill="white"><use xlink:href="#path_0"></use></mask><g mask="url(#mask-0)"></g><g mask="url(#mask-0)"><path id="并集" fill-rule="evenodd" style="fill:#75777D" transform="translate(1.2100000000000364 0.3100000000000023)  rotate(0 7.789999999999999 8.690000000000001)" opacity="1" d="M14.58 3.61C15.2 3.97 15.58 4.63 15.58 5.34L15.58 12.04C15.58 12.75 15.2 13.41 14.58 13.77L8.79 17.11C8.17 17.47 7.41 17.47 6.79 17.11L1 13.77C0.38 13.41 0 12.75 0 12.04L0 5.34C0 4.63 0.38 3.97 1 3.61L6.79 0.27C7.41 -0.09 8.17 -0.09 8.79 0.27L14.58 3.61Z M7.79 1C7.97 1 8.13 1.05 8.29 1.14L14.08 4.47C14.23 4.57 14.36 4.69 14.45 4.84C14.54 5 14.58 5.16 14.58 5.34L14.58 12.04C14.58 12.22 14.54 12.38 14.45 12.54C14.36 12.69 14.23 12.81 14.08 12.9L8.29 16.25C8.13 16.34 7.97 16.38 7.79 16.38C7.61 16.38 7.45 16.33 7.29 16.24L1.5 12.91C1.35 12.81 1.22 12.69 1.13 12.54C1.04 12.38 1 12.22 1 12.04L1 5.34C1 5.16 1.04 5 1.13 4.84C1.22 4.69 1.35 4.57 1.5 4.48L7.29 1.14L7.29 1.13C7.45 1.04 7.61 1 7.79 1Z M5.79817 7.70837L3.67817 7.70837C3.50817 7.70837 3.35817 7.60837 3.29817 7.44837C3.23817 7.29838 3.27817 7.11837 3.40817 7.00838L3.74817 6.70837L7.53817 3.43837C7.68817 3.30837 7.90817 3.30837 8.05817 3.43837L11.8382 6.70837L11.8482 6.70837L12.1882 7.00838C12.3182 7.11837 12.3582 7.29838 12.2982 7.44837C12.2382 7.60837 12.0882 7.70837 11.9182 7.70837L9.79817 7.70837L9.79817 11.2084C9.79817 11.7584 9.34817 12.2084 8.79817 12.2084L6.79817 12.2084C6.24817 12.2084 5.79817 11.7584 5.79817 11.2084L5.79817 7.70837Z M6.79817 11.2084L6.79817 6.70837L5.27817 6.70837L7.79817 4.52837L10.3082 6.70837L8.79817 6.70837L8.79817 11.2084L6.79817 11.2084Z M5.82817 13.7384C5.79817 13.6784 5.78817 13.6184 5.78817 13.5484C5.78817 13.4784 5.79817 13.4184 5.82817 13.3584C5.84817 13.2984 5.88817 13.2384 5.93817 13.1984C5.97817 13.1484 6.03817 13.1084 6.09817 13.0884C6.15817 13.0584 6.21817 13.0484 6.28817 13.0484L9.28817 13.0484C9.35817 13.0484 9.41817 13.0584 9.47817 13.0884C9.53817 13.1084 9.59817 13.1484 9.63817 13.1984C9.68817 13.2384 9.72817 13.2984 9.74817 13.3584C9.77817 13.4184 9.78817 13.4784 9.78817 13.5484C9.78817 13.6184 9.77817 13.6784 9.74817 13.7384C9.72817 13.7984 9.68817 13.8584 9.63817 13.8984C9.59817 13.9484 9.53817 13.9884 9.47817 14.0084C9.41817 14.0384 9.35817 14.0484 9.28817 14.0484L6.28817 14.0484C6.21817 14.0484 6.15817 14.0384 6.09817 14.0084C6.03817 13.9884 5.97817 13.9484 5.93817 13.8984C5.88817 13.8584 5.84817 13.7984 5.82817 13.7384Z " /></g></g></svg>