<svg xmlns="http://www.w3.org/2000/svg" xmlns:xlink="http://www.w3.org/1999/xlink" width="18" height="18" viewBox="0 0 18 18" fill="none"><defs><path id="path_0"
        transform="translate(0 0) rotate(0 9 9)"
        d="M0,18L18,18L18,0L0,0L0,18Z" /></defs><g opacity="1" transform="translate(0 0)  rotate(0 9 9)"><mask id="mask-0" fill="white"><use xlink:href="#path_0"></use></mask><g mask="url(#mask-0)"></g><g mask="url(#mask-0)"><path id="模型优化3" fill-rule="evenodd" style="fill:#2E4FDE" transform="translate(1.2100000000000364 0.15499999999997272)  rotate(0 7.789999999999999 8.844999999999999)" opacity="1" d="M8.29 0.14C7.98 -0.04 7.6 -0.04 7.29 0.14L0.5 4.06C0.19 4.24 0 4.56 0 4.93L0 12.77C0 13.13 0.19 13.46 0.5 13.64L7.29 17.56C7.6 17.74 7.98 17.74 8.29 17.56L15.08 13.64C15.39 13.46 15.58 13.13 15.58 12.77L15.58 4.93C15.58 4.56 15.39 4.24 15.08 4.06L8.29 0.14ZM8.79 12.28L6.79 12.28C6.24 12.28 5.79 11.83 5.79 11.28L5.79 7.78L3.67 7.78C3.5 7.78 3.35 7.68 3.29 7.52C3.23 7.37 3.27 7.19 3.4 7.08L7.53 3.51C7.68 3.38 7.9 3.38 8.05 3.51L12.18 7.08C12.31 7.19 12.35 7.37 12.29 7.52C12.23 7.68 12.08 7.78 11.91 7.78L9.79 7.78L9.79 11.28C9.79 11.83 9.34 12.28 8.79 12.28ZM9.75 13.97C9.73 14.03 9.69 14.09 9.64 14.13C9.6 14.18 9.54 14.22 9.48 14.24C9.42 14.27 9.36 14.28 9.29 14.28L6.29 14.28C6.22 14.28 6.16 14.27 6.1 14.24C6.04 14.22 5.98 14.18 5.94 14.13C5.89 14.09 5.85 14.03 5.83 13.97C5.8 13.91 5.79 13.85 5.79 13.78C5.79 13.71 5.8 13.65 5.83 13.59C5.85 13.53 5.89 13.47 5.94 13.43C5.98 13.38 6.04 13.34 6.1 13.32C6.16 13.29 6.22 13.28 6.29 13.28L9.29 13.28C9.36 13.28 9.42 13.29 9.48 13.32C9.54 13.34 9.6 13.38 9.64 13.43C9.69 13.47 9.73 13.53 9.75 13.59C9.78 13.65 9.79 13.71 9.79 13.78C9.79 13.85 9.78 13.91 9.75 13.97Z" /></g></g></svg>