<svg xmlns="http://www.w3.org/2000/svg" xmlns:xlink="http://www.w3.org/1999/xlink" width="18" height="18" viewBox="0 0 18 18" fill="none"><defs><path id="path_0"
        transform="translate(0 0) rotate(0 9 9)"
        d="M0,18L18,18L18,0L0,0L0,18Z" /></defs><g opacity="1" transform="translate(0 0)  rotate(0 9 9)"><mask id="mask-0" fill="white"><use xlink:href="#path_0"></use></mask><g mask="url(#mask-0)"></g><g mask="url(#mask-0)"><path id="并集" fill-rule="evenodd" style="fill:#2E4FDE" transform="translate(0.8050003051757812 0.6549997329711914)  rotate(0 8.194999694824219 8.345000267028809)" opacity="1" d="M6.92825 15.4748L1.25 12.2C1.08 12.11 1 11.96 1 11.76L1 5.25898L2.6168 6.19153C2.60441 6.2694 2.59808 6.34879 2.59808 6.43L2.59808 10.27C2.59808 10.53 2.66808 10.78 2.79808 11.02C2.92808 11.25 3.11808 11.43 3.34808 11.57L6.92825 13.6358L6.92825 15.4748Z M7.92825 15.4767L8.91 14.91C8.97 14.88 9.03 14.86 9.09 14.85C9.16 14.84 9.23 14.84 9.29 14.86C9.35 14.88 9.41 14.91 9.46 14.95C9.52 14.99 9.56 15.04 9.59 15.1C9.63 15.15 9.65 15.21 9.66 15.28C9.66 15.35 9.66 15.41 9.64 15.47C9.63 15.54 9.6 15.6 9.56 15.65C9.52 15.7 9.47 15.74 9.41 15.78L8.18 16.49C7.95 16.62 7.7 16.69 7.43 16.69C7.16 16.69 6.91 16.62 6.68 16.49L0.75 13.07C0.52 12.93 0.33 12.75 0.2 12.52C0.07 12.28 0 12.03 0 11.76L0 4.92C0 4.66 0.07 4.41 0.2 4.17C0.33 3.94 0.52 3.76 0.75 3.62L6.68 0.2C6.91 0.07 7.16 0 7.43 0C7.7 0 7.95 0.07 8.18 0.2L14.11 3.62C14.34 3.76 14.53 3.94 14.66 4.17C14.79 4.41 14.86 4.66 14.86 4.92L14.86 6.34C14.86 6.38 14.85 6.41 14.85 6.44C14.84 6.47 14.83 6.51 14.82 6.54C14.81 6.57 14.79 6.6 14.77 6.62C14.75 6.65 14.73 6.68 14.71 6.7C14.69 6.72 14.66 6.74 14.63 6.76C14.61 6.78 14.58 6.79 14.55 6.81C14.52 6.82 14.49 6.83 14.45 6.84L14.26 6.84L14.17 6.81C14.13 6.79 14.11 6.78 14.08 6.76C14.05 6.74 14.03 6.72 14 6.7C13.98 6.68 13.96 6.65 13.94 6.62C13.92 6.6 13.91 6.57 13.89 6.54C13.88 6.51 13.87 6.47 13.87 6.44C13.86 6.41 13.86 6.38 13.86 6.34L13.86 5.21625L7.92825 8.635L7.92825 15.4767Z M13.3609 4.34635L7.68 1.07C7.51 0.97 7.35 0.97 7.18 1.07L1.46171 4.3679L3.09065 5.30954C3.16908 5.23942 3.25533 5.17646 3.34808 5.12L6.67808 3.2C6.90808 3.07 7.15808 3 7.42808 3C7.69808 3 7.94808 3.07 8.17808 3.2L11.763 5.26861L13.3609 4.34635Z M13.43 7.63C13.12 7.45 12.74 7.45 12.43 7.63L9.97 9.05C9.66 9.23 9.47 9.56 9.47 9.92L9.47 12.76C9.47 13.12 9.66 13.45 9.97 13.63L12.43 15.05C12.74 15.23 13.12 15.23 13.43 15.05L15.89 13.63C16.2 13.45 16.39 13.12 16.39 12.76L16.39 9.92C16.39 9.56 16.2 9.23 15.89 9.05L13.43 7.63Z " /></g></g></svg>