<svg xmlns="http://www.w3.org/2000/svg" xmlns:xlink="http://www.w3.org/1999/xlink" width="18" height="18" viewBox="0 0 18 18" fill="none"><defs><path id="path_0"
        transform="translate(0 0) rotate(0 9 9)"
        d="M0,18L18,18L18,0L0,0L0,18Z" /></defs><g opacity="1" transform="translate(0 0)  rotate(0 9 9)"><mask id="mask-0" fill="white"><use xlink:href="#path_0"></use></mask><g mask="url(#mask-0)"></g><g mask="url(#mask-0)"><path id="并集" fill-rule="evenodd" style="fill:#75777D" transform="translate(1 0.9524993896484375)  rotate(0 8 8.047500610351562)" opacity="1" d="M10.95 2.65L12.2431 3.39232C12.0882 3.67597 12 4.00069 12 4.345C12 5.42157 12.8621 6.30658 13.93 6.34378L13.93 10.97C13.93 11.16 13.85 11.31 13.68 11.4L10.95 12.98L9.92864 13.5663C9.69532 12.7207 8.91718 12.095 8 12.095C7.07026 12.095 6.28339 12.738 6.06209 13.6012L4.98 12.98L2.25 11.4C2.08 11.31 2 11.16 2 10.97L2 6.345C3.1 6.345 4 5.445 4 4.345C4 3.98967 3.90609 3.6552 3.74185 3.3652L4.98 2.65L7.72 1.07C7.89 0.97 8.05 0.97 8.22 1.07L10.95 2.65Z M6.11325 14.7569L6.1 14.78L4.48 13.85L1.75 12.27C1.52 12.13 1.33 11.95 1.2 11.72C1.07 11.48 1 11.23 1 10.97L1 6.07526C0.403336 5.72814 0 5.08138 0 4.345C0 3.245 0.9 2.345 2 2.345C2.37075 2.345 2.71878 2.44724 3.01729 2.62492L4.48 1.78L7.22 0.2C7.45 0.07 7.7 0 7.97 0C8.24 0 8.49 0.07 8.72 0.2L11.45 1.78L12.9531 2.64289C13.2581 2.45415 13.6169 2.345 14 2.345C15.1 2.345 16 3.245 16 4.345C16 5.10983 15.5649 5.77797 14.93 6.11413L14.93 10.97C14.93 11.23 14.86 11.48 14.73 11.72C14.6 11.95 14.41 12.13 14.18 12.27L11.45 13.85L9.89092 14.745C9.61956 15.5285 8.87273 16.095 8 16.095C7.1317 16.095 6.38802 15.5342 6.11325 14.7569Z M1 4.345C1 4.075 1.1 3.835 1.29 3.635C1.49 3.445 1.73 3.345 2 3.345C2.27 3.345 2.51 3.445 2.71 3.635C2.9 3.835 3 4.075 3 4.345C3 4.615 2.9 4.855 2.71 5.055C2.51 5.245 2.27 5.345 2 5.345C1.73 5.345 1.49 5.245 1.29 5.055C1.1 4.855 1 4.615 1 4.345Z M14 3.345C14.27 3.345 14.51 3.445 14.71 3.635C14.9 3.835 15 4.075 15 4.345C15 4.615 14.9 4.855 14.71 5.055C14.51 5.245 14.27 5.345 14 5.345C13.73 5.345 13.49 5.245 13.29 5.055C13.1 4.855 13 4.615 13 4.345C13 4.075 13.1 3.835 13.29 3.635C13.49 3.445 13.73 3.345 14 3.345Z M8.5 3.89L10.96 5.31C11.27 5.49 11.46 5.82 11.46 6.18L11.46 9.02C11.46 9.38 11.27 9.71 10.96 9.89L8.5 11.31C8.19 11.49 7.81 11.49 7.5 11.31L5.04 9.89C4.73 9.71 4.54 9.38 4.54 9.02L4.54 6.18C4.54 5.82 4.73 5.49 5.04 5.31L7.5 3.89C7.81 3.71 8.19 3.71 8.5 3.89Z M10.46 6.17L10.46 9.02L8 10.44L5.54 9.02L5.54 6.17L8 4.75L10.46 6.17Z M8 13.095C7.73 13.095 7.49 13.195 7.29 13.385C7.1 13.585 7 13.825 7 14.095C7 14.365 7.1 14.605 7.29 14.805C7.49 14.995 7.73 15.095 8 15.095C8.27 15.095 8.51 14.995 8.71 14.805C8.9 14.605 9 14.365 9 14.095C9 13.825 8.9 13.585 8.71 13.385C8.51 13.195 8.27 13.095 8 13.095Z " /></g></g></svg>