<svg xmlns="http://www.w3.org/2000/svg" xmlns:xlink="http://www.w3.org/1999/xlink" width="18" height="18" viewBox="0 0 18 18" fill="none"><defs><path id="path_0"
        transform="translate(0 0) rotate(0 9 9)"
        d="M0,18L18,18L18,0L0,0L0,18Z" /></defs><g opacity="1" transform="translate(0 0)  rotate(0 9 9)"><mask id="mask-0" fill="white"><use xlink:href="#path_0"></use></mask><g mask="url(#mask-0)"></g><g mask="url(#mask-0)"><path id="并集" fill-rule="evenodd" style="fill:#2E4FDE" transform="translate(1 0.9525003433227539)  rotate(0 8 8.047499656677246)" opacity="1" d="M7.255 0.2C7.485 0.07 7.735 0 8.005 0C8.275 0 8.525 0.07 8.755 0.2L11.485 1.78L12.97 2.63252C13.2714 2.45016 13.624 2.345 14 2.345C15.1 2.345 16 3.245 16 4.345C16 5.09569 15.5808 5.75324 14.965 6.09515L14.965 10.97C14.965 11.23 14.895 11.48 14.765 11.72C14.635 11.95 14.445 12.13 14.215 12.27L11.485 13.85L9.88199 14.7702C9.60348 15.5406 8.86334 16.095 8 16.095C7.13666 16.095 6.39652 15.5406 6.11801 14.7702L4.515 13.85L1.785 12.27C1.555 12.13 1.365 11.95 1.235 11.72C1.105 11.48 1.035 11.23 1.035 10.97L1.035 6.09515C0.419163 5.75324 0 5.09569 0 4.345C0 3.245 0.9 2.345 2 2.345C2.37787 2.345 2.73214 2.4512 3.03443 2.63524L4.515 1.78L7.255 0.2Z M3.75041 3.38047C3.90935 3.66692 4 3.99589 4 4.345C4 5.43331 3.11903 6.32585 2.035 6.3447L2.035 10.97C2.035 11.16 2.115 11.31 2.285 11.4L5.015 12.98L6.06665 13.5837C6.29404 12.7293 7.07654 12.095 8 12.095C8.92346 12.095 9.70596 12.7293 9.93335 13.5837L10.985 12.98L13.715 11.4C13.885 11.31 13.965 11.16 13.965 10.97L13.965 6.3447C12.881 6.32585 12 5.43331 12 4.345C12 3.9945 12.0914 3.6643 12.2515 3.37706L10.985 2.65L8.255 1.07C8.085 0.97 7.925 0.97 7.755 1.07L5.015 2.65L3.75041 3.38047Z M7.5 3.885C7.81 3.705 8.19 3.705 8.5 3.885L10.96 5.305C11.27 5.485 11.46 5.815 11.46 6.175L11.46 9.015C11.46 9.375 11.27 9.705 10.96 9.885L8.5 11.305C8.19 11.485 7.81 11.485 7.5 11.305L5.04 9.885C4.73 9.705 4.54 9.375 4.54 9.015L4.54 6.175C4.54 5.815 4.73 5.485 5.04 5.305L7.5 3.885Z " /></g></g></svg>