<svg xmlns="http://www.w3.org/2000/svg" xmlns:xlink="http://www.w3.org/1999/xlink" width="18" height="18" viewBox="0 0 18 18" fill="none"><defs><path id="path_0"
        transform="translate(0 0) rotate(0 9 9)"
        d="M0,18L18,18L18,0L0,0L0,18Z" /></defs><g opacity="1" transform="translate(0 0)  rotate(0 9 9)"><mask id="mask-0" fill="white"><use xlink:href="#path_0"></use></mask><g mask="url(#mask-0)"></g><g mask="url(#mask-0)"><path id="并集" fill-rule="evenodd" style="fill:#75777D" transform="translate(1 1)  rotate(0 8 8)" opacity="1" d="M0 12C0 13.1 0.9 14 2 14L14 14C15.1 14 16 13.1 16 12L16 2C16 0.9 15.1 0 14 0L2 0C0.9 0 0 0.9 0 2L0 12ZM1.29 1.29C1.49 1.1 1.73 1 2 1L14 1C14.27 1 14.51 1.1 14.71 1.29C14.9 1.49 15 1.73 15 2L15 12C15 12.27 14.9 12.51 14.71 12.71C14.51 12.9 14.27 13 14 13L2 13C1.73 13 1.49 12.9 1.29 12.71C1.1 12.51 1 12.27 1 12L1 2C1 1.73 1.1 1.49 1.29 1.29ZM13.52 5.66C12.09 4.63 10.14 4 8 4C5.85 4 3.91 4.63 2.47 5.66C3.38 3.51 5.52 2 8 2C10.48 2 12.61 3.51 13.52 5.66ZM13.5 7C13.5 7.83 11.04 8.5 8 8.5C4.96 8.5 2.5 7.83 2.5 7C2.5 6.17 4.96 5.5 8 5.5C11.04 5.5 13.5 6.17 13.5 7ZM8 10C5.85 10 3.91 9.37 2.47 8.34C3.38 10.49 5.52 12 8 12C10.48 12 12.61 10.49 13.52 8.34C12.09 9.37 10.14 10 8 10ZM13.28 15.92C13.25 15.93 13.22 15.95 13.19 15.96C13.16 15.98 13.13 15.98 13.1 15.99C13.07 16 13.03 16 13 16L3 16C2.93 16 2.87 15.99 2.81 15.96C2.75 15.94 2.69 15.9 2.65 15.85C2.6 15.81 2.56 15.75 2.54 15.69C2.51 15.63 2.5 15.57 2.5 15.5C2.5 15.43 2.51 15.37 2.54 15.31C2.56 15.25 2.6 15.19 2.65 15.15C2.69 15.1 2.75 15.06 2.81 15.04C2.87 15.01 2.93 15 3 15L13 15C13.07 15 13.13 15.01 13.19 15.04C13.25 15.06 13.31 15.1 13.35 15.15C13.4 15.19 13.44 15.25 13.46 15.31C13.49 15.37 13.5 15.43 13.5 15.5C13.5 15.53 13.5 15.57 13.49 15.6L13.46 15.69C13.45 15.72 13.43 15.75 13.42 15.78C13.4 15.81 13.38 15.83 13.35 15.85C13.33 15.88 13.31 15.9 13.28 15.92Z" /></g></g></svg>