<svg xmlns="http://www.w3.org/2000/svg" xmlns:xlink="http://www.w3.org/1999/xlink" width="18" height="18" viewBox="0 0 18 18" fill="none"><defs><path id="path_0"
        transform="translate(0 0) rotate(0 9 9)"
        d="M0,18L18,18L18,0L0,0L0,18Z" /></defs><g opacity="1" transform="translate(0 0)  rotate(0 9 9)"><mask id="mask-0" fill="white"><use xlink:href="#path_0"></use></mask><g mask="url(#mask-0)"></g><g mask="url(#mask-0)"><path id="并集" fill-rule="evenodd" style="fill:#2E4FDE" transform="translate(1 1)  rotate(0 8 8)" opacity="1" d="M0 2C0 0.9 0.9 0 2 0L14 0C15.1 0 16 0.9 16 2L16 12C16 13.1 15.1 14 14 14L2 14C0.9 14 0 13.1 0 12L0 2ZM8 4C5.85 4 3.91 4.63 2.47 5.66C3.38 3.51 5.52 2 8 2C10.48 2 12.61 3.51 13.52 5.66C12.09 4.63 10.14 4 8 4ZM8 8.5C11.04 8.5 13.5 7.83 13.5 7C13.5 6.17 11.04 5.5 8 5.5C4.96 5.5 2.5 6.17 2.5 7C2.5 7.83 4.96 8.5 8 8.5ZM8 12C5.52 12 3.38 10.49 2.47 8.34C3.91 9.37 5.85 10 8 10C10.14 10 12.09 9.37 13.52 8.34C12.61 10.49 10.48 12 8 12ZM2.54 15.31C2.51 15.37 2.5 15.43 2.5 15.5C2.5 15.57 2.51 15.63 2.54 15.69C2.56 15.75 2.6 15.81 2.65 15.85C2.69 15.9 2.75 15.94 2.81 15.96C2.87 15.99 2.93 16 3 16L13 16C13.03 16 13.07 16 13.1 15.99C13.13 15.98 13.16 15.98 13.19 15.96C13.22 15.95 13.25 15.93 13.28 15.92C13.31 15.9 13.33 15.88 13.35 15.85C13.38 15.83 13.4 15.81 13.42 15.78C13.43 15.75 13.45 15.72 13.46 15.69L13.49 15.6C13.5 15.57 13.5 15.53 13.5 15.5C13.5 15.43 13.49 15.37 13.46 15.31C13.44 15.25 13.4 15.19 13.35 15.15C13.31 15.1 13.25 15.06 13.19 15.04C13.13 15.01 13.07 15 13 15L3 15C2.93 15 2.87 15.01 2.81 15.04C2.75 15.06 2.69 15.1 2.65 15.15C2.6 15.19 2.56 15.25 2.54 15.31Z" /></g></g></svg>