<svg xmlns="http://www.w3.org/2000/svg" xmlns:xlink="http://www.w3.org/1999/xlink" width="18" height="18" viewBox="0 0 18 18" fill="none"><defs><path id="path_0"
        transform="translate(0 0) rotate(0 9 9)"
        d="M0,18L18,18L18,0L0,0L0,18Z" /></defs><g opacity="1" transform="translate(0 0)  rotate(0 9 9)"><mask id="mask-0" fill="white"><use xlink:href="#path_0"></use></mask><g mask="url(#mask-0)"></g><g mask="url(#mask-0)"><path id="并集" fill-rule="evenodd" style="fill:#75777D" transform="translate(1 1)  rotate(0 8 8)" opacity="1" d="M6.4 1.1C5.7 0.4 4.74 0 3.75 0C2.76 0 1.8 0.4 1.1 1.1C0.4 1.8 0 2.76 0 3.75C0 4.74 0.4 5.7 1.1 6.4C1.8 7.1 2.76 7.5 3.75 7.5L7.5 7.5L7.5 3.75C7.5 2.76 7.1 1.8 6.4 1.1Z M8.5 3.75L8.5 7.5L12.25 7.5C13.24 7.5 14.2 7.1 14.9 6.4C15.6 5.7 16 4.74 16 3.75C16 2.76 15.6 1.8 14.9 1.1C14.2 0.4 13.24 0 12.25 0C11.26 0 10.3 0.4 9.6 1.1C8.9 1.8 8.5 2.76 8.5 3.75Z M2.7 6.29Q3.21 6.5 3.75 6.5L6.5 6.5L6.5 3.75Q6.5 3.21 6.29 2.7C6.15 2.36 5.95 2.06 5.69 1.81C5.44 1.55 5.14 1.35 4.8 1.21Q4.29 1 3.75 1Q3.21 1 2.7 1.21C2.36 1.35 2.06 1.55 1.81 1.81C1.55 2.06 1.35 2.36 1.21 2.7Q1 3.21 1 3.75Q1 4.29 1.21 4.8C1.35 5.14 1.55 5.44 1.81 5.69C2.06 5.95 2.36 6.15 2.7 6.29Z M12.25 6.5C12.61 6.5 12.96 6.43 13.3 6.29C13.64 6.15 13.94 5.95 14.19 5.69C14.45 5.44 14.65 5.14 14.79 4.8Q15 4.29 15 3.75Q15 3.21 14.79 2.7C14.65 2.36 14.45 2.06 14.19 1.81C13.94 1.55 13.64 1.35 13.3 1.21C12.96 1.07 12.61 1 12.25 1Q11.71 1 11.2 1.21C10.86 1.35 10.56 1.55 10.31 1.81C10.05 2.06 9.85 2.36 9.71 2.7Q9.5 3.21 9.5 3.75L9.5 6.5L12.25 6.5Z M7.5 8.5L3.75 8.5C2.76 8.5 1.8 8.9 1.1 9.6C0.4 10.3 0 11.26 0 12.25C0 13.24 0.4 14.2 1.1 14.9C1.8 15.6 2.76 16 3.75 16C4.74 16 5.7 15.6 6.4 14.9C7.1 14.2 7.5 13.24 7.5 12.25L7.5 8.5Z M12.25 16C13.24 16 14.2 15.6 14.9 14.9C15.6 14.2 16 13.24 16 12.25C16 11.26 15.6 10.3 14.9 9.6C14.2 8.9 13.24 8.5 12.25 8.5L8.5 8.5L8.5 12.25C8.5 13.24 8.9 14.2 9.6 14.9C10.3 15.6 11.26 16 12.25 16Z M6.5 9.5L3.75 9.5Q3.21 9.5 2.7 9.71C2.36 9.85 2.06 10.05 1.81 10.31C1.55 10.56 1.35 10.86 1.21 11.2Q1 11.71 1 12.25C1 12.61 1.07 12.96 1.21 13.3C1.35 13.64 1.55 13.94 1.81 14.19C2.06 14.45 2.36 14.65 2.7 14.79Q3.21 15 3.75 15Q4.29 15 4.8 14.79C5.14 14.65 5.44 14.45 5.69 14.19C5.95 13.94 6.15 13.64 6.29 13.3C6.43 12.96 6.5 12.61 6.5 12.25L6.5 9.5Z M11.2 14.79Q11.71 15 12.25 15C12.61 15 12.96 14.93 13.3 14.79C13.64 14.65 13.94 14.45 14.19 14.19C14.45 13.94 14.65 13.64 14.79 13.3C14.93 12.96 15 12.61 15 12.25Q15 11.71 14.79 11.2C14.65 10.86 14.45 10.56 14.19 10.31C13.94 10.05 13.64 9.85 13.3 9.71C12.96 9.57 12.61 9.5 12.25 9.5L9.5 9.5L9.5 12.25C9.5 12.61 9.57 12.96 9.71 13.3C9.85 13.64 10.05 13.94 10.31 14.19C10.56 14.45 10.86 14.65 11.2 14.79Z " /></g></g></svg>