<svg xmlns="http://www.w3.org/2000/svg" xmlns:xlink="http://www.w3.org/1999/xlink" width="18" height="18" viewBox="0 0 18 18" fill="none"><defs><path id="path_0"
        transform="translate(0 0) rotate(0 9 9)"
        d="M0,18L18,18L18,0L0,0L0,18Z" /></defs><g opacity="1" transform="translate(0 0)  rotate(0 9 9)"><g opacity="1" transform="translate(0 0)  rotate(0 9 9)"><mask id="mask-0" fill="white"><use xlink:href="#path_0"></use></mask><g mask="url(#mask-0)"></g><g mask="url(#mask-0)"><path id="并集" fill-rule="evenodd" style="fill:#2E4FDE" transform="translate(0.40000000000009095 0.45987312703198313)  rotate(0 8.6 8.54012687296807)" opacity="1" d="M4.35 2.91C4.35 2.52 4.56 2.16 4.9 1.96L8.06 0.15C8.39 -0.05 8.81 -0.05 9.14 0.15L12.3 1.96C12.64 2.16 12.85 2.52 12.85 2.91L12.85 6.55C12.85 6.94 12.64 7.3 12.3 7.5L9.14 9.31C8.81 9.51 8.39 9.51 8.06 9.31L4.9 7.5C4.56 7.3 4.35 6.94 4.35 6.55L4.35 2.91ZM11.32 3.28C11.4 3.33 11.43 3.4 11.43 3.48L11.43 6.23C11.43 6.31 11.39 6.38 11.32 6.43L8.93 7.81C8.86 7.85 8.77 7.85 8.71 7.81C8.63 7.77 8.6 7.69 8.6 7.61L8.6 4.86C8.6 4.78 8.64 4.71 8.71 4.66L11.1 3.28C11.17 3.24 11.26 3.24 11.32 3.28ZM4.79 16.93L7.95 15.12C8.28 14.92 8.49 14.56 8.49 14.17L8.49 10.53C8.49 10.14 8.28 9.78 7.95 9.59L4.79 7.77C4.45 7.57 4.04 7.57 3.7 7.77L0.54 9.59C0.21 9.78 0 10.14 0 10.53L0 14.17C0 14.56 0.21 14.92 0.54 15.12L3.7 16.93C4.04 17.13 4.45 17.13 4.79 16.93ZM16.66 9.59L13.5 7.77C13.16 7.57 12.75 7.57 12.41 7.77L9.25 9.59C8.92 9.78 8.71 10.14 8.71 10.53L8.71 14.17C8.71 14.56 8.92 14.92 9.25 15.12L12.41 16.93C12.75 17.13 13.16 17.13 13.5 16.93L16.66 15.12C16.99 14.92 17.2 14.56 17.2 14.17L17.2 10.53C17.2 10.14 16.99 9.78 16.66 9.59ZM6.97 10.9C7.04 10.95 7.08 11.02 7.08 11.1L7.08 13.85C7.08 13.93 7.03 14 6.97 14.05L4.57 15.43C4.51 15.47 4.42 15.47 4.35 15.43C4.28 15.39 4.25 15.31 4.25 15.24L4.25 12.48C4.25 12.4 4.29 12.33 4.35 12.28L6.75 10.9C6.81 10.86 6.9 10.86 6.97 10.9ZM12.95 12.48L12.95 15.24C12.95 15.31 12.99 15.39 13.06 15.43C13.13 15.47 13.22 15.47 13.28 15.43L15.68 14.05C15.74 14 15.78 13.93 15.78 13.85L15.78 11.1C15.78 11.02 15.75 10.95 15.68 10.9C15.61 10.86 15.52 10.86 15.46 10.9L13.06 12.28C13 12.33 12.95 12.4 12.95 12.48Z" /></g></g></g></svg>