<svg xmlns="http://www.w3.org/2000/svg" xmlns:xlink="http://www.w3.org/1999/xlink" width="18" height="18" viewBox="0 0 18 18" fill="none"><defs><path id="path_0"
        transform="translate(0 0) rotate(0 9 9)"
        d="M0,18L18,18L18,0L0,0L0,18Z" /></defs><g opacity="1" transform="translate(0 0)  rotate(0 9 9)"><g opacity="1" transform="translate(0 0)  rotate(0 9 9)"><mask id="mask-0" fill="white"><use xlink:href="#path_0"></use></mask><g mask="url(#mask-0)"></g><g mask="url(#mask-0)"><path id="并集" fill-rule="evenodd" style="fill:#75777D" transform="translate(0.3000000000001819 0.3578167280629714)  rotate(0 8.7 8.642183271937029)" opacity="1" d="M12.9951 6.62C12.9951 7.02 12.7851 7.38 12.4451 7.58L9.25506 9.42C8.90506 9.62 8.49506 9.62 8.14506 9.42L4.95506 7.58C4.61506 7.38 4.40506 7.02 4.40506 6.62L4.40506 2.95C4.40506 2.55 4.61506 2.19 4.95506 1.99L8.14506 0.15C8.49506 -0.05 8.90506 -0.05 9.25506 0.15L12.4451 1.99C12.7851 2.19 12.9951 2.55 12.9951 2.95L12.9951 6.62Z M11.8951 6.63L8.69506 8.47L5.50506 6.63L5.50506 2.94L8.69506 1.1L8.70506 1.1L11.8951 2.94L11.8951 6.63Z M11.45 6.5031L9.03 7.9031C8.96 7.9431 8.88 7.9431 8.81 7.9031C8.73 7.8531 8.7 7.7831 8.7 7.7031L8.7 4.9131C8.7 4.8431 8.74 4.7631 8.81 4.7231L11.23 3.3231C11.3 3.2731 11.39 3.2731 11.45 3.3231C11.53 3.3631 11.56 3.4431 11.56 3.5231L11.56 6.3031C11.56 6.3831 11.52 6.4631 11.45 6.5031Z M8.59 10.6589L8.59 14.3289C8.59 14.7289 8.38 15.0889 8.04 15.2889L4.85 17.1289C4.5 17.3289 4.09 17.3289 3.74 17.1289L0.55 15.2889C0.21 15.0889 0 14.7289 0 14.3289L0 10.6589C0 10.2589 0.21 9.89886 0.55 9.69886L3.74 7.85886C4.09 7.65886 4.5 7.65886 4.85 7.85886L8.04 9.69886C8.38 9.89886 8.59 10.2589 8.59 10.6589Z M13.6601 7.85886L16.8501 9.69886C17.1901 9.89886 17.4001 10.2589 17.4001 10.6589L17.4001 14.3289C17.4001 14.7289 17.1901 15.0889 16.8501 15.2889L13.6601 17.1289C13.3101 17.3289 12.9001 17.3289 12.5501 17.1289L9.36013 15.2889C9.02013 15.0889 8.81013 14.7289 8.81013 14.3289L8.81013 10.6589C8.81013 10.2589 9.02013 9.89886 9.36013 9.69886L12.5501 7.85886C12.9001 7.65886 13.3101 7.65886 13.6601 7.85886Z M1.1 10.6489L4.29 8.80886L4.3 8.80886L7.49 10.6489L7.49 14.3389L4.29 16.1789L1.1 14.3389L1.1 10.6489Z M9.91013 14.3389L9.91013 10.6489L13.1001 8.80886L13.1101 8.80886L16.3001 10.6489L16.3001 14.3389L13.1001 16.1789L9.91013 14.3389Z M4.59494 15.622L7.05494 14.202C7.11494 14.162 7.15494 14.102 7.15494 14.032L7.15494 11.192C7.15494 11.122 7.12494 11.052 7.05494 11.012C6.99494 10.972 6.91494 10.972 6.85494 11.012L4.39494 12.432C4.33494 12.472 4.29494 12.542 4.29494 12.612L4.29494 15.452C4.29494 15.522 4.33494 15.592 4.39494 15.622C4.45494 15.662 4.53494 15.662 4.59494 15.622Z M13.4051 15.622L15.8651 14.202C15.9251 14.162 15.9651 14.102 15.9651 14.032L15.9651 11.192C15.9651 11.122 15.9351 11.052 15.8651 11.012C15.8051 10.972 15.7251 10.972 15.6651 11.012L13.2051 12.432C13.1451 12.472 13.1051 12.542 13.1051 12.612L13.1051 15.452C13.1051 15.522 13.1451 15.592 13.2051 15.622C13.2651 15.662 13.3451 15.662 13.4051 15.622Z " /></g></g></g></svg>