<svg xmlns="http://www.w3.org/2000/svg" xmlns:xlink="http://www.w3.org/1999/xlink" width="18" height="18" viewBox="0 0 18 18" fill="none"><defs><path id="path_0"
        transform="translate(0 0) rotate(0 9 9)"
        d="M0,18L18,18L18,0L0,0L0,18Z" /></defs><g opacity="1" transform="translate(0 0)  rotate(0 9 9)"><mask id="mask-0" fill="white"><use xlink:href="#path_0"></use></mask><g mask="url(#mask-0)"></g><g mask="url(#mask-0)"><path id="并集" fill-rule="evenodd" style="fill:#2E4FDE" transform="translate(1.2413886741906026 1)  rotate(0 7.7586113258094995 8)" opacity="1" d="M14.26 0.5C14.26 0.43 14.25 0.37 14.22 0.31C14.2 0.25 14.16 0.19 14.11 0.15C14.07 0.1 14.01 0.06 13.95 0.04C13.89 0.01 13.83 0 13.76 0L1.76 0C1.69 0 1.63 0.01 1.57 0.04C1.51 0.06 1.45 0.1 1.41 0.15C1.36 0.19 1.32 0.25 1.3 0.31C1.27 0.37 1.26 0.43 1.26 0.5C1.26 0.53 1.26 0.57 1.27 0.6L1.3 0.69C1.31 0.72 1.33 0.75 1.34 0.78C1.36 0.81 1.38 0.83 1.41 0.85C1.43 0.88 1.45 0.9 1.48 0.92C1.51 0.94 1.54 0.95 1.57 0.96Q1.615 0.99 1.66 0.99C1.69 1 1.73 1 1.76 1L3.76 1L3.76 5L11.76 5L11.76 1L13.76 1C13.79 1 13.83 1 13.86 0.99L13.95 0.96C13.98 0.95 14.01 0.93 14.04 0.92C14.07 0.9 14.09 0.88 14.11 0.85C14.14 0.83 14.16 0.81 14.18 0.78C14.19 0.75 14.21 0.72 14.22 0.69L14.25 0.6C14.26 0.57 14.26 0.53 14.26 0.5ZM15.22 15.05C15.58 14.46 15.62 13.73 15.31 13.11L11.76 6L3.76 6L0.21 13.11C-0.1 13.73 -0.06 14.46 0.3 15.05C0.67 15.64 1.31 16 2 16L13.52 16C14.21 16 14.85 15.64 15.22 15.05ZM9.76 9.5C9.76 10.33 9.09 11 8.26 11C7.43 11 6.76 10.33 6.76 9.5C6.76 8.67 7.43 8 8.26 8C9.09 8 9.76 8.67 9.76 9.5ZM5.76 12C5.76 11.45 5.31 11 4.76 11C4.21 11 3.76 11.45 3.76 12C3.76 12.55 4.21 13 4.76 13C5.31 13 5.76 12.55 5.76 12ZM11.76 13C11.76 13.55 11.31 14 10.76 14C10.21 14 9.76 13.55 9.76 13C9.76 12.45 10.21 12 10.76 12C11.31 12 11.76 12.45 11.76 13Z" /></g></g></svg>