<svg xmlns="http://www.w3.org/2000/svg" xmlns:xlink="http://www.w3.org/1999/xlink" width="18" height="18" viewBox="0 0 18 18" fill="none"><defs><path id="path_0"
        transform="translate(0 0) rotate(0 9 9)"
        d="M0,18L18,18L18,0L0,0L0,18Z" /></defs><g opacity="1" transform="translate(0 0)  rotate(0 9 9)"><mask id="mask-0" fill="white"><use xlink:href="#path_0"></use></mask><g mask="url(#mask-0)"></g><g mask="url(#mask-0)"><path id="并集" fill-rule="evenodd" style="fill:#75777D" transform="translate(1.240694522857666 0.9998998641967773)  rotate(0 7.759305477142334 8.000100135803223)" opacity="1" d="M1.57 0.04C1.51 0.06 1.45 0.1 1.41 0.15C1.36 0.19 1.32 0.25 1.3 0.31C1.27 0.37 1.26 0.43 1.26 0.5C1.26 0.53 1.26 0.57 1.27 0.6L1.3 0.69C1.31 0.72 1.33 0.75 1.34 0.78C1.36 0.81 1.38 0.83 1.41 0.85C1.43 0.88 1.45 0.9 1.48 0.92C1.51 0.94 1.54 0.95 1.57 0.96Q1.615 0.99 1.66 0.99C1.69 1 1.73 1 1.76 1L3.76 1L3.76 6L0.21 13.11C-0.1 13.73 -0.06 14.46 0.3 15.05C0.67 15.64 1.31 16 2 16L13.52 16C14.21 16 14.85 15.64 15.22 15.05C15.58 14.46 15.62 13.73 15.31 13.11L11.76 6L11.76 1L13.76 1C13.79 1 13.83 1 13.86 0.99L13.95 0.96C13.98 0.95 14.01 0.93 14.04 0.92C14.07 0.9 14.09 0.88 14.11 0.85C14.14 0.83 14.16 0.81 14.18 0.78C14.19 0.75 14.21 0.72 14.22 0.69L14.25 0.6C14.26 0.57 14.26 0.53 14.26 0.5C14.26 0.43 14.25 0.37 14.22 0.31C14.2 0.25 14.16 0.19 14.11 0.15C14.07 0.1 14.01 0.06 13.95 0.04C13.89 0.01 13.83 0 13.76 0L1.76 0C1.69 0 1.63 0.01 1.57 0.04ZM4.76 1L10.76 1L10.76 6L4.76 6L4.76 1ZM14 14.87C14.15 14.79 14.28 14.67 14.37 14.52C14.46 14.37 14.51 14.22 14.52 14.04C14.52 13.87 14.49 13.71 14.41 13.56L11.14 7L4.38 7L1.1 13.56C1.03 13.71 0.99 13.87 1 14.04C1.01 14.22 1.06 14.38 1.15 14.53C1.24 14.67 1.36 14.79 1.52 14.87C1.67 14.96 1.83 15 2 15L13.52 15C13.69 15 13.85 14.96 14 14.87ZM6.76 9.5C6.76 10.33 7.43 11 8.26 11C9.09 11 9.76 10.33 9.76 9.5C9.76 8.67 9.09 8 8.26 8C7.43 8 6.76 8.67 6.76 9.5ZM5.76 12C5.76 12.55 5.31 13 4.76 13C4.21 13 3.76 12.55 3.76 12C3.76 11.45 4.21 11 4.76 11C5.31 11 5.76 11.45 5.76 12ZM10.76 12C11.31 12 11.76 12.45 11.76 13C11.76 13.55 11.31 14 10.76 14C10.21 14 9.76 13.55 9.76 13C9.76 12.45 10.21 12 10.76 12Z" /></g></g></svg>