<svg xmlns="http://www.w3.org/2000/svg" xmlns:xlink="http://www.w3.org/1999/xlink" width="18" height="18" viewBox="0 0 18 18" fill="none"><defs><path id="path_0"
        transform="translate(0 0) rotate(0 9 9)"
        d="M0,18L18,18L18,0L0,0L0,18Z" /></defs><g opacity="1" transform="translate(0 0)  rotate(0 9 9)"><mask id="mask-0" fill="white"><use xlink:href="#path_0"></use></mask><g mask="url(#mask-0)"></g><g mask="url(#mask-0)"><g opacity="1" transform="translate(1 1)  rotate(0 8 8)"><path id="圆形 3" fill-rule="evenodd" style="fill:#2E4FDE" transform="translate(1.9992487764570797 1.999248776456966)  rotate(0 6 6)" opacity="1" d="M2.67,10.99C3.65,11.65 4.81,12 6,12L6,6L12,6C12,4.81 11.65,3.65 10.99,2.67C10.33,1.68 9.39,0.91 8.3,0.46C7.2,0 5.99,-0.12 4.83,0.12C3.67,0.35 2.6,0.92 1.76,1.76C0.92,2.6 0.35,3.67 0.12,4.83C-0.12,5.99 0,7.2 0.46,8.3C0.91,9.39 1.68,10.33 2.67,10.99Z " /><path id="减去顶层" fill-rule="evenodd" style="fill:#2E4FDE" transform="translate(0 0)  rotate(0 8 8)" opacity="1" d="M6.63,1.13C7.99,0.86 9.4,1 10.68,1.53C11.96,2.06 13.05,2.96 13.82,4.11C14.59,5.26 15,6.62 15,8L16,8C16,6.42 15.53,4.87 14.65,3.56C13.77,2.24 12.52,1.21 11.06,0.61C9.6,0 7.99,-0.15 6.44,0.15C4.89,0.46 3.46,1.22 2.34,2.34C1.22,3.46 0.46,4.89 0.15,6.44C-0.15,7.99 0,9.6 0.61,11.06C1.21,12.52 2.24,13.77 3.56,14.65C4.87,15.53 6.42,16 8,16L8,15C6.62,15 5.26,14.59 4.11,13.82C2.96,13.05 2.06,11.96 1.53,10.68C1,9.4 0.86,7.99 1.13,6.63C1.4,5.28 2.07,4.03 3.05,3.05C4.03,2.07 5.28,1.4 6.63,1.13Z " /><path id="矩形 2 (轮廓)" fill-rule="evenodd" style="fill:#2E4FDE" transform="translate(9 9)  rotate(0 3.5 3.5)" opacity="1" d="M7 0L7 5C7 6.1 6.1 7 5 7L0 7L0 0L7 0ZM5 6L1 6L1 1L6 1L6 5C6 5.27 5.9 5.51 5.71 5.71C5.51 5.9 5.27 6 5 6Z" /></g></g></g></svg>