<svg xmlns="http://www.w3.org/2000/svg" xmlns:xlink="http://www.w3.org/1999/xlink" width="18" height="18" viewBox="0 0 18 18" fill="none"><defs><path id="path_0"
        transform="translate(0 0) rotate(0 9 9)"
        d="M0,18L18,18L18,0L0,0L0,18Z" /></defs><g opacity="1" transform="translate(0 0)  rotate(0 9 9)"><mask id="mask-0" fill="white"><use xlink:href="#path_0"></use></mask><g mask="url(#mask-0)"></g><g mask="url(#mask-0)"><path id="减去顶层" fill-rule="evenodd" style="fill:#2E4FDE" transform="translate(1 1)  rotate(0 8 8)" opacity="1" d="M0 8.11856L0 3C0 1.34 3.58 0 8 0C12.42 0 16 1.34 16 3L16 8.11856C15.0538 8.57126 13.9988 8.93172 12.83 9.21Q10.535 9.75 8 9.75Q5.465 9.75 3.17 9.21C2.00122 8.93172 0.946227 8.57126 0 8.11856ZM-6.66134e-16 9.21386C2.2059 10.1761 4.98288 10.75 8 10.75C11.0171 10.75 13.7941 10.1761 16 9.21386L16 12.5Q16 13.325 15.25 14.03C14.83 14.44 14.24 14.79 13.49 15.09C12.76 15.38 11.93 15.6 11 15.76C10.05 15.92 9.04 16 8 16C6.96 16 5.95 15.92 5 15.76C4.07 15.6 3.24 15.38 2.51 15.09C1.76 14.79 1.17 14.44 0.75 14.03Q0 13.325 0 12.5L0 9.21386L-6.66134e-16 9.21386ZM14.71 2.58C14.9 2.75 15 2.89 15 3C15 3.11 14.9 3.25 14.71 3.42C14.4 3.7 13.93 3.95 13.31 4.19C12.63 4.44 11.85 4.64 10.96 4.78C10.02 4.93 9.03 5 8 5C6.97 5 5.98 4.93 5.04 4.78C4.15 4.64 3.37 4.44 2.69 4.19C2.07 3.95 1.6 3.7 1.29 3.42C1.1 3.25 1 3.11 1 3C1 2.89 1.1 2.75 1.29 2.58C1.6 2.3 2.07 2.05 2.69 1.81C3.37 1.56 4.15 1.36 5.04 1.22C5.98 1.07 6.97 1 8 1C9.03 1 10.02 1.07 10.96 1.22C11.85 1.36 12.63 1.56 13.31 1.81C13.93 2.05 14.4 2.3 14.71 2.58ZM11 7.25C11 6.7 11.45 6.25 12 6.25C12.55 6.25 13 6.7 13 7.25C13 7.8 12.55 8.25 12 8.25C11.45 8.25 11 7.8 11 7.25ZM12 12.25C11.45 12.25 11 12.7 11 13.25C11 13.8 11.45 14.25 12 14.25C12.55 14.25 13 13.8 13 13.25C13 12.7 12.55 12.25 12 12.25Z " /></g></g></svg>