<svg xmlns="http://www.w3.org/2000/svg" xmlns:xlink="http://www.w3.org/1999/xlink" width="18" height="18" viewBox="0 0 18 18" fill="none"><defs><path id="path_0"
        transform="translate(0 0) rotate(0 9 9)"
        d="M0,18L18,18L18,0L0,0L0,18Z" /></defs><g opacity="1" transform="translate(0 0)  rotate(0 9 9)"><g opacity="1" transform="translate(0 0)  rotate(0 9 9)"><mask id="mask-0" fill="white"><use xlink:href="#path_0"></use></mask><g mask="url(#mask-0)"></g><g mask="url(#mask-0)"><g opacity="1" transform="translate(1 1)  rotate(0 8 8)"><path id="矩形 1 (轮廓)" fill-rule="evenodd" style="fill:#75777D" transform="translate(0 3)  rotate(0 0.5 2.25)" opacity="1" d="M0,0L0,4.5L1,4.5L1,0L0,0Z " /><path id="矩形 1 (轮廓)" fill-rule="evenodd" style="fill:#75777D" transform="translate(0 6.5)  rotate(0 0.5 3)" opacity="1" d="M0,0L0,6L1,6L1,0L0,0Z " /><path id="矩形 1 (轮廓)" fill-rule="evenodd" style="fill:#75777D" transform="translate(15 3)  rotate(0 0.5 2.25)" opacity="1" d="M0,0L0,4.5L1,4.5L1,0L0,0Z " /><path id="矩形 1 (轮廓)" fill-rule="evenodd" style="fill:#75777D" transform="translate(15 6.5)  rotate(0 0.5 3)" opacity="1" d="M0,0L0,6L1,6L1,0L0,0Z " /><path id="圆形 4 (轮廓)" fill-rule="evenodd" style="fill:#75777D" transform="translate(0 0)  rotate(0 8 3)" opacity="1" d="M16 3C16 4.66 12.42 6 8 6C3.58 6 0 4.66 0 3C0 1.34 3.58 0 8 0C12.42 0 16 1.34 16 3ZM13.31 4.19C12.63 4.44 11.85 4.64 10.96 4.78C10.02 4.93 9.03 5 8 5C6.97 5 5.98 4.93 5.04 4.78C4.15 4.64 3.37 4.44 2.69 4.19C2.07 3.95 1.6 3.7 1.29 3.42C1.1 3.25 1 3.11 1 3C1 2.89 1.1 2.75 1.29 2.58C1.6 2.3 2.07 2.05 2.69 1.81C3.37 1.56 4.15 1.36 5.04 1.22C5.98 1.07 6.97 1 8 1C9.03 1 10.02 1.07 10.96 1.22C11.85 1.36 12.63 1.56 13.31 1.81C13.93 2.05 14.4 2.3 14.71 2.58C14.9 2.75 15 2.89 15 3C15 3.11 14.9 3.25 14.71 3.42C14.4 3.7 13.93 3.95 13.31 4.19Z" /><path id="圆形 4 (轮廓)" fill-rule="evenodd" style="fill:#75777D" transform="translate(0 7.5)  rotate(0 8 1.75)" opacity="1" d="M0,0C0,0.55 0.25,1.06 0.75,1.53C1.17,1.94 1.76,2.29 2.51,2.59C3.24,2.88 4.07,3.1 5,3.26C5.95,3.42 6.96,3.5 8,3.5C9.04,3.5 10.05,3.42 11,3.26C11.93,3.1 12.76,2.88 13.49,2.59C14.24,2.29 14.83,1.94 15.25,1.53C15.75,1.06 16,0.55 16,0L15,0C15,0.26 14.86,0.53 14.57,0.81C14.23,1.12 13.75,1.41 13.12,1.66C12.46,1.92 11.7,2.13 10.84,2.27C9.93,2.42 8.99,2.5 8,2.5C7.01,2.5 6.07,2.42 5.16,2.27C4.3,2.13 3.54,1.92 2.88,1.66C2.25,1.41 1.77,1.12 1.43,0.81C1.14,0.53 1,0.26 1,0L0,0Z " /><path id="圆形 4 (轮廓)" fill-rule="evenodd" style="fill:#75777D" transform="translate(0 12.5)  rotate(0 8 1.75)" opacity="1" d="M8,3.5C9.04,3.5 10.05,3.42 11,3.26C11.93,3.1 12.76,2.88 13.49,2.59C14.24,2.29 14.83,1.94 15.25,1.53C15.75,1.06 16,0.55 16,0L15,0C15,0.26 14.86,0.53 14.57,0.81C14.23,1.12 13.75,1.41 13.12,1.66C12.46,1.92 11.7,2.13 10.84,2.27C9.93,2.42 8.99,2.5 8,2.5C7.01,2.5 6.07,2.42 5.16,2.27C4.3,2.13 3.54,1.92 2.88,1.66C2.25,1.41 1.77,1.12 1.43,0.81C1.14,0.53 1,0.26 1,0L0,0C0,0.55 0.25,1.06 0.75,1.53C1.17,1.94 1.76,2.29 2.51,2.59C3.24,2.88 4.07,3.1 5,3.26C5.95,3.42 6.96,3.5 8,3.5Z " /><path id="圆形 5" fill-rule="evenodd" style="fill:#75777D" transform="translate(11 6.5)  rotate(0 1 1)" opacity="1" d="M1,0C0.45,0 0,0.45 0,1C0,1.55 0.45,2 1,2C1.55,2 2,1.55 2,1C2,0.45 1.55,0 1,0Z " /><path id="圆形 5" fill-rule="evenodd" style="fill:#75777D" transform="translate(11 11.5)  rotate(0 1 1)" opacity="1" d="M1,0C0.45,0 0,0.45 0,1C0,1.55 0.45,2 1,2C1.55,2 2,1.55 2,1C2,0.45 1.55,0 1,0Z " /></g></g></g></g></svg>