<svg xmlns="http://www.w3.org/2000/svg" xmlns:xlink="http://www.w3.org/1999/xlink" width="18" height="18" viewBox="0 0 18 18" fill="none"><defs><path id="path_0"
        transform="translate(0 0) rotate(0 9 9)"
        d="M0,18L18,18L18,0L0,0L0,18Z" /></defs><g opacity="1" transform="translate(0 0)  rotate(0 9 9)"><mask id="mask-0" fill="white"><use xlink:href="#path_0"></use></mask><g mask="url(#mask-0)"></g><g mask="url(#mask-0)"><path id="并集" fill-rule="evenodd" style="fill:#75777D" transform="translate(1 1)  rotate(0 8 8)" opacity="1" d="M2.51 10C3.34 9.97 4.02 9.34 4.11 8.52C4.65 5.16 7.08 4 10 4L14 4C14.53 4 15.04 3.79 15.41 3.41C15.79 3.04 16 2.53 16 2C16 0.9 15.1 0 14 0L6 0C2.69 0 0 2.69 0 6L0 8C0 9.1 0.9 10 2 10L2.51 10Z M2.47 2.47C2 2.93 1.65 3.46 1.39 4.06C1.13 4.67 1 5.32 1 6L1 8C1 8.27 1.1 8.51 1.29 8.71C1.49 8.9 1.73 9 2 9L2.49 9C2.65 8.99 2.79 8.93 2.91 8.82C3.03 8.71 3.1 8.57 3.12 8.41L3.12 8.36C3.42 6.49 4.25 5.1 5.6 4.17C6.75 3.39 8.21 3 10 3L14 3C14.28 3 14.51 2.9 14.69 2.71L14.71 2.69C14.9 2.51 15 2.28 15 2C15 1.73 14.9 1.49 14.71 1.29C14.51 1.1 14.27 1 14 1L6 1C5.32 1 4.67 1.13 4.06 1.39C3.46 1.65 2.93 2 2.47 2.47Z M14 6C12.89 6.07 11.98 6.89 11.79 7.99C11.1 10.95 8.76 12 6 12L2 12C1.47 12 0.96 12.21 0.59 12.59C0.21 12.96 0 13.47 0 14C0 15.1 0.9 16 2 16L10 16C13.31 16 16 13.31 16 10L16 8C16 6.9 15.1 6 14 6Z M8 6C6.9 6 6 6.9 6 8C6 9.1 6.9 10 8 10C9.1 10 10 9.1 10 8C10 6.9 9.1 6 8 6Z M14.03 7C13.72 7.03 13.45 7.14 13.22 7.35C12.98 7.57 12.83 7.84 12.78 8.16L12.77 8.19L12.76 8.22C12.37 9.89 11.52 11.13 10.2 11.95Q8.52 13 6 13L2 13C1.72 13 1.49 13.1 1.31 13.29L1.3 13.3L1.29 13.31C1.1 13.49 1 13.72 1 14C1 14.27 1.1 14.51 1.29 14.71C1.49 14.9 1.73 15 2 15L10 15C10.68 15 11.33 14.87 11.94 14.61C12.54 14.35 13.07 14 13.53 13.53C14 13.07 14.35 12.54 14.61 11.94C14.87 11.33 15 10.68 15 10L15 8C15 7.73 14.9 7.49 14.71 7.29C14.52 7.11 14.29 7.01 14.03 7Z M8.71 8.71C8.9 8.51 9 8.27 9 8C9 7.73 8.9 7.49 8.71 7.29C8.51 7.1 8.27 7 8 7C7.73 7 7.49 7.1 7.29 7.29C7.1 7.49 7 7.73 7 8C7 8.27 7.1 8.51 7.29 8.71C7.49 8.9 7.73 9 8 9C8.27 9 8.51 8.9 8.71 8.71Z " /></g></g></svg>