<svg xmlns="http://www.w3.org/2000/svg" xmlns:xlink="http://www.w3.org/1999/xlink" width="18" height="18" viewBox="0 0 18 18" fill="none"><defs><path id="path_0"
        transform="translate(0 0) rotate(0 9 9)"
        d="M0,18L18,18L18,0L0,0L0,18Z" /></defs><g opacity="1" transform="translate(0 0)  rotate(0 9 9)"><mask id="mask-0" fill="white"><use xlink:href="#path_0"></use></mask><g mask="url(#mask-0)"></g><g mask="url(#mask-0)"><path id="并集" fill-rule="evenodd" style="fill:#2E4FDE" transform="translate(1 1)  rotate(0 8 8)" opacity="1" d="M14 4C14.53 4 15.04 3.79 15.41 3.41C15.79 3.04 16 2.53 16 2C16 0.9 15.1 0 14 0L6 0C2.69 0 0 2.69 0 6L0 8C0 9.1 0.9 10 2 10L2.51 10C3.34 9.97 4.02 9.34 4.11 8.52C4.65 5.16 7.08 4 10 4L14 4Z M0 14C0 15.1 0.9 16 2 16L10 16C13.31 16 16 13.31 16 10L16 8C16 6.9 15.1 6 14 6C12.89 6.07 11.98 6.89 11.79 7.99C11.1 10.95 8.76 12 6 12L2 12C1.47 12 0.96 12.21 0.59 12.59C0.21 12.96 0 13.47 0 14Z M6 8C6 6.9 6.9 6 8 6C9.1 6 10 6.9 10 8C10 9.1 9.1 10 8 10C6.9 10 6 9.1 6 8Z " /></g></g></svg>