<svg xmlns="http://www.w3.org/2000/svg" xmlns:xlink="http://www.w3.org/1999/xlink" width="18" height="18" viewBox="0 0 18 18" fill="none"><defs><path id="path_0"
        transform="translate(0 0) rotate(0 9 9)"
        d="M0,18L18,18L18,0L0,0L0,18Z" /></defs><g opacity="1" transform="translate(0 0)  rotate(0 9 9)"><mask id="mask-0" fill="white"><use xlink:href="#path_0"></use></mask><g mask="url(#mask-0)"></g><g mask="url(#mask-0)"><g opacity="1" transform="translate(1 1)  rotate(0 8 8)"><path id="圆形 3 (轮廓)" fill-rule="evenodd" style="fill:#75777D" transform="translate(1.9992487764570797 1.999248776456966)  rotate(0 6.000375611771529 6.000375611771529)" opacity="1" d="M1.76 1.76C2.6 0.92 3.67 0.35 4.83 0.12C5.99 -0.12 7.2 0 8.3 0.46C9.39 0.91 10.33 1.68 10.99 2.67C11.46 3.37 11.78 4.17 11.92 5C11.97 5.33 12 5.66 12 6L6 6L6 12C5.66 12 5.33 11.97 5 11.92C4.17 11.78 3.37 11.46 2.67 10.99C1.68 10.33 0.91 9.39 0.46 8.3C0 7.2 -0.12 5.99 0.12 4.83C0.35 3.67 0.92 2.6 1.76 1.76ZM1.38 7.91C1.57 8.37 1.82 8.79 2.14 9.17C2.45 9.56 2.81 9.88 3.23 10.16C3.78 10.53 4.37 10.78 5 10.9L5 5L10.9 5C10.78 4.37 10.53 3.78 10.16 3.23C9.89 2.81 9.56 2.45 9.17 2.14C8.79 1.82 8.37 1.57 7.92 1.39C7.46 1.19 6.98 1.07 6.49 1.02C6 0.98 5.51 1 5.03 1.1C4.04 1.3 3.18 1.75 2.47 2.47C1.75 3.18 1.3 4.03 1.1 5.03C1 5.51 0.98 6 1.02 6.49C1.07 6.98 1.19 7.46 1.38 7.91Z" /><path id="减去顶层" fill-rule="evenodd" style="fill:#75777D" transform="translate(0 0)  rotate(0 8 8)" opacity="1" d="M16 8C16 6.42 15.53 4.87 14.65 3.56C13.77 2.24 12.52 1.21 11.06 0.61C9.6 0 7.99 -0.15 6.44 0.15C4.89 0.46 3.46 1.22 2.34 2.34C1.22 3.46 0.46 4.89 0.15 6.44C-0.15 7.99 0 9.6 0.61 11.06C1.21 12.52 2.24 13.77 3.56 14.65C4.87 15.53 6.42 16 8 16L8 15C6.62 15 5.26 14.59 4.11 13.82C2.96 13.05 2.06 11.96 1.53 10.68C1 9.4 0.86 7.99 1.13 6.63C1.4 5.28 2.07 4.03 3.05 3.05C4.03 2.07 5.28 1.4 6.63 1.13C7.99 0.86 9.4 1 10.68 1.53C11.96 2.06 13.05 2.96 13.82 4.11C14.59 5.26 15 6.62 15 8L16 8Z " /><path id="矩形 2 (轮廓)" fill-rule="evenodd" style="fill:#75777D" transform="translate(9 9)  rotate(0 3.5 3.5)" opacity="1" d="M7 0L7 5C7 6.1 6.1 7 5 7L0 7L0 0L7 0ZM5 6L1 6L1 1L6 1L6 5C6 5.27 5.9 5.51 5.71 5.71C5.51 5.9 5.27 6 5 6Z" /></g></g></g></svg>