<svg xmlns="http://www.w3.org/2000/svg" xmlns:xlink="http://www.w3.org/1999/xlink" width="18" height="18" viewBox="0 0 18 18" fill="none"><defs><path id="path_0"
        transform="translate(0 0) rotate(0 9 9)"
        d="M0,18L18,18L18,0L0,0L0,18Z" /></defs><g opacity="1" transform="translate(0 0)  rotate(0 9 9)"><mask id="mask-0" fill="white"><use xlink:href="#path_0"></use></mask><g mask="url(#mask-0)"></g><g mask="url(#mask-0)"><path id="并集" fill-rule="evenodd" style="fill:#2E4FDE" transform="translate(1 1)  rotate(0 8 8)" opacity="1" d="M1.29 14.71C1.1 14.51 1 14.27 1 14L1 2C1 1.73 1.1 1.49 1.29 1.29C1.49 1.1 1.73 1 2 1L14 1C14.27 1 14.51 1.1 14.71 1.29C14.9 1.49 15 1.73 15 2L15 9L16 9L16 2C16 0.9 15.1 0 14 0L2 0C0.9 0 0 0.9 0 2L0 14C0 15.1 0.9 16 2 16L9 16L9 15L2 15C1.73 15 1.49 14.9 1.29 14.71ZM11.53 12.48L11.17 12.12C10.31 12.83 9.2 13.25 8 13.25C5.24 13.25 3 11.01 3 8.25C3 5.49 5.24 3.25 8 3.25C10.76 3.25 13 5.49 13 8.25C13 9.45 12.58 10.56 11.87 11.42L12.23 11.78L14.85 14.4L14.15 15.1L11.53 12.48ZM7.75 8.5C7.75 7.67 8.42 7 9.25 7C10.08 7 10.75 7.67 10.75 8.5C10.75 9.33 10.08 10 9.25 10C8.42 10 7.75 9.33 7.75 8.5ZM14.22 15.17C14.25 15.19 14.28 15.2 14.31 15.21Q14.355 15.24 14.4 15.24C14.44 15.25 14.47 15.25 14.5 15.25C14.54 15.25 14.57 15.25 14.6 15.24Q14.645 15.24 14.69 15.21C14.72 15.2 14.75 15.19 14.78 15.17C14.81 15.15 14.83 15.13 14.86 15.11C14.9 15.06 14.94 15 14.96 14.94C14.99 14.88 15 14.82 15 14.75C15 14.69 14.99 14.62 14.96 14.56C14.94 14.5 14.9 14.45 14.86 14.4L14.15 15.11C14.17 15.13 14.2 15.15 14.22 15.17Z" /></g></g></svg>