<svg xmlns="http://www.w3.org/2000/svg" xmlns:xlink="http://www.w3.org/1999/xlink" width="18" height="18" viewBox="0 0 18 18" fill="none"><defs><path id="path_0"
        transform="translate(0 0) rotate(0 9 9)"
        d="M0,18L18,18L18,0L0,0L0,18Z" /></defs><g opacity="1" transform="translate(0 0)  rotate(0 9 9)"><mask id="mask-0" fill="white"><use xlink:href="#path_0"></use></mask><g mask="url(#mask-0)"></g><g mask="url(#mask-0)"><path id="并集" fill-rule="evenodd" style="fill:#75777D" transform="translate(1 1)  rotate(0 8 8)" opacity="1" d="M0 4L0 2C0 0.9 0.9 0 2 0L14 0C15.1 0 16 0.9 16 2L16 4L0 4Z M1.29 1.29C1.49 1.1 1.73 1 2 1L14 1C14.27 1 14.51 1.1 14.71 1.29C14.9 1.49 15 1.73 15 2L15 3L1 3L1 2C1 1.73 1.1 1.49 1.29 1.29Z M14 16L2 16C0.9 16 0 15.1 0 14L0 5L16 5L16 14C16 15.1 15.1 16 14 16Z M1 14L1 6L15 6L15 14C15 14.27 14.9 14.51 14.71 14.71C14.51 14.9 14.27 15 14 15L2 15C1.73 15 1.49 14.9 1.29 14.71C1.1 14.51 1 14.27 1 14Z M6.435 13.24C6.495 13.25 6.565 13.25 6.625 13.24C6.695 13.23 6.755 13.2 6.805 13.16C6.865 13.13 6.905 13.08 6.945 13.02L9.895 8.52C9.925 8.47 9.955 8.41 9.965 8.34C9.975 8.28 9.975 8.21 9.965 8.15C9.955 8.08 9.925 8.02 9.885 7.97C9.855 7.91 9.805 7.87 9.745 7.83C9.725 7.81 9.695 7.8 9.665 7.79C9.635 7.77 9.605 7.76 9.565 7.76C9.535 7.75 9.505 7.75 9.475 7.75C9.435 7.75 9.405 7.75 9.375 7.76C9.345 7.77 9.305 7.78 9.275 7.79C9.245 7.8 9.225 7.82 9.195 7.84C9.165 7.86 9.145 7.88 9.115 7.9C9.095 7.92 9.075 7.95 9.055 7.98L6.105 12.48C6.085 12.5 6.075 12.53 6.065 12.56C6.045 12.59 6.035 12.62 6.035 12.66C6.025 12.69 6.025 12.72 6.025 12.75C6.025 12.79 6.025 12.82 6.035 12.85C6.045 12.88 6.055 12.92 6.065 12.95C6.075 12.98 6.095 13 6.115 13.03C6.135 13.06 6.155 13.08 6.175 13.11C6.195 13.13 6.225 13.15 6.255 13.17C6.305 13.2 6.365 13.23 6.435 13.24Z M4.90368 13.1163C4.86832 13.1234 4.84004 13.1234 4.80468 13.1163C4.7764 13.1022 4.74104 13.0951 4.71276 13.0809L4.62791 13.0385C4.59962 13.0244 4.57134 12.9961 4.55013 12.9749L3.13591 11.5607C2.846 11.2707 2.69751 10.9101 2.69751 10.5C2.69751 10.0899 2.846 9.72925 3.13591 9.43934L4.55013 8.02513C4.57134 8.00391 4.59962 7.97563 4.62791 7.96149L4.71276 7.91906C4.74105 7.90492 4.7764 7.89785 4.80469 7.8837C4.84004 7.87663 4.86832 7.87663 4.90368 7.8837C4.93904 7.87663 4.96732 7.87663 5.00267 7.8837C5.03096 7.89785 5.06631 7.90492 5.0946 7.91906L5.17945 7.96149C5.20774 7.97563 5.23602 8.00391 5.25723 8.02513C5.27845 8.04634 5.30673 8.07462 5.32087 8.10291L5.3633 8.18776C5.37744 8.21605 5.38451 8.2514 5.39865 8.27968C5.40573 8.31504 5.40573 8.34332 5.39865 8.37868C5.40573 8.41403 5.40573 8.44232 5.39865 8.47767C5.38451 8.50596 5.37744 8.54131 5.3633 8.5696L5.32087 8.65445C5.30673 8.68274 5.27845 8.71102 5.25723 8.73223L3.84302 10.1464C3.74402 10.2454 3.7016 10.3586 3.7016 10.5C3.7016 10.6414 3.74402 10.7546 3.84302 10.8536L5.25723 12.2678C5.27845 12.289 5.30673 12.3173 5.32087 12.3455L5.3633 12.4304C5.37744 12.4587 5.38451 12.494 5.39865 12.5223C5.40573 12.5577 5.40573 12.586 5.39865 12.6213C5.40573 12.6567 5.40573 12.685 5.39865 12.7203C5.38451 12.7486 5.37744 12.784 5.3633 12.8122L5.32087 12.8971C5.30673 12.9254 5.27845 12.9537 5.25723 12.9749C5.23602 12.9961 5.20774 13.0244 5.17945 13.0385L5.0946 13.0809C5.06631 13.0951 5.03096 13.1022 5.00268 13.1163C4.96732 13.1234 4.93904 13.1234 4.90368 13.1163Z M10.6013 8.47767C10.5943 8.44232 10.5943 8.41404 10.6013 8.37868C10.5943 8.34332 10.5943 8.31504 10.6013 8.27969C10.6155 8.2514 10.6226 8.21605 10.6367 8.18776L10.6791 8.10291C10.6933 8.07462 10.7216 8.04634 10.7428 8.02513C10.764 8.00391 10.7923 7.97563 10.8205 7.96149L10.9054 7.91906C10.9337 7.90492 10.969 7.89785 10.9973 7.88371C11.0327 7.87663 11.061 7.87663 11.0963 7.88371C11.1317 7.87663 11.16 7.87663 11.1953 7.88371C11.2236 7.89785 11.259 7.90492 11.2872 7.91906L11.3721 7.96149C11.4004 7.97563 11.4287 8.00391 11.4499 8.02513L12.8641 9.43934C13.154 9.72925 13.3025 10.0899 13.3025 10.5C13.3025 10.9101 13.154 11.2707 12.8641 11.5607L11.4499 12.9749C11.4287 12.9961 11.4004 13.0244 11.3721 13.0385L11.2872 13.0809C11.259 13.0951 11.2236 13.1022 11.1953 13.1163C11.16 13.1234 11.1317 13.1234 11.0963 13.1163C11.061 13.1234 11.0327 13.1234 10.9973 13.1163C10.969 13.1022 10.9337 13.0951 10.9054 13.0809L10.8205 13.0385C10.7923 13.0244 10.764 12.9961 10.7428 12.9749C10.7216 12.9537 10.6933 12.9254 10.6791 12.8971L10.6367 12.8122C10.6226 12.784 10.6155 12.7486 10.6013 12.7203C10.5943 12.685 10.5943 12.6567 10.6013 12.6213C10.5943 12.586 10.5943 12.5577 10.6013 12.5223C10.6155 12.494 10.6226 12.4587 10.6367 12.4304L10.6791 12.3455C10.6933 12.3173 10.7216 12.289 10.7428 12.2678L12.157 10.8536C12.256 10.7546 12.2984 10.6414 12.2984 10.5C12.2984 10.3586 12.256 10.2454 12.157 10.1464L10.7428 8.73223C10.7216 8.71102 10.6933 8.68274 10.6791 8.65445L10.6367 8.5696C10.6226 8.54131 10.6155 8.50596 10.6013 8.47767Z " /></g></g></svg>