<svg xmlns="http://www.w3.org/2000/svg" xmlns:xlink="http://www.w3.org/1999/xlink" width="18" height="18" viewBox="0 0 18 18" fill="none"><defs><path id="path_0"
        transform="translate(0 0) rotate(0 9 9)"
        d="M0,18L18,18L18,0L0,0L0,18Z" /></defs><g opacity="1" transform="translate(0 0)  rotate(0 9 9)"><mask id="mask-0" fill="white"><use xlink:href="#path_0"></use></mask><g mask="url(#mask-0)"></g><g mask="url(#mask-0)"><path id="并集" fill-rule="evenodd" style="fill:#75777D" transform="translate(0.6574993133544922 1.6399998664855957)  rotate(0 8.342500686645508 7.360000133514404)" opacity="1" d="M3.8 14.22C3.98 14.53 4.31 14.72 4.68 14.72L12.02 14.72C12.38 14.72 12.7 14.53 12.88 14.22L16.55 7.86C16.73 7.55 16.73 7.17 16.55 6.86L12.88 0.5C12.7 0.19 12.38 0 12.02 0L4.68 0C4.31 0 3.98 0.19 3.8 0.5L0.14 6.86C-0.05 7.17 -0.05 7.55 0.14 7.86L3.8 14.22ZM4.67 13.72L1 7.36L4.67 1L12.02 1L15.69 7.36L12.02 13.72L4.67 13.72ZM4.46 3.42C4.17 3.71 4.02 4.07 4.02 4.48C4.02 4.89 4.17 5.25 4.46 5.54L5.87 6.96C5.89 6.98 5.92 7.01 5.95 7.02L6.03 7.06C6.06 7.08 6.1 7.08 6.12 7.1L6.32 7.1C6.35 7.08 6.39 7.08 6.41 7.06L6.5 7.02C6.53 7.01 6.56 6.98 6.58 6.96C6.6 6.93 6.63 6.91 6.64 6.88L6.68 6.79C6.7 6.76 6.7 6.73 6.72 6.7C6.73 6.67 6.73 6.64 6.72 6.6C6.73 6.57 6.73 6.54 6.72 6.5C6.7 6.47 6.7 6.44 6.68 6.41L6.64 6.33C6.63 6.3 6.6 6.27 6.58 6.25L5.16 4.83C5.06 4.74 5.02 4.62 5.02 4.48C5.02 4.34 5.06 4.23 5.16 4.13L6.58 2.71C6.6 2.69 6.63 2.66 6.64 2.64L6.68 2.55C6.7 2.52 6.7 2.49 6.72 2.46C6.73 2.42 6.73 2.39 6.72 2.36C6.73 2.32 6.73 2.3 6.72 2.26C6.7 2.23 6.7 2.2 6.68 2.17L6.64 2.08C6.63 2.06 6.6 2.03 6.58 2.01C6.56 1.98 6.53 1.96 6.5 1.94L6.41 1.9C6.39 1.89 6.35 1.88 6.32 1.86L6.12 1.86C6.1 1.88 6.06 1.89 6.03 1.9L5.95 1.94C5.92 1.96 5.89 1.98 5.87 2.01L4.46 3.42ZM5 12.73C4.99 12.71 4.96 12.68 4.95 12.66L4.89 12.57C4.87 12.54 4.86 12.51 4.85 12.48L4.85 12.29C4.85 12.25 4.86 12.22 4.87 12.19C4.88 12.16 4.89 12.13 4.92 12.1L10.91 2.1C10.94 2.07 10.96 2.05 10.98 2.02C10.99 2 11.03 1.98 11.04 1.96C11.07 1.94 11.1 1.92 11.14 1.91C11.16 1.89 11.19 1.88 11.23 1.87C11.26 1.87 11.29 1.86 11.32 1.86C11.35 1.86 11.39 1.86 11.41 1.87C11.45 1.87 11.48 1.88 11.51 1.89C11.55 1.9 11.57 1.91 11.6 1.93C11.65 1.97 11.7 2.01 11.75 2.06C11.78 2.12 11.81 2.17 11.84 2.24C11.85 2.3 11.85 2.37 11.84 2.43C11.82 2.5 11.8 2.56 11.78 2.62L5.78 12.62C5.76 12.65 5.74 12.67 5.71 12.7C5.69 12.72 5.66 12.74 5.64 12.76C5.61 12.78 5.58 12.8 5.55 12.81C5.53 12.83 5.5 12.84 5.46 12.85C5.43 12.85 5.41 12.86 5.36 12.86C5.33 12.86 5.31 12.86 5.28 12.85C5.24 12.85 5.2 12.84 5.18 12.83C5.14 12.82 5.11 12.81 5.08 12.79C5.05 12.77 5.03 12.75 5 12.73ZM10.28 7.66C10.3 7.64 10.34 7.64 10.37 7.62L10.57 7.62C10.59 7.64 10.63 7.64 10.66 7.66L10.74 7.7C10.77 7.71 10.8 7.74 10.82 7.76L12.23 9.18C12.52 9.47 12.67 9.83 12.67 10.24C12.67 10.65 12.52 11.01 12.23 11.3L10.82 12.71C10.8 12.74 10.77 12.76 10.74 12.78L10.66 12.82C10.63 12.83 10.59 12.84 10.57 12.86L10.37 12.86C10.34 12.84 10.3 12.83 10.28 12.82L10.19 12.78C10.16 12.76 10.13 12.74 10.11 12.71C10.09 12.69 10.06 12.66 10.05 12.64L10.01 12.55C9.99 12.52 9.99 12.49 9.97 12.46C9.96 12.42 9.96 12.4 9.97 12.36C9.96 12.33 9.96 12.3 9.97 12.26C9.99 12.23 9.99 12.2 10.01 12.17L10.05 12.08C10.06 12.06 10.09 12.03 10.11 12.01L11.53 10.59C11.63 10.49 11.67 10.38 11.67 10.24C11.67 10.1 11.63 9.98 11.53 9.89L10.11 8.47C10.09 8.45 10.06 8.42 10.05 8.39L10.01 8.31C9.99 8.28 9.99 8.25 9.97 8.22C9.96 8.18 9.96 8.15 9.97 8.12C9.96 8.08 9.96 8.05 9.97 8.02C9.99 7.99 9.99 7.96 10.01 7.93L10.05 7.84C10.06 7.81 10.09 7.79 10.11 7.76C10.13 7.74 10.16 7.71 10.19 7.7L10.28 7.66Z" /></g></g></svg>