<svg xmlns="http://www.w3.org/2000/svg" xmlns:xlink="http://www.w3.org/1999/xlink" width="18" height="18" viewBox="0 0 18 18" fill="none"><defs><path id="path_0"
        transform="translate(0 0) rotate(0 9 9)"
        d="M0,18L18,18L18,0L0,0L0,18Z" /></defs><g opacity="1" transform="translate(0 0)  rotate(0 9 9)"><mask id="mask-0" fill="white"><use xlink:href="#path_0"></use></mask><g mask="url(#mask-0)"></g><g mask="url(#mask-0)"><path id="算法管理3" fill-rule="evenodd" style="fill:#2E4FDE" transform="translate(0.6550000000002001 1.6399999999999864)  rotate(0 8.344999999999999 7.359999999999999)" opacity="1" d="M0.14 7.86C-0.05 7.55 -0.05 7.17 0.14 6.86L3.81 0.5C3.99 0.19 4.32 0 4.67 0L12.01 0C12.38 0 12.71 0.19 12.89 0.5L16.55 6.86C16.74 7.17 16.74 7.55 16.55 7.86L12.89 14.22C12.71 14.53 12.38 14.72 12.01 14.72L4.67 14.72C4.32 14.72 3.99 14.53 3.81 14.22L0.14 7.86ZM11.33 1.86C11.36 1.86 11.39 1.86 11.42 1.87C11.46 1.87 11.49 1.88 11.52 1.89C11.55 1.9 11.58 1.91 11.61 1.93C11.66 1.97 11.71 2.01 11.75 2.06C11.79 2.12 11.82 2.17 11.84 2.24C11.85 2.3 11.85 2.37 11.84 2.43C11.83 2.5 11.81 2.56 11.78 2.62L5.78 12.62C5.76 12.65 5.74 12.67 5.72 12.7C5.7 12.72 5.67 12.74 5.65 12.76C5.62 12.78 5.59 12.8 5.56 12.81C5.53 12.83 5.5 12.84 5.47 12.85C5.44 12.85 5.41 12.86 5.37 12.86C5.34 12.86 5.31 12.86 5.28 12.85C5.24 12.85 5.21 12.84 5.18 12.83C5.15 12.82 5.12 12.81 5.09 12.79C5.06 12.77 5.04 12.75 5.01 12.73C4.99 12.71 4.97 12.68 4.95 12.66C4.93 12.63 4.91 12.6 4.9 12.57C4.88 12.54 4.87 12.51 4.86 12.48C4.86 12.45 4.85 12.42 4.85 12.38C4.85 12.35 4.85 12.32 4.86 12.29C4.86 12.25 4.87 12.22 4.88 12.19C4.89 12.16 4.9 12.13 4.92 12.1L10.92 2.1C10.94 2.07 10.96 2.05 10.98 2.02C11 2 11.03 1.98 11.05 1.96C11.08 1.94 11.11 1.92 11.14 1.91C11.17 1.89 11.2 1.88 11.23 1.87C11.26 1.87 11.29 1.86 11.33 1.86ZM4.46 5.54L5.87 6.96C5.89 6.98 5.92 7.01 5.95 7.02L6.04 7.06C6.06 7.08 6.1 7.08 6.13 7.1L6.33 7.1C6.35 7.08 6.39 7.08 6.42 7.06L6.5 7.02C6.53 7.01 6.56 6.98 6.58 6.96C6.6 6.94 6.63 6.91 6.64 6.88L6.69 6.79C6.7 6.77 6.71 6.73 6.72 6.7C6.73 6.67 6.73 6.64 6.72 6.6C6.73 6.57 6.73 6.54 6.72 6.5C6.71 6.48 6.7 6.44 6.69 6.41L6.64 6.33C6.63 6.3 6.6 6.27 6.58 6.25L5.17 4.84C5.07 4.74 5.02 4.62 5.02 4.48C5.02 4.34 5.07 4.23 5.17 4.13L6.58 2.71C6.6 2.69 6.63 2.66 6.64 2.64L6.69 2.55L6.72 2.46C6.73 2.42 6.73 2.4 6.72 2.36C6.73 2.32 6.73 2.3 6.72 2.26L6.69 2.17L6.64 2.08C6.63 2.06 6.6 2.03 6.58 2.01C6.56 1.99 6.53 1.96 6.5 1.94L6.42 1.9C6.39 1.89 6.35 1.88 6.33 1.87C6.29 1.86 6.26 1.86 6.23 1.87C6.19 1.86 6.16 1.86 6.13 1.87C6.1 1.88 6.06 1.89 6.04 1.9L5.95 1.94C5.92 1.96 5.89 1.99 5.87 2.01L4.46 3.42C4.17 3.71 4.02 4.07 4.02 4.48C4.02 4.89 4.17 5.25 4.46 5.54ZM11.53 9.89C11.63 9.99 11.67 10.1 11.67 10.24C11.67 10.38 11.63 10.49 11.53 10.59L10.12 12.01C10.09 12.03 10.07 12.06 10.05 12.09L10.01 12.17C10 12.2 9.99 12.23 9.97 12.26L9.97 12.46C9.99 12.49 10 12.52 10.01 12.55L10.05 12.64C10.07 12.67 10.09 12.69 10.12 12.72C10.14 12.74 10.16 12.76 10.19 12.78L10.28 12.82C10.31 12.84 10.34 12.84 10.37 12.86L10.57 12.86C10.6 12.84 10.63 12.84 10.66 12.82L10.74 12.78C10.77 12.76 10.8 12.74 10.82 12.72L12.24 11.3C12.53 11.01 12.67 10.65 12.67 10.24C12.67 9.83 12.53 9.47 12.24 9.18L10.82 7.77C10.8 7.74 10.77 7.72 10.74 7.7L10.66 7.66C10.63 7.65 10.6 7.64 10.57 7.62L10.37 7.62C10.34 7.64 10.31 7.65 10.28 7.66L10.19 7.7C10.16 7.72 10.14 7.74 10.12 7.77C10.09 7.79 10.07 7.81 10.05 7.84L10.01 7.93C10 7.96 9.99 7.99 9.97 8.02L9.97 8.22C9.99 8.25 10 8.28 10.01 8.31L10.05 8.39C10.07 8.42 10.09 8.45 10.12 8.47L11.53 9.89Z" /></g></g></svg>