<svg xmlns="http://www.w3.org/2000/svg" xmlns:xlink="http://www.w3.org/1999/xlink" width="18" height="18" viewBox="0 0 18 18" fill="none"><defs><path id="path_0"
        transform="translate(0 0) rotate(0 9 9)"
        d="M0,18L18,18L18,0L0,0L0,18Z" /></defs><g opacity="1" transform="translate(0 0)  rotate(0 9 9)"><mask id="mask-0" fill="white"><use xlink:href="#path_0"></use></mask><g mask="url(#mask-0)"></g><g mask="url(#mask-0)"><path id="并集" fill-rule="evenodd" style="fill:#2E4FDE" transform="translate(1 1)  rotate(0 8 8)" opacity="1" d="M0 2L0 12C0 13.1 0.9 14 2 14L14 14C15.1 14 16 13.1 16 12L16 2C16 0.9 15.1 0 14 0L2 0C0.9 0 0 0.9 0 2ZM12.65 5.87C12.76 5.76 12.81 5.6 12.76 5.46C12.71 5.31 12.58 5.2 12.43 5.18L9.82 4.81C9.69 4.79 9.58 4.71 9.52 4.59L8.36 2.23C8.29 2.09 8.15 2 8 2C7.85 2 7.71 2.09 7.64 2.23L6.48 4.59C6.42 4.71 6.31 4.79 6.18 4.81L3.57 5.18C3.42 5.2 3.29 5.31 3.24 5.46C3.19 5.6 3.24 5.76 3.35 5.87L5.23 7.7C5.33 7.79 5.37 7.93 5.35 8.06L4.9 10.65C4.88 10.8 4.94 10.95 5.06 11.04C5.18 11.13 5.35 11.14 5.48 11.07L7.81 9.85C7.93 9.79 8.07 9.79 8.19 9.85L10.52 11.07C10.65 11.14 10.82 11.13 10.94 11.04C11.06 10.95 11.12 10.8 11.1 10.65L10.65 8.06C10.63 7.93 10.67 7.79 10.77 7.7L12.65 5.87ZM2.81 15.96C2.75 15.94 2.69 15.9 2.65 15.85C2.6 15.81 2.56 15.75 2.54 15.69C2.51 15.63 2.5 15.57 2.5 15.5C2.5 15.43 2.51 15.37 2.54 15.31C2.56 15.25 2.6 15.19 2.65 15.15C2.69 15.1 2.75 15.06 2.81 15.04C2.87 15.01 2.93 15 3 15L13 15C13.07 15 13.13 15.01 13.19 15.04C13.25 15.06 13.31 15.1 13.35 15.15C13.4 15.19 13.44 15.25 13.46 15.31C13.49 15.37 13.5 15.43 13.5 15.5C13.5 15.53 13.5 15.57 13.49 15.6L13.46 15.69C13.45 15.72 13.43 15.75 13.42 15.78C13.4 15.81 13.38 15.83 13.35 15.85C13.33 15.88 13.31 15.9 13.28 15.92C13.25 15.93 13.22 15.95 13.19 15.96C13.16 15.98 13.13 15.98 13.1 15.99C13.07 16 13.03 16 13 16L3 16C2.93 16 2.87 15.99 2.81 15.96Z" /></g></g></svg>