<svg xmlns="http://www.w3.org/2000/svg" xmlns:xlink="http://www.w3.org/1999/xlink" width="18" height="18" viewBox="0 0 18 18" fill="none"><defs><path id="path_0"
        transform="translate(0 0) rotate(0 9 9)"
        d="M0,18L18,18L18,0L0,0L0,18Z" /></defs><g opacity="1" transform="translate(0 0)  rotate(0 9 9)"><mask id="mask-0" fill="white"><use xlink:href="#path_0"></use></mask><g mask="url(#mask-0)"></g><g mask="url(#mask-0)"><path id="并集" fill-rule="evenodd" style="fill:#75777D" transform="translate(1 1)  rotate(0 8 8)" opacity="1" d="M14 14C15.1 14 16 13.1 16 12L16 2C16 0.9 15.1 0 14 0L2 0C0.9 0 0 0.9 0 2L0 12C0 13.1 0.9 14 2 14L14 14Z M14 13C14.27 13 14.51 12.9 14.71 12.71C14.9 12.51 15 12.27 15 12L15 2C15 1.73 14.9 1.49 14.71 1.29C14.51 1.1 14.27 1 14 1L2 1C1.73 1 1.49 1.1 1.29 1.29C1.1 1.49 1 1.73 1 2L1 12C1 12.27 1.1 12.51 1.29 12.71C1.49 12.9 1.73 13 2 13L14 13Z M11.1006 10.65L10.6506 8.06C10.6306 7.93 10.6706 7.79 10.7706 7.7L12.6506 5.87C12.7606 5.76 12.8106 5.6 12.7606 5.46C12.7106 5.31 12.5806 5.2 12.4306 5.18L9.82057 4.81C9.69057 4.79 9.58057 4.71 9.52057 4.59L8.36057 2.23C8.29057 2.09 8.15057 2 8.00057 2C7.85057 2 7.71057 2.09 7.64057 2.23L6.48057 4.59C6.42057 4.71 6.31057 4.79 6.18057 4.81L3.57057 5.18C3.42057 5.2 3.29057 5.31 3.24057 5.46C3.19057 5.6 3.24057 5.76 3.35057 5.87L5.23057 7.7C5.33057 7.79 5.37057 7.93 5.35057 8.06L4.90057 10.65C4.88057 10.8 4.94057 10.95 5.06057 11.04C5.18057 11.13 5.35057 11.14 5.48057 11.07L7.81057 9.85C7.93057 9.79 8.07057 9.79 8.19057 9.85L10.5206 11.07C10.6506 11.14 10.8206 11.13 10.9406 11.04C11.0606 10.95 11.1206 10.8 11.1006 10.65Z M6.29057 7.56C6.35057 7.77 6.37057 7.99 6.34057 8.21L6.09057 9.62L7.35057 8.96C7.56057 8.86 7.78057 8.8 8.00057 8.8C8.22057 8.8 8.44057 8.86 8.64057 8.96L9.91057 9.62L9.66057 8.23C9.63057 8 9.64057 7.77 9.71057 7.56C9.79057 7.33 9.91057 7.14 10.0806 6.97L11.0806 6L9.68057 5.8C9.45057 5.76 9.24057 5.68 9.05057 5.54C8.87057 5.41 8.73057 5.24 8.62057 5.04L8.00057 3.76L7.38057 5.03C7.27057 5.24 7.13057 5.41 6.95057 5.54C6.76057 5.68 6.56057 5.76 6.33057 5.8L4.92057 6L5.92057 6.97C6.09057 7.14 6.21057 7.33 6.29057 7.56Z M5.02057 10.18C5.01057 10.18 5.01057 10.19 5.01057 10.19L5.02057 10.18Z M13.42 15.78C13.43 15.75 13.45 15.72 13.46 15.69L13.49 15.6C13.5 15.57 13.5 15.53 13.5 15.5C13.5 15.43 13.49 15.37 13.46 15.31C13.44 15.25 13.4 15.19 13.35 15.15C13.31 15.1 13.25 15.06 13.19 15.04C13.13 15.01 13.07 15 13 15L3 15C2.93 15 2.87 15.01 2.81 15.04C2.75 15.06 2.69 15.1 2.65 15.15C2.6 15.19 2.56 15.25 2.54 15.31C2.51 15.37 2.5 15.43 2.5 15.5C2.5 15.57 2.51 15.63 2.54 15.69C2.56 15.75 2.6 15.81 2.65 15.85C2.69 15.9 2.75 15.94 2.81 15.96C2.87 15.99 2.93 16 3 16L13 16C13.03 16 13.07 16 13.1 15.99C13.13 15.98 13.16 15.98 13.19 15.96C13.22 15.95 13.25 15.93 13.28 15.92C13.31 15.9 13.33 15.88 13.35 15.85C13.38 15.83 13.4 15.81 13.42 15.78Z " /></g></g></svg>