<svg xmlns="http://www.w3.org/2000/svg" xmlns:xlink="http://www.w3.org/1999/xlink" width="18" height="18" viewBox="0 0 18 18" fill="none"><defs><path id="path_0"
        transform="translate(0 0) rotate(0 9 9)"
        d="M0,18L18,18L18,0L0,0L0,18Z" /></defs><g opacity="1" transform="translate(0 0)  rotate(0 9 9)"><mask id="mask-0" fill="white"><use xlink:href="#path_0"></use></mask><g mask="url(#mask-0)"></g><g mask="url(#mask-0)"><path id="并集" fill-rule="evenodd" style="fill:#75777D" transform="translate(1 1)  rotate(0 8 8)" opacity="1" d="M12 2.5L12 4L13.5 4C13.84 4 14.16 4.07 14.47 4.2C14.77 4.32 15.04 4.5 15.27 4.73C15.5 4.96 15.68 5.23 15.8 5.53C15.93 5.84 16 6.16 16 6.5L16 13.5C16 13.84 15.93 14.16 15.8 14.47C15.68 14.77 15.5 15.04 15.27 15.27C15.04 15.5 14.77 15.68 14.47 15.8C14.16 15.93 13.84 16 13.5 16L6.5 16C6.16 16 5.84 15.93 5.53 15.8C5.23 15.68 4.96 15.5 4.73 15.27C4.5 15.04 4.32 14.77 4.2 14.47C4.07 14.16 4 13.84 4 13.5L4 12L2.5 12C2.16 12 1.84 11.93 1.53 11.8C1.23 11.68 0.96 11.5 0.73 11.27C0.5 11.04 0.32 10.77 0.2 10.47C0.07 10.16 0 9.84 0 9.5L0 2.5C0 2.16 0.07 1.84 0.2 1.53C0.32 1.23 0.5 0.96 0.73 0.73C0.96 0.5 1.23 0.32 1.53 0.2C1.84 0.07 2.16 0 2.5 0L9.5 0C9.84 0 10.16 0.07 10.47 0.2C10.77 0.32 11.04 0.5 11.27 0.73C11.5 0.96 11.68 1.23 11.8 1.53C11.93 1.84 12 2.16 12 2.5Z M1 2.5C1 2.09 1.15 1.74 1.44 1.44C1.74 1.15 2.09 1 2.5 1L9.5 1C9.91 1 10.26 1.15 10.56 1.44C10.85 1.74 11 2.09 11 2.5L11 4L7.83006 4C7.41929 2.83344 6.30916 2 5 2C3.34 2 2 3.34 2 5C2 6.30916 2.83344 7.41929 4 7.83006L4 11L2.5 11C2.09 11 1.74 10.85 1.44 10.56C1.15 10.26 1 9.91 1 9.5L1 2.5Z M5 8L5 11L8 11C8 9.34 9.34 8 11 8L11 5L8 5C8 6.66 6.66 8 5 8Z M12 8.16994C13.1666 8.5807 14 9.69084 14 11C14 12.66 12.66 14 11 14C9.69084 14 8.5807 13.1666 8.16994 12L5 12L5 13.5C5 13.91 5.15 14.26 5.44 14.56C5.74 14.85 6.09 15 6.5 15L13.5 15C13.91 15 14.26 14.85 14.56 14.56C14.85 14.26 15 13.91 15 13.5L15 6.5C15 6.09 14.85 5.74 14.56 5.44C14.26 5.15 13.91 5 13.5 5L12 5L12 8.16994Z M3.16 5.78C3.26 6.02 3.4 6.23 3.58 6.42C3.77 6.6 3.98 6.74 4.22 6.84C4.47 6.95 4.73 7 5 7C5.27 7 5.53 6.95 5.78 6.84C6.02 6.74 6.23 6.6 6.42 6.42C6.6 6.23 6.74 6.02 6.84 5.78C6.95 5.53 7 5.27 7 5C7 4.73 6.95 4.47 6.84 4.22C6.74 3.98 6.6 3.77 6.42 3.58C6.23 3.4 6.02 3.26 5.78 3.16C5.53 3.05 5.27 3 5 3C4.73 3 4.47 3.05 4.22 3.16C3.98 3.26 3.77 3.4 3.58 3.58C3.4 3.77 3.26 3.98 3.16 4.22C3.05 4.47 3 4.73 3 5C3 5.27 3.05 5.53 3.16 5.78Z M11.78 9.16C11.53 9.05 11.27 9 11 9C10.73 9 10.47 9.05 10.22 9.16C9.98 9.26 9.77 9.4 9.58 9.58C9.4 9.77 9.26 9.98 9.16 10.22C9.05 10.47 9 10.73 9 11C9 11.27 9.05 11.53 9.16 11.78C9.26 12.02 9.4 12.23 9.58 12.42C9.77 12.6 9.98 12.74 10.22 12.84C10.47 12.95 10.73 13 11 13C11.27 13 11.53 12.95 11.78 12.84C12.02 12.74 12.23 12.6 12.42 12.42C12.6 12.23 12.74 12.02 12.84 11.78C12.95 11.53 13 11.27 13 11C13 10.73 12.95 10.47 12.84 10.22C12.74 9.98 12.6 9.77 12.42 9.58C12.23 9.4 12.02 9.26 11.78 9.16Z " /></g></g></svg>