<svg xmlns="http://www.w3.org/2000/svg" xmlns:xlink="http://www.w3.org/1999/xlink" width="18" height="18" viewBox="0 0 18 18" fill="none"><defs><path id="path_0"
        transform="translate(0 0) rotate(0 9 9)"
        d="M0,18L18,18L18,0L0,0L0,18Z" /></defs><g opacity="1" transform="translate(0 0)  rotate(0 9 9)"><mask id="mask-0" fill="white"><use xlink:href="#path_0"></use></mask><g mask="url(#mask-0)"></g><g mask="url(#mask-0)"><path id="并集" fill-rule="evenodd" style="fill:#2E4FDE" transform="translate(1 1)  rotate(0 8 8)" opacity="1" d="M3.01,3.72L4.84,5.55C4.31,6.23 4,7.08 4,8C4,8.8 4.23,9.54 4.63,10.16L2.67,12.12C2.46,12.04 2.24,12 2,12C0.9,12 0,12.9 0,14C0,15.1 0.9,16 2,16C3.1,16 4,15.1 4,14C4,13.5 3.82,13.05 3.51,12.7L5.28,10.93C5.99,11.6 6.95,12 8,12C9.05,12 10.01,11.59 10.72,10.93L12.49,12.7C12.18,13.05 12,13.5 12,14C12,15.1 12.9,16 14,16C15.1,16 16,15.1 16,14C16,12.9 15.1,12 14,12C13.76,12 13.54,12.04 13.33,12.12L11.37,10.16C11.77,9.54 12,8.8 12,8C12,7.08 11.69,6.23 11.16,5.55L12.99,3.72C13.29,3.9 13.63,4 14,4C15.1,4 16,3.1 16,2C16,0.9 15.1,0 14,0C12.9,0 12,0.9 12,2C12,2.37 12.1,2.72 12.28,3.01L10.45,4.84C9.78,4.31 8.92,4 8,4C7.08,4 6.23,4.31 5.55,4.84L3.72,3.01C3.9,2.72 4,2.37 4,2C4,0.9 3.1,0 2,0C0.9,0 0,0.9 0,2C0,3.1 0.9,4 2,4C2.37,4 2.72,3.9 3.01,3.72Z " /></g></g></svg>