<svg xmlns="http://www.w3.org/2000/svg" xmlns:xlink="http://www.w3.org/1999/xlink" width="18" height="18" viewBox="0 0 18 18" fill="none"><defs><path id="path_0"
        transform="translate(0 0) rotate(0 9 9)"
        d="M0,18L18,18L18,0L0,0L0,18Z" /></defs><g opacity="1" transform="translate(0 0)  rotate(0 9 9)"><mask id="mask-0" fill="white"><use xlink:href="#path_0"></use></mask><g mask="url(#mask-0)"></g><g mask="url(#mask-0)"><path id="并集" fill-rule="evenodd" style="fill:#75777D" transform="translate(1 1)  rotate(0 8 8)" opacity="1" d="M4 2C4 0.9 3.1 0 2 0C0.9 0 0 0.9 0 2C0 3.1 0.9 4 2 4C2.36888 4 2.71527 3.89879 3.01277 3.72277L4.8385 5.5485C4.31287 6.22551 4 7.07605 4 8C4 8.79593 4.23218 9.53738 4.63253 10.1604L2.67498 12.1179C2.46388 12.0416 2.23656 12 2 12C0.9 12 0 12.9 0 14C0 15.1 0.9 16 2 16C3.1 16 4 15.1 4 14C4 13.5039 3.81692 13.0484 3.51499 12.6979L5.27969 10.9332C5.99332 11.5953 6.94918 12 8 12C9.05155 12 10.008 11.5947 10.7218 10.9318L12.4864 12.6964C12.1836 13.0471 12 13.5031 12 14C12 15.1 12.9 16 14 16C15.1 16 16 15.1 16 14C16 12.9 15.1 12 14 12C13.7642 12 13.5376 12.0413 13.3271 12.1171L11.3686 10.1586C11.7683 9.53599 12 8.79518 12 8C12 7.07679 11.6876 6.22688 11.1628 5.55013L12.9891 3.72384C13.2861 3.8992 13.6319 4 14 4C15.1 4 16 3.1 16 2C16 0.9 15.1 0 14 0C12.9 0 12 0.9 12 2C12 2.36963 12.1016 2.71668 12.2783 3.01458L10.4531 4.83976C9.77585 4.31337 8.92469 4 8 4C7.07605 4 6.22551 4.31287 5.5485 4.8385L3.72277 3.01277C3.89879 2.71527 4 2.36888 4 2Z M2 1C1.73 1 1.49 1.1 1.29 1.29C1.1 1.49 1 1.73 1 2C1 2.27 1.1 2.51 1.29 2.71C1.49 2.9 1.73 3 2 3C2.27 3 2.51 2.9 2.71 2.71C2.9 2.51 3 2.27 3 2C3 1.73 2.9 1.49 2.71 1.29C2.51 1.1 2.27 1 2 1Z M14.71 1.29C14.51 1.1 14.27 1 14 1C13.73 1 13.49 1.1 13.29 1.29C13.1 1.49 13 1.73 13 2C13 2.27 13.1 2.51 13.29 2.71C13.49 2.9 13.73 3 14 3C14.27 3 14.51 2.9 14.71 2.71C14.9 2.51 15 2.27 15 2C15 1.73 14.9 1.49 14.71 1.29Z M8 5Q7.385 5 6.83 5.24C6.47 5.39 6.16 5.6 5.88 5.88C5.6 6.16 5.39 6.47 5.24 6.83Q5 7.385 5 8Q5 8.615 5.24 9.17C5.39 9.53 5.6 9.84 5.88 10.12C6.16 10.4 6.47 10.61 6.83 10.76Q7.385 11 8 11Q8.615 11 9.17 10.76C9.53 10.61 9.84 10.4 10.12 10.12C10.4 9.84 10.61 9.53 10.76 9.17Q11 8.615 11 8Q11 7.385 10.76 6.83C10.61 6.47 10.4 6.16 10.12 5.88C9.84 5.6 9.53 5.39 9.17 5.24Q8.615 5 8 5Z M2 13C1.73 13 1.49 13.1 1.29 13.29C1.1 13.49 1 13.73 1 14C1 14.27 1.1 14.51 1.29 14.71C1.49 14.9 1.73 15 2 15C2.27 15 2.51 14.9 2.71 14.71C2.9 14.51 3 14.27 3 14C3 13.73 2.9 13.49 2.71 13.29C2.51 13.1 2.27 13 2 13Z M15 14C15 13.73 14.9 13.49 14.71 13.29C14.51 13.1 14.27 13 14 13C13.73 13 13.49 13.1 13.29 13.29C13.1 13.49 13 13.73 13 14C13 14.27 13.1 14.51 13.29 14.71C13.49 14.9 13.73 15 14 15C14.27 15 14.51 14.9 14.71 14.71C14.9 14.51 15 14.27 15 14Z " /></g></g></svg>