<!-- Copyright 2020 Tianshu AI Platform. All Rights Reserved.

Licensed under the Apache License, Version 2.0 (the "License");
you may not use this file except in compliance with the License.
You may obtain a copy of the License at

    http://www.apache.org/licenses/LICENSE-2.0

Unless required by applicable law or agreed to in writing, software
distributed under the License is distributed on an "AS IS" BASIS,
WITHOUT WARRANTIES OR CONDITIONS OF ANY KIND, either express or implied.
See the License for the specific language governing permissions and
limitations under the License.
=============================================================
-->

<svg width="126px" height="126px" viewBox="0 0 126 126" version="1.1" xmlns="http://www.w3.org/2000/svg" xmlns:xlink="http://www.w3.org/1999/xlink" fill="currentColor">
    <!-- Generator: Sketch 52.4 (67378) - http://www.bohemiancoding.com/sketch -->
    <g id="最终方案优化" stroke="none" stroke-width="1" fill-rule="evenodd">
        <g id="logo整理-copy-2" transform="translate(-753.000000, -166.000000)">
            <g id="分组-copy-14" transform="translate(753.000000, 166.000000)">
                <path d="M0.0406782707,40.619997 C0.0137543503,40.1417286 -1.42108547e-14,39.6448042 -1.42108547e-14,39.1286229 C-1.42108547e-14,17.5184812 17.5984282,4.26325641e-13 39.3071895,4.26325641e-13 C40.0091429,4.26325641e-13 42.02971,0.0183022323 44.558805,0.0586108394 C45.1561629,0.0196757221 45.7568232,-1.29196793e-13 46.3599724,-1.31450406e-13 L112.563782,-3.37507799e-13 C118.879831,-3.61107153e-13 124,5.12016937 124,11.4362184 C124,17.6458234 119.050956,22.6995172 112.882076,22.8680928 C106.154261,23.8442874 88.6040101,24.5163954 88.5249408,24.5794984 C51.2232584,27.4946939 28.2155689,41.5233393 22.986603,76.2172614 C22.9307909,76.5875713 22.8206584,76.9552982 22.6685723,77.3165102 C21.4090419,82.3066508 16.8903259,86 11.508982,86 C5.15274677,86 2.494005e-12,80.8472532 2.494005e-12,74.491018 L5.59552404e-12,40.9023784 C5.60434965e-12,40.8054576 0.0140311897,40.7104969 0.0406782707,40.619997 Z" id="合并形状-copy-3"></path>
                <path d="M2.04067827,80.619997 C2.01375435,80.1417286 2,79.6448042 2,79.1286229 C2,57.5184812 19.5984282,40 41.3071895,40 C42.0091429,40 44.02971,40.0183022 46.558805,40.0586108 C47.1561629,40.0196757 47.7568232,40 48.3599724,40 L114.563782,40 C120.879831,40 126,45.1201694 126,51.4362184 C126,57.6458234 121.050956,62.6995172 114.882076,62.8680928 C108.154261,63.8442874 90.6040101,64.5163954 90.5249408,64.5794984 C53.2232584,67.4946939 30.2155689,81.5233393 24.986603,116.217261 C24.9307909,116.587571 24.8206584,116.955298 24.6685723,117.31651 C23.4090419,122.306651 18.8903259,126 13.508982,126 C7.15274677,126 2,120.847253 2,114.491018 L2,80.9023784 C2,80.8054576 2.01403119,80.7104969 2.04067827,80.619997 Z" id="合并形状-copy-4" transform="translate(64.000000, 83.000000) scale(-1, -1) translate(-64.000000, -83.000000) "></path>
                <circle id="椭圆形-copy-5" cx="63" cy="63" r="15"></circle>
            </g>
        </g>
    </g>
</svg>