<svg xmlns="http://www.w3.org/2000/svg" xmlns:xlink="http://www.w3.org/1999/xlink" width="18" height="18" viewBox="0 0 18 18" fill="none"><defs><path id="path_0"
        transform="translate(0 0) rotate(0 9 9)"
        d="M0,18L18,18L18,0L0,0L0,18Z" /></defs><g opacity="1" transform="translate(0 0)  rotate(0 9 9)"><g opacity="1" transform="translate(0 0)  rotate(0 9 9)"><mask id="mask-0" fill="white"><use xlink:href="#path_0"></use></mask><g mask="url(#mask-0)"></g><g mask="url(#mask-0)"><path id="并集" fill-rule="evenodd" style="fill:#75777D" transform="translate(1 1.0004158020019531)  rotate(0 8 7.999584197998047)" opacity="1" d="M1.5 9.4C0.6 9.92 0 10.89 0 12C0 13.66 1.34 15 3 15C3.42 15 3.82 14.91 4.18 14.76C5.26 15.54 6.57 16 8 16C9.43 16 10.74 15.54 11.82 14.76C12.18 14.91 12.58 15 13 15C14.66 15 16 13.66 16 12C16 10.89 15.4 9.92 14.5 9.4C14.46 6.9 13.02 4.75 10.92 3.69C10.97 3.47 11 3.24 11 3C11 1.34 9.66 0 8 0C6.34 0 5 1.34 5 3C5 3.24 5.03 3.47 5.08 3.69C2.98 4.75 1.54 6.9 1.5 9.4ZM8 1C8.27 1 8.53 1.05 8.78 1.16C9.02 1.26 9.23 1.4 9.42 1.58C9.6 1.77 9.74 1.98 9.84 2.22C9.95 2.47 10 2.73 10 3C10 3.27 9.95 3.53 9.84 3.78C9.74 4.02 9.6 4.23 9.42 4.42C9.23 4.6 9.02 4.74 8.78 4.84C8.53 4.95 8.27 5 8 5C7.73 5 7.47 4.95 7.22 4.84C6.98 4.74 6.77 4.6 6.58 4.42C6.4 4.23 6.26 4.02 6.16 3.78C6.05 3.53 6 3.27 6 3C6 2.73 6.05 2.47 6.16 2.22C6.26 1.98 6.4 1.77 6.58 1.58C6.77 1.4 6.98 1.26 7.22 1.16C7.47 1.05 7.73 1 8 1ZM10 12C10 10.34 11.34 9 13 9C13.16 9 13.33 9.01 13.48 9.04C13.44 8.46 13.3 7.9 13.07 7.36C12.79 6.7 12.4 6.12 11.89 5.61C11.48 5.2 11.03 4.87 10.53 4.61C10 5.45 9.07 6 8 6C6.93 6 6 5.45 5.47 4.61C4.97 4.87 4.52 5.2 4.11 5.61C3.6 6.12 3.21 6.7 2.93 7.36C2.7 7.9 2.56 8.46 2.52 9.04C2.67 9.01 2.84 9 3 9C4.66 9 6 10.34 6 12C6 12.85 5.65 13.62 5.08 14.16C5.33 14.32 5.59 14.46 5.86 14.57C6.54 14.86 7.25 15 8 15C8.75 15 9.46 14.86 10.14 14.57C10.41 14.46 10.67 14.32 10.92 14.16C10.35 13.62 10 12.85 10 12ZM1.58 10.58C1.77 10.4 1.98 10.26 2.22 10.16C2.47 10.05 2.73 10 3 10C3.27 10 3.53 10.05 3.78 10.16C4.02 10.26 4.23 10.4 4.42 10.58C4.6 10.77 4.74 10.98 4.84 11.22C4.95 11.47 5 11.73 5 12C5 12.27 4.95 12.53 4.84 12.78C4.74 13.02 4.6 13.23 4.42 13.42C4.23 13.6 4.02 13.74 3.78 13.84C3.53 13.95 3.27 14 3 14C2.73 14 2.47 13.95 2.22 13.84C1.98 13.74 1.77 13.6 1.58 13.42C1.4 13.23 1.26 13.02 1.16 12.78C1.05 12.53 1 12.27 1 12C1 11.73 1.05 11.47 1.16 11.22C1.26 10.98 1.4 10.77 1.58 10.58ZM15 12C15 12.27 14.95 12.53 14.84 12.78C14.74 13.02 14.6 13.23 14.42 13.42C14.23 13.6 14.02 13.74 13.78 13.84C13.53 13.95 13.27 14 13 14C12.73 14 12.47 13.95 12.22 13.84C11.98 13.74 11.77 13.6 11.58 13.42C11.4 13.23 11.26 13.02 11.16 12.78C11.05 12.53 11 12.27 11 12C11 11.73 11.05 11.47 11.16 11.22C11.26 10.98 11.4 10.77 11.58 10.58C11.77 10.4 11.98 10.26 12.22 10.16C12.47 10.05 12.73 10 13 10C13.27 10 13.53 10.05 13.78 10.16C14.02 10.26 14.23 10.4 14.42 10.58C14.6 10.77 14.74 10.98 14.84 11.22C14.95 11.47 15 11.73 15 12Z" /></g></g></g></svg>