<svg xmlns="http://www.w3.org/2000/svg" xmlns:xlink="http://www.w3.org/1999/xlink" width="18" height="18" viewBox="0 0 18 18" fill="none"><defs><path id="path_0"
        transform="translate(0 0) rotate(0 9 9)"
        d="M0,18L18,18L18,0L0,0L0,18Z" /></defs><g opacity="1" transform="translate(0 0)  rotate(0 9 9)"><mask id="mask-0" fill="white"><use xlink:href="#path_0"></use></mask><g mask="url(#mask-0)"></g><g mask="url(#mask-0)"><path id="并集" fill-rule="evenodd" style="fill:#2E4FDE" transform="translate(1 1)  rotate(0 8 8)" opacity="1" d="M10.92 3.69C10.97 3.47 11 3.24 11 3C11 1.34 9.66 0 8 0C6.34 0 5 1.34 5 3C5 3.24 5.03 3.47 5.08 3.69C2.98 4.75 1.54 6.9 1.5 9.4C0.6 9.92 0 10.89 0 12C0 13.66 1.34 15 3 15C3.42 15 3.82 14.91 4.18 14.76C5.25 15.54 6.57 16 8 16C9.43 16 10.75 15.54 11.82 14.76C12.18 14.91 12.58 15 13 15C14.66 15 16 13.66 16 12C16 10.89 15.4 9.92 14.5 9.4C14.46 6.9 13.02 4.75 10.92 3.69ZM8 15C7.25 15 6.54 14.86 5.86 14.57C5.59 14.45 5.33 14.32 5.08 14.16C5.65 13.62 6 12.85 6 12C6 10.34 4.66 9 3 9C2.84 9 2.68 9.01 2.52 9.04C2.56 8.46 2.7 7.9 2.93 7.36C3.21 6.7 3.6 6.12 4.11 5.61C4.52 5.2 4.97 4.87 5.47 4.61C6 5.45 6.93 6 8 6C9.07 6 10 5.45 10.53 4.61C11.03 4.87 11.48 5.2 11.89 5.61C12.4 6.12 12.79 6.7 13.07 7.36C13.3 7.9 13.44 8.46 13.48 9.04C13.33 9.01 13.16 9 13 9C11.34 9 10 10.34 10 12C10 12.85 10.35 13.62 10.92 14.16C10.67 14.32 10.41 14.45 10.14 14.57C9.46 14.86 8.75 15 8 15Z" /></g></g></svg>