<svg xmlns="http://www.w3.org/2000/svg" xmlns:xlink="http://www.w3.org/1999/xlink" width="18" height="18" viewBox="0 0 18 18" fill="none"><defs><path id="path_0"
        transform="translate(0 0) rotate(0 9 9)"
        d="M0,18L18,18L18,0L0,0L0,18Z" /></defs><g opacity="1" transform="translate(0 0)  rotate(0 9 9)"><mask id="mask-0" fill="white"><use xlink:href="#path_0"></use></mask><g mask="url(#mask-0)"></g><g mask="url(#mask-0)"><path id="并集" fill-rule="evenodd" style="fill:#75777D" transform="translate(1.0936622619628906 1.0350446701049805)  rotate(0 7.906337738037109 7.9649553298950195)" opacity="1" d="M7.91 10.44C7.73 10.43 7.57 10.39 7.43 10.3L0.42 5.99L0.41 5.98C0.28 5.9 0.18 5.79 0.11 5.65C0.03 5.52 -0.01 5.37 0 5.22C-0.01 5.07 0.03 4.92 0.11 4.79C0.18 4.65 0.28 4.54 0.42 4.45L7.43 0.14C7.57 0.05 7.73 0.01 7.91 0C8.08 0.01 8.24 0.05 8.39 0.14L15.4 4.45C15.53 4.54 15.64 4.65 15.71 4.79C15.78 4.92 15.82 5.07 15.81 5.22C15.82 5.37 15.78 5.52 15.71 5.65C15.64 5.79 15.53 5.9 15.39 5.99L8.39 10.3C8.24 10.39 8.08 10.44 7.91 10.44ZM7.91 1.02L14.74 5.22L7.91 9.42L1.08 5.22L7.91 1.02ZM12.05 10.75L14 9.56L14.97 8.96L15.45 8.67C15.49 8.65 15.51 8.62 15.53 8.6L15.6 8.53L15.64 8.45C15.66 8.42 15.67 8.39 15.68 8.36C15.69 8.32 15.69 8.28 15.69 8.26L15.69 8.16C15.68 8.13 15.67 8.09 15.66 8.07C15.65 8.03 15.64 8 15.62 7.97C15.6 7.95 15.58 7.92 15.56 7.9C15.54 7.87 15.52 7.85 15.48 7.83C15.46 7.81 15.43 7.8 15.4 7.78L15.31 7.75C15.28 7.74 15.25 7.74 15.21 7.73C15.18 7.74 15.15 7.74 15.11 7.75C15.08 7.75 15.05 7.75 15.02 7.77C14.99 7.78 14.96 7.79 14.94 7.81L15.31 8.44L14.93 7.8L14.45 8.1L13.47 8.69L11.53 9.89L7.9 12.13L4.27 9.89L2.33 8.69L1.35 8.1L0.88 7.81L0.49 8.44L0.86 7.81C0.82 7.78 0.75 7.75 0.69 7.75C0.62 7.73 0.56 7.73 0.49 7.75C0.43 7.77 0.37 7.8 0.32 7.83C0.26 7.87 0.22 7.92 0.18 7.97C0.16 8 0.15 8.03 0.14 8.07C0.13 8.09 0.12 8.13 0.12 8.16C0.11 8.19 0.11 8.23 0.11 8.26C0.11 8.28 0.12 8.32 0.12 8.36C0.13 8.39 0.14 8.42 0.16 8.45L0.2 8.53L0.27 8.6C0.29 8.62 0.31 8.65 0.35 8.67L0.83 8.96L1.81 9.56L3.75 10.75L7.42 13.01C7.57 13.1 7.72 13.14 7.9 13.15C8.08 13.14 8.23 13.1 8.38 13.01L12.05 10.75ZM0.12 10.94C0.11 10.97 0.11 11.01 0.11 11.04C0.11 11.07 0.12 11.1 0.13 11.14L0.16 11.23L0.21 11.31L0.28 11.38C0.3 11.4 0.32 11.43 0.35 11.45L0.84 11.74L1.81 12.34L3.76 13.53L7.43 15.79C7.57 15.88 7.73 15.92 7.91 15.93C8.08 15.92 8.24 15.88 8.39 15.79L12.06 13.53L14 12.34L14.98 11.74L15.46 11.45C15.49 11.43 15.51 11.4 15.54 11.38L15.61 11.31L15.65 11.23C15.66 11.2 15.68 11.17 15.68 11.14C15.69 11.1 15.7 11.07 15.7 11.04C15.7 11.01 15.7 10.97 15.69 10.94C15.68 10.91 15.68 10.87 15.66 10.85C15.66 10.81 15.64 10.78 15.63 10.75C15.61 10.73 15.59 10.7 15.56 10.68C15.54 10.65 15.52 10.63 15.49 10.61C15.47 10.59 15.44 10.58 15.41 10.56C15.38 10.55 15.34 10.54 15.32 10.53C15.28 10.52 15.25 10.52 15.22 10.51C15.18 10.52 15.15 10.52 15.12 10.53C15.09 10.53 15.06 10.53 15.03 10.55C14.99 10.56 14.96 10.57 14.94 10.59L15.32 11.22L14.93 10.58L14.45 10.88L13.48 11.48L11.53 12.67L7.91 14.91L4.28 12.67L2.33 11.48L1.36 10.88L0.88 10.59L0.5 11.22L0.87 10.59C0.82 10.56 0.76 10.53 0.69 10.53C0.62 10.51 0.57 10.51 0.5 10.53C0.43 10.55 0.38 10.58 0.33 10.61C0.27 10.65 0.23 10.7 0.18 10.75C0.17 10.78 0.16 10.81 0.15 10.85C0.14 10.87 0.13 10.91 0.12 10.94Z" /></g></g></svg>