<svg xmlns="http://www.w3.org/2000/svg" xmlns:xlink="http://www.w3.org/1999/xlink" width="18" height="18" viewBox="0 0 18 18" fill="none"><defs><path id="path_0"
        transform="translate(0 0) rotate(0 9 9)"
        d="M0,18L18,18L18,0L0,0L0,18Z" /></defs><g opacity="1" transform="translate(0 0)  rotate(0 9 9)"><mask id="mask-0" fill="white"><use xlink:href="#path_0"></use></mask><g mask="url(#mask-0)"></g><g mask="url(#mask-0)"><path id="并集" fill-rule="evenodd" style="fill:#2E4FDE" transform="translate(1 1)  rotate(0 8 8)" opacity="1" d="M10.33,8.35C11.63,7.56 12.5,6.13 12.5,4.5C12.5,2.01 10.49,0 8,0C5.51,0 3.5,2.01 3.5,4.5C3.5,6.13 4.37,7.56 5.67,8.35C5.42,8.43 5.18,8.51 4.94,8.61C3.97,9.01 3.09,9.6 2.34,10.34C1.6,11.09 1.01,11.97 0.61,12.94C0.53,13.14 0.45,13.35 0.38,13.56C0.23,14.03 0.12,14.51 0.06,15C0.02,15.33 0,15.67 0,16L16,16C16,15.67 15.98,15.33 15.94,15C15.88,14.51 15.77,14.03 15.62,13.56C15.55,13.35 15.47,13.14 15.39,12.94C14.99,11.97 14.4,11.09 13.66,10.34C12.91,9.6 12.03,9.01 11.06,8.61C10.82,8.51 10.58,8.43 10.33,8.35Z " /></g></g></svg>