<svg xmlns="http://www.w3.org/2000/svg" xmlns:xlink="http://www.w3.org/1999/xlink" width="18" height="18" viewBox="0 0 18 18" fill="none"><defs><path id="path_0"
        transform="translate(0 0) rotate(0 9 9)"
        d="M0,18L18,18L18,0L0,0L0,18Z" /></defs><g opacity="1" transform="translate(0 0)  rotate(0 9 9)"><mask id="mask-0" fill="white"><use xlink:href="#path_0"></use></mask><g mask="url(#mask-0)"></g><g mask="url(#mask-0)"><path id="并集" fill-rule="evenodd" style="fill:#75777D" transform="translate(1.0349998474121094 1.1162500381469727)  rotate(0 7.965000152587891 7.883749961853027)" opacity="1" d="M7.96389 0C10.4539 0 12.4639 2.01 12.4639 4.5C12.4639 6.13275 11.5997 7.55911 10.3025 8.34771C10.5447 8.42278 10.7838 8.51017 11.02 8.61C12.01 9.02 12.88 9.6 13.62 10.35C14.38 11.1 14.96 11.97 15.35 12.94C15.54 13.39 15.7 13.89 15.81 14.44C15.85 14.61 15.88 14.86 15.93 15.2L15.25 15.28L15.93 15.22C15.93 15.28 15.93 15.35 15.91 15.41C15.89 15.47 15.86 15.53 15.81 15.58C15.77 15.63 15.72 15.67 15.66 15.71C15.61 15.74 15.54 15.76 15.48 15.76C15.41 15.77 15.35 15.76 15.28 15.74C15.22 15.72 15.16 15.69 15.11 15.65C15.06 15.61 15.02 15.56 14.99 15.5C14.96 15.44 14.94 15.38 14.93 15.31C14.89 15.01 14.86 14.79 14.83 14.64C14.73 14.16 14.6 13.72 14.43 13.32C14.08 12.47 13.58 11.72 12.92 11.05C12.26 10.4 11.5 9.89 10.64 9.53C9.79 9.18 8.9 9 7.96 9C7.02 9 6.13 9.18 5.28 9.53C4.43 9.89 3.67 10.4 3.01 11.06C2.36 11.7 1.86 12.45 1.49 13.32C1.31 13.77 1.18 14.22 1.1 14.64C1.05 14.89 1.01 15.11 1 15.3L0.18 15.23L1 15.31C0.99 15.35 0.99 15.38 0.98 15.41C0.97 15.44 0.96 15.47 0.94 15.5C0.93 15.53 0.91 15.56 0.89 15.58C0.87 15.61 0.84 15.63 0.82 15.65C0.79 15.67 0.76 15.69 0.74 15.71L0.65 15.74C0.61 15.75 0.58 15.76 0.55 15.76C0.52 15.77 0.48 15.77 0.45 15.76C0.42 15.76 0.39 15.75 0.36 15.74C0.32 15.73 0.29 15.72 0.26 15.71C0.24 15.69 0.21 15.67 0.18 15.65L0.11 15.58C0.09 15.56 0.08 15.53 0.06 15.5C0.04 15.47 0.03 15.44 0.02 15.41C0.01 15.38 0.01 15.35 0 15.32L0 15.22C0.02 14.98 0.06 14.72 0.12 14.44Q0.255 13.72 0.57 12.94C0.98 11.94 1.56 11.08 2.31 10.34C3.06 9.59 3.92 9.02 4.9 8.61C5.13787 8.50946 5.37874 8.42154 5.62262 8.34611C4.32697 7.55718 3.46389 6.13164 3.46389 4.5C3.46389 2.01 5.47389 0 7.96389 0Z M11.1939 5.86C11.0139 6.28 10.7639 6.65 10.4439 6.98C10.1139 7.3 9.74389 7.55 9.32389 7.73C8.89389 7.91 8.44389 8 7.96389 8C7.48389 8 7.03389 7.91 6.60389 7.73C6.18389 7.55 5.81389 7.3 5.48389 6.98C5.16389 6.65 4.91389 6.28 4.73389 5.86C4.55389 5.43 4.46389 4.98 4.46389 4.5C4.46389 4.02 4.55389 3.57 4.73389 3.14C4.91389 2.72 5.16389 2.35 5.48389 2.02C5.81389 1.7 6.18389 1.45 6.60389 1.27C7.03389 1.09 7.48389 1 7.96389 1C8.44389 1 8.89389 1.09 9.32389 1.27C9.74389 1.45 10.1139 1.7 10.4439 2.02C10.7639 2.35 11.0139 2.72 11.1939 3.14C11.3739 3.57 11.4639 4.02 11.4639 4.5C11.4639 4.98 11.3739 5.43 11.1939 5.86Z " /></g></g></svg>