<svg xmlns="http://www.w3.org/2000/svg" xmlns:xlink="http://www.w3.org/1999/xlink" width="18" height="18" viewBox="0 0 18 18" fill="none"><defs><path id="path_0"
        transform="translate(0 0) rotate(0 9 9)"
        d="M0,18L18,18L18,0L0,0L0,18Z" /></defs><g opacity="1" transform="translate(0 0)  rotate(0 9 9)"><mask id="mask-0" fill="white"><use xlink:href="#path_0"></use></mask><g mask="url(#mask-0)"></g><g mask="url(#mask-0)"><path id="并集" fill-rule="evenodd" style="fill:#2E4FDE" transform="translate(1 2.25)  rotate(0 8 6.75)" opacity="1" d="M13.5 4C13.5 5.41 12.77 6.66 11.66 7.37C11.77 7.4 11.88 7.45 11.99 7.49C12.78 7.82 13.49 8.3 14.1 8.9C14.7 9.51 15.18 10.22 15.51 11.01C15.83 11.8 16 12.65 16 13.5L3 13.5C3 12.65 3.17 11.8 3.49 11.01C3.82 10.22 4.3 9.51 4.9 8.9C5.51 8.3 6.22 7.82 7.01 7.49C7.12 7.45 7.23 7.4 7.34 7.37C6.23 6.66 5.5 5.41 5.5 4C5.5 1.79 7.29 0 9.5 0C11.71 0 13.5 1.79 13.5 4ZM5.69 7.46C5.72 7.45 5.75 7.43 5.78 7.42C5.81 7.4 5.83 7.38 5.85 7.35C5.88 7.33 5.9 7.31 5.92 7.28C5.93 7.25 5.95 7.22 5.96 7.19L5.99 7.1C6 7.07 6 7.03 6 7C6 6.97 6 6.93 5.99 6.9L5.96 6.81C5.95 6.78 5.93 6.75 5.92 6.72C5.9 6.69 5.88 6.67 5.85 6.65C5.83 6.62 5.81 6.6 5.78 6.58C5.75 6.57 5.72 6.55 5.69 6.54L5.6 6.51C5.57 6.5 5.53 6.5 5.5 6.5C5.37 6.5 5.24 6.5 5.11 6.51L5.1 6.51C5.07 6.5 5.03 6.5 5 6.5C4.66 6.5 4.33 6.43 4.03 6.3C3.73 6.18 3.46 6 3.23 5.77C3 5.54 2.82 5.27 2.7 4.97C2.57 4.67 2.5 4.34 2.5 4C2.5 3.66 2.57 3.33 2.7 3.03C2.82 2.73 3 2.46 3.23 2.23C3.46 2 3.73 1.82 4.03 1.7C4.33 1.57 4.66 1.5 5 1.5C5.03 1.5 5.07 1.5 5.1 1.49L5.19 1.46C5.22 1.45 5.25 1.43 5.28 1.42C5.31 1.4 5.33 1.38 5.35 1.35C5.38 1.33 5.4 1.31 5.42 1.28C5.43 1.25 5.45 1.22 5.46 1.19L5.49 1.1C5.5 1.07 5.5 1.03 5.5 1C5.5 0.97 5.5 0.93 5.49 0.9L5.46 0.81C5.45 0.78 5.43 0.75 5.42 0.72C5.4 0.69 5.38 0.67 5.35 0.65C5.33 0.62 5.31 0.6 5.28 0.58C5.25 0.57 5.22 0.55 5.19 0.54L5.1 0.51C5.07 0.5 5.03 0.5 5 0.5C4.52 0.5 4.07 0.59 3.64 0.77C3.22 0.95 2.85 1.2 2.52 1.52C2.2 1.85 1.95 2.22 1.77 2.64C1.59 3.07 1.5 3.52 1.5 4C1.5 4.48 1.59 4.93 1.77 5.36C1.95 5.78 2.2 6.15 2.52 6.48C2.73 6.68 2.96 6.86 3.2 7.01C2.62 7.27 2.09 7.64 1.6 8.11C1.08 8.64 0.69 9.24 0.42 9.9Q0 10.905 0 12C0 12.03 0 12.07 0.01 12.1L0.04 12.19C0.05 12.22 0.07 12.25 0.08 12.28C0.1 12.31 0.12 12.33 0.15 12.35C0.17 12.38 0.19 12.4 0.22 12.42C0.25 12.43 0.28 12.45 0.31 12.46L0.4 12.49C0.43 12.5 0.47 12.5 0.5 12.5C0.53 12.5 0.57 12.5 0.6 12.49L0.69 12.46C0.72 12.45 0.75 12.43 0.78 12.42C0.81 12.4 0.83 12.38 0.85 12.35C0.88 12.33 0.9 12.31 0.92 12.28C0.93 12.25 0.95 12.22 0.96 12.19L0.99 12.1C1 12.07 1 12.03 1 12C1 11.4 1.11 10.83 1.34 10.28C1.57 9.74 1.89 9.25 2.32 8.81C2.75 8.39 3.24 8.07 3.78 7.84C4.33 7.61 4.9 7.5 5.5 7.5C5.53 7.5 5.57 7.5 5.6 7.49L5.69 7.46Z" /></g></g></svg>