<svg xmlns="http://www.w3.org/2000/svg" xmlns:xlink="http://www.w3.org/1999/xlink" width="18" height="18" viewBox="0 0 18 18" fill="none"><defs><path id="path_0"
        transform="translate(0 0) rotate(0 9 9)"
        d="M0,18L18,18L18,0L0,0L0,18Z" /></defs><g opacity="1" transform="translate(0 0)  rotate(0 9 9)"><mask id="mask-0" fill="white"><use xlink:href="#path_0"></use></mask><g mask="url(#mask-0)"></g><g mask="url(#mask-0)"><path id="并集" fill-rule="evenodd" style="fill:#2E4FDE" transform="translate(0.9999999833798938 0.9995714974497787)  rotate(0 8.000000016620177 8.000428502550223)" opacity="1" d="M7 5C7 6.1 6.1 7 5 7L2 7C0.9 7 0 6.1 0 5L0 2C0 0.9 0.9 0 2 0L5 0C6.1 0 7 0.9 7 2L7 5Z M8.58718 2.03079C8.78718 2.05079 8.97718 2.07079 9.16718 2.11079C9.57718 2.20079 9.95718 2.31079 10.2972 2.45079C11.0272 2.75079 11.6772 3.19079 12.2472 3.75079C12.8072 4.31079 13.2372 4.96079 13.5472 5.70079C13.5572 5.73079 13.5772 5.76079 13.5872 5.79079C13.6072 5.82079 13.6272 5.84079 13.6572 5.86079C13.6772 5.89079 13.6972 5.91079 13.7272 5.93079C13.7572 5.95079 13.7872 5.96079 13.8172 5.97079C13.8472 5.99079 13.8772 6.00079 13.9072 6.00079C13.9372 6.01079 13.9772 6.01079 14.0072 6.01079C14.0372 6.01079 14.0772 6.01079 14.1072 6.00079C14.1372 6.00079 14.1672 5.99079 14.1972 5.97079C14.2272 5.96079 14.2572 5.95079 14.2872 5.93079C14.3072 5.91079 14.3372 5.89079 14.3572 5.86079C14.3872 5.84079 14.4072 5.82079 14.4272 5.79079C14.4372 5.76079 14.4572 5.73079 14.4672 5.70079L14.4972 5.61079C14.5072 5.58079 14.5072 5.54079 14.5072 5.51079C14.5072 5.48079 14.5072 5.45079 14.4972 5.41079L14.4672 5.32079C14.1072 4.46079 13.6072 3.70079 12.9472 3.05079C12.2872 2.39079 11.5372 1.88079 10.6772 1.53079C10.2772 1.36079 9.84718 1.23079 9.36718 1.13079L9.35718 1.13079C9.13718 1.09079 8.90718 1.05079 8.68718 1.03079C8.61718 1.03079 8.55718 1.03079 8.48718 1.05079C8.42718 1.07079 8.36718 1.10079 8.31718 1.14079C8.26718 1.19079 8.22718 1.24079 8.19718 1.29079C8.16718 1.35079 8.14718 1.42079 8.13718 1.48079C8.13718 1.55079 8.13718 1.61079 8.15718 1.68079C8.17718 1.74079 8.20718 1.80079 8.24718 1.85079Q8.32218 1.92579 8.39718 1.97079C8.45718 2.00079 8.52718 2.02079 8.58718 2.03079Z M16 12C16 13.1 15.1 14 14 14L11 14C9.9 14 9 13.1 9 12L9 9C9 7.9 9.9 7 11 7L14 7C15.1 7 16 7.9 16 9L16 12Z M0.31 8.96C0.28 8.95 0.25 8.93 0.22 8.92C0.19 8.9 0.17 8.88 0.15 8.85C0.12 8.83 0.1 8.81 0.08 8.78C0.07 8.75 0.05 8.72 0.04 8.69L0.01 8.6C0 8.57 0 8.53 0 8.5C0 8.47 0 8.43 0.01 8.4L0.04 8.31C0.05 8.28 0.07 8.25 0.08 8.22C0.1 8.19 0.12 8.17 0.15 8.15C0.17 8.12 0.19 8.1 0.22 8.08C0.25 8.07 0.28 8.05 0.31 8.04L0.4 8.01C0.43 8 0.47 8 0.5 8L6.5 8C6.57 8 6.63 8.01 6.69 8.04C6.75 8.06 6.81 8.1 6.85 8.15C6.9 8.19 6.94 8.25 6.96 8.31C6.99 8.37 7 8.43 7 8.5C7 8.53 7 8.57 6.99 8.6L6.96 8.69C6.95 8.72 6.93 8.75 6.92 8.78C6.9 8.81 6.88 8.83 6.85 8.85C6.83 8.88 6.81 8.9 6.78 8.92C6.75 8.93 6.72 8.95 6.69 8.96C6.66 8.98 6.63 8.98 6.6 8.99C6.57 9 6.53 9 6.5 9L0.5 9C0.47 9 0.43 9 0.4 8.99L0.31 8.96Z M2.35 10.14C2.31 10.09 2.25 10.05 2.19 10.03C2.13 10 2.07 9.99 2 9.99C1.93 9.99 1.87 10 1.81 10.03C1.75 10.05 1.69 10.09 1.65 10.14C1.6 10.18 1.56 10.24 1.54 10.3C1.51 10.36 1.5 10.42 1.5 10.49C1.5 10.56 1.51 10.62 1.54 10.68C1.9 11.54 2.4 12.3 3.06 12.95C3.72 13.61 4.47 14.12 5.33 14.47C5.73 14.64 6.16 14.77 6.64 14.87L6.65 14.87C6.87 14.91 7.1 14.95 7.32 14.97L7.42 14.97C7.45 14.97 7.48 14.96 7.52 14.95C7.55 14.94 7.58 14.93 7.61 14.91C7.63 14.9 7.66 14.88 7.69 14.86L7.76 14.79C7.78 14.76 7.8 14.74 7.81 14.71C7.83 14.68 7.84 14.65 7.85 14.62C7.86 14.58 7.86 14.55 7.87 14.52C7.87 14.45 7.87 14.39 7.85 14.33C7.83 14.26 7.8 14.2 7.76 14.15C7.71 14.1 7.66 14.06 7.6 14.03C7.55 14 7.48 13.98 7.42 13.97C7.22 13.95 7.03 13.93 6.84 13.89C6.43 13.8 6.05 13.69 5.71 13.55C4.98 13.25 4.33 12.81 3.76 12.25C3.2 11.69 2.77 11.04 2.46 10.3C2.44 10.24 2.4 10.18 2.35 10.14Z M15.78 15.92C15.75 15.93 15.72 15.95 15.69 15.96C15.66 15.98 15.63 15.98 15.6 15.99C15.57 16 15.53 16 15.5 16L9.5 16C9.47 16 9.43 16 9.4 15.99L9.31 15.96C9.28 15.95 9.25 15.93 9.22 15.92C9.19 15.9 9.17 15.88 9.15 15.85C9.12 15.83 9.1 15.81 9.08 15.78C9.07 15.75 9.05 15.72 9.04 15.69L9.01 15.6C9 15.57 9 15.53 9 15.5C9 15.47 9 15.43 9.01 15.4L9.04 15.31C9.05 15.28 9.07 15.25 9.08 15.22C9.1 15.19 9.12 15.17 9.15 15.15C9.17 15.12 9.19 15.1 9.22 15.08C9.25 15.07 9.28 15.05 9.31 15.04L9.4 15.01C9.43 15 9.47 15 9.5 15L15.5 15C15.57 15 15.63 15.01 15.69 15.04C15.75 15.06 15.81 15.1 15.85 15.15C15.9 15.19 15.94 15.25 15.96 15.31C15.99 15.37 16 15.43 16 15.5C16 15.53 16 15.57 15.99 15.6L15.96 15.69C15.95 15.72 15.93 15.75 15.92 15.78C15.9 15.81 15.88 15.83 15.85 15.85C15.83 15.88 15.81 15.9 15.78 15.92Z " /></g></g></svg>