<svg xmlns="http://www.w3.org/2000/svg" xmlns:xlink="http://www.w3.org/1999/xlink" width="18" height="18" viewBox="0 0 18 18" fill="none"><defs><path id="path_0"
        transform="translate(0 0) rotate(0 9 9)"
        d="M0,18L18,18L18,0L0,0L0,18Z" /></defs><g opacity="1" transform="translate(0 0)  rotate(0 9 9)"><mask id="mask-0" fill="white"><use xlink:href="#path_0"></use></mask><g mask="url(#mask-0)"></g><g mask="url(#mask-0)"><path id="并集" fill-rule="evenodd" style="fill:#2E4FDE" transform="translate(1 1)  rotate(0 8 8)" opacity="1" d="M4.07 3.16C3.79 3.6 3.59 4.08 3.47 4.59L3.4 4.85L3.15 4.94C2.51 5.17 2 5.56 1.6 6.11Q1 6.95 1 8C1 8.44 1.09 8.86 1.26 9.26C1.42 9.65 1.65 10 1.95 10.3C2.25 10.6 2.6 10.83 2.99 10.99C3.39 11.16 3.81 11.25 4.25 11.25C4.28 11.25 4.32 11.25 4.35 11.26L4.44 11.29C4.47 11.3 4.5 11.32 4.53 11.33C4.56 11.35 4.58 11.37 4.6 11.4C4.63 11.42 4.65 11.44 4.67 11.47C4.68 11.5 4.7 11.53 4.71 11.56L4.74 11.65C4.75 11.68 4.75 11.72 4.75 11.75C4.75 11.78 4.75 11.82 4.74 11.85L4.71 11.94C4.7 11.97 4.68 12 4.67 12.03C4.65 12.06 4.63 12.08 4.6 12.1C4.58 12.13 4.56 12.15 4.53 12.17C4.5 12.18 4.47 12.2 4.44 12.21L4.35 12.24C4.32 12.25 4.28 12.25 4.25 12.25Q3.38 12.25 2.6 11.92C2.09 11.7 1.64 11.4 1.25 11C0.85 10.61 0.55 10.16 0.33 9.65Q0 8.87 0 8C0 7.09 0.26 6.26 0.79 5.53C1.25 4.88 1.84 4.4 2.56 4.1C2.71 3.57 2.93 3.08 3.23 2.62C3.56 2.09 3.98 1.63 4.46 1.24C4.96 0.84 5.5 0.54 6.09 0.33C6.71 0.11 7.34 0 8 0C8.66 0 9.29 0.11 9.91 0.33C10.5 0.54 11.04 0.84 11.54 1.24C12.02 1.63 12.44 2.09 12.77 2.62C13.07 3.08 13.29 3.57 13.44 4.1C14.16 4.4 14.75 4.88 15.21 5.53C15.74 6.26 16 7.09 16 8Q16 8.87 15.67 9.65C15.45 10.16 15.15 10.61 14.75 11C14.36 11.4 13.91 11.7 13.4 11.92Q12.62 12.25 11.75 12.25C11.72 12.25 11.68 12.25 11.65 12.24L11.56 12.21C11.53 12.2 11.5 12.18 11.47 12.17C11.44 12.15 11.42 12.13 11.4 12.1C11.37 12.08 11.35 12.06 11.33 12.03C11.32 12 11.3 11.97 11.29 11.94L11.26 11.85C11.25 11.82 11.25 11.78 11.25 11.75C11.25 11.72 11.25 11.68 11.26 11.65L11.29 11.56C11.3 11.53 11.32 11.5 11.33 11.47C11.35 11.44 11.37 11.42 11.4 11.4C11.42 11.37 11.44 11.35 11.47 11.33C11.5 11.32 11.53 11.3 11.56 11.29L11.65 11.26C11.68 11.25 11.72 11.25 11.75 11.25C12.19 11.25 12.61 11.16 13.01 10.99C13.4 10.83 13.75 10.6 14.05 10.3C14.35 10 14.58 9.65 14.74 9.26C14.91 8.86 15 8.44 15 8Q15 6.95 14.4 6.11C14 5.56 13.49 5.17 12.85 4.94L12.6 4.85L12.53 4.59C12.41 4.08 12.21 3.6 11.93 3.16C11.65 2.72 11.31 2.34 10.91 2.02C10.5 1.69 10.06 1.44 9.57 1.27C9.07 1.09 8.54 1 8 1C7.46 1 6.93 1.09 6.43 1.27C5.94 1.44 5.5 1.69 5.09 2.02Q4.49 2.5 4.07 3.16Z M12.41 9.41C12.04 9.79 11.53 10 11 10L8.4995 10L8.4995 12.0636C9.1999 12.2453 9.75435 12.7997 9.93631 13.5L12.085 13.5C12.2904 12.9167 12.8454 12.5 13.5 12.5C14.33 12.5 15 13.17 15 14C15 14.83 14.33 15.5 13.5 15.5C12.8454 15.5 12.2904 15.0833 12.085 14.5L9.93631 14.5C9.71284 15.3601 8.92752 16 8 16C7.07248 16 6.28716 15.3601 6.06369 14.5L3.91503 14.5C3.70965 15.0833 3.15458 15.5 2.5 15.5C1.67 15.5 1 14.83 1 14C1 13.17 1.67 12.5 2.5 12.5C3.15458 12.5 3.70965 12.9167 3.91503 13.5L6.06369 13.5C6.24556 12.8 6.79957 12.2459 7.4995 12.0638L7.4995 10L5 10C4.47 10 3.96 9.79 3.59 9.41C3.21 9.04 3 8.53 3 8C3 7.47 3.21 6.96 3.59 6.59C3.96 6.21 4.47 6 5 6L11 6C11.53 6 12.04 6.21 12.41 6.59C12.79 6.96 13 7.47 13 8C13 8.53 12.79 9.04 12.41 9.41Z " /></g></g></svg>