<svg xmlns="http://www.w3.org/2000/svg" xmlns:xlink="http://www.w3.org/1999/xlink" width="18" height="18" viewBox="0 0 18 18" fill="none"><defs><path id="path_0"
        transform="translate(0 0) rotate(0 9 9)"
        d="M0,18L18,18L18,0L0,0L0,18Z" /></defs><g opacity="1" transform="translate(0 0)  rotate(0 9 9)"><mask id="mask-0" fill="white"><use xlink:href="#path_0"></use></mask><g mask="url(#mask-0)"></g><g mask="url(#mask-0)"><path id="并集" fill-rule="evenodd" style="fill:#2E4FDE" transform="translate(1 1)  rotate(0 8 8)" opacity="1" d="M6.5 10C7.05 10 7.5 9.55 7.5 9L7.5 1C7.5 0.45 7.05 0 6.5 0L1 0C0.45 0 0 0.45 0 1L0 9C0 9.55 0.45 10 1 10L6.5 10Z M9.5 0C8.95 0 8.5 0.45 8.5 1L8.5 4C8.5 4.55 8.95 5 9.5 5L15 5C15.55 5 16 4.55 16 4L16 1C16 0.45 15.55 0 15 0L9.5 0Z M15 4L15 1L9.5 1L9.5 4L15 4Z M15 16C15.55 16 16 15.55 16 15L16 7C16 6.45 15.55 6 15 6L9.5 6C8.95 6 8.5 6.45 8.5 7L8.5 15C8.5 15.55 8.95 16 9.5 16L15 16Z M7.5 15L7.5 12C7.5 11.45 7.05 11 6.5 11L1 11C0.45 11 0 11.45 0 12L0 15C0 15.55 0.45 16 1 16L6.5 16C7.05 16 7.5 15.55 7.5 15Z M6.5 12L1 12L1 15L6.5 15L6.5 12Z " /></g></g></svg>