<svg xmlns="http://www.w3.org/2000/svg" xmlns:xlink="http://www.w3.org/1999/xlink" width="18" height="18" viewBox="0 0 18 18" fill="none"><defs><path id="path_0"
        transform="translate(0 0) rotate(0 9 9)"
        d="M0,18L18,18L18,0L0,0L0,18Z" /></defs><g opacity="1" transform="translate(0 0)  rotate(0 9 9)"><mask id="mask-0" fill="white"><use xlink:href="#path_0"></use></mask><g mask="url(#mask-0)"></g><g mask="url(#mask-0)"><path id="并集" fill-rule="evenodd" style="fill:#75777D" transform="translate(1 1)  rotate(0 8 8)" opacity="1" d="M15.6 15.01Q15.645 15.01 15.69 15.04C15.72 15.05 15.75 15.06 15.78 15.08C15.81 15.1 15.83 15.12 15.85 15.14C15.88 15.17 15.9 15.19 15.92 15.22C15.93 15.25 15.95 15.28 15.96 15.31L15.99 15.4C16 15.43 16 15.46 16 15.5C16 15.53 16 15.56 15.99 15.6L15.96 15.69C15.95 15.72 15.93 15.75 15.92 15.78C15.9 15.8 15.88 15.83 15.85 15.85C15.83 15.87 15.81 15.89 15.78 15.91C15.75 15.93 15.72 15.95 15.69 15.96L15.6 15.99C15.57 15.99 15.53 16 15.5 16L2.5 16C2.17 16 1.85 15.94 1.54 15.81C1.24 15.68 0.97 15.5 0.74 15.26C0.5 15.03 0.32 14.76 0.19 14.46C0.06 14.15 0 13.83 0 13.5L0 2C0 0.9 0.9 0 2 0L14 0C15.1 0 16 0.9 16 2L16 10C16 11.1 15.1 12 14 12L1 12L1 13.5C1 13.92 1.15 14.27 1.44 14.55L1.44 14.56L1.45 14.56C1.73 14.85 2.08 15 2.5 15L15.5 15C15.53 15 15.57 15 15.6 15.01ZM14.71 10.71C14.51 10.9 14.27 11 14 11L1 11L1 2C1 1.73 1.1 1.49 1.29 1.29C1.49 1.1 1.73 1 2 1L14 1C14.27 1 14.51 1.1 14.71 1.29C14.9 1.49 15 1.73 15 2L15 10C15 10.27 14.9 10.51 14.71 10.71ZM9.42 9.46L6.58 9.46C6.22 9.46 5.89 9.27 5.71 8.96L4.29 6.5C4.11 6.19 4.11 5.81 4.29 5.5L5.71 3.04C5.89 2.73 6.22 2.54 6.58 2.54L9.42 2.54C9.78 2.54 10.11 2.73 10.29 3.04L11.71 5.5C11.89 5.81 11.89 6.19 11.71 6.5L10.29 8.96C10.11 9.27 9.78 9.46 9.42 9.46ZM6.27 5C5.72 5.95 6.05 7.18 7 7.73C7.95 8.28 9.18 7.95 9.73 7C10.28 6.05 9.95 4.82 9 4.27C8.05 3.72 6.82 4.05 6.27 5ZM2.08 13.78C2.1 13.81 2.12 13.83 2.15 13.85C2.17 13.88 2.19 13.9 2.22 13.92C2.25 13.93 2.28 13.95 2.31 13.96L2.4 13.99C2.43 14 2.47 14 2.5 14L14.5 14C14.57 14 14.63 13.99 14.69 13.96C14.75 13.94 14.81 13.9 14.85 13.85C14.9 13.81 14.94 13.75 14.96 13.69C14.99 13.63 15 13.57 15 13.5C15 13.47 15 13.44 14.99 13.4L14.96 13.31C14.95 13.28 14.93 13.25 14.92 13.22C14.9 13.2 14.88 13.17 14.85 13.15C14.83 13.12 14.81 13.1 14.78 13.09C14.75 13.07 14.72 13.05 14.69 13.04L14.6 13.01C14.57 13 14.53 13 14.5 13L2.5 13C2.47 13 2.43 13 2.4 13.01L2.31 13.04C2.28 13.05 2.25 13.07 2.22 13.08C2.19 13.1 2.17 13.12 2.15 13.15C2.12 13.17 2.1 13.19 2.08 13.22C2.07 13.25 2.05 13.28 2.04 13.31L2.01 13.4C2 13.43 2 13.47 2 13.5C2 13.53 2 13.57 2.01 13.6L2.04 13.69C2.05 13.72 2.07 13.75 2.08 13.78Z" /></g></g></svg>