<svg xmlns="http://www.w3.org/2000/svg" xmlns:xlink="http://www.w3.org/1999/xlink" width="18" height="18" viewBox="0 0 18 18" fill="none"><defs><path id="path_0"
        transform="translate(0 0) rotate(0 9 9)"
        d="M0,18L18,18L18,0L0,0L0,18Z" /></defs><g opacity="1" transform="translate(0 0)  rotate(0 9 9)"><mask id="mask-0" fill="white"><use xlink:href="#path_0"></use></mask><g mask="url(#mask-0)"></g><g mask="url(#mask-0)"><path id="并集" fill-rule="evenodd" style="fill:#2E4FDE" transform="translate(1 1)  rotate(0 8 8)" opacity="1" d="M10.5,13.5C10.5,12.29 9.64,11.28 8.5,11.05L8.5,4.95C8.82,4.89 9.11,4.76 9.38,4.59L11.41,6.62C11.15,7.02 11,7.49 11,8C11,9.38 12.12,10.5 13.5,10.5C14.88,10.5 16,9.38 16,8C16,6.62 14.88,5.5 13.5,5.5C12.99,5.5 12.52,5.65 12.12,5.91L10.09,3.88C10.35,3.48 10.5,3.01 10.5,2.5C10.5,1.12 9.38,0 8,0C6.62,0 5.5,1.12 5.5,2.5C5.5,3.71 6.36,4.72 7.5,4.95L7.5,11.05C7.18,11.11 6.89,11.24 6.62,11.41L4.59,9.38C4.85,8.98 5,8.51 5,8C5,6.62 3.88,5.5 2.5,5.5C1.12,5.5 0,6.62 0,8C0,9.38 1.12,10.5 2.5,10.5C3.01,10.5 3.48,10.35 3.88,10.09L5.91,12.12C5.65,12.52 5.5,12.99 5.5,13.5C5.5,14.88 6.62,16 8,16C9.38,16 10.5,14.88 10.5,13.5Z " /></g></g></svg>