<svg xmlns="http://www.w3.org/2000/svg" xmlns:xlink="http://www.w3.org/1999/xlink" width="18" height="18" viewBox="0 0 18 18" fill="none"><defs><path id="path_0"
        transform="translate(0 0) rotate(0 9 9)"
        d="M0,18L18,18L18,0L0,0L0,18Z" /></defs><g opacity="1" transform="translate(0 0)  rotate(0 9 9)"><mask id="mask-0" fill="white"><use xlink:href="#path_0"></use></mask><g mask="url(#mask-0)"></g><g mask="url(#mask-0)"><path id="并集" fill-rule="evenodd" style="fill:#75777D" transform="translate(1 1)  rotate(0 8 8)" opacity="1" d="M8 16C6.62 16 5.5 14.88 5.5 13.5C5.5 12.99 5.65 12.52 5.91 12.12L3.88 10.09C3.48 10.35 3.01 10.5 2.5 10.5C1.12 10.5 0 9.38 0 8C0 6.62 1.12 5.5 2.5 5.5C3.88 5.5 5 6.62 5 8C5 8.51 4.85 8.98 4.59 9.38L6.62 11.41C6.89 11.24 7.18 11.11 7.5 11.05L7.5 4.95C6.36 4.72 5.5 3.71 5.5 2.5C5.5 1.12 6.62 0 8 0C9.38 0 10.5 1.12 10.5 2.5C10.5 3.01 10.35 3.48 10.09 3.88L12.12 5.91C12.52 5.65 12.99 5.5 13.5 5.5C14.88 5.5 16 6.62 16 8C16 9.38 14.88 10.5 13.5 10.5C12.12 10.5 11 9.38 11 8C11 7.49 11.15 7.02 11.41 6.62L9.38 4.59C9.11 4.76 8.82 4.89 8.5 4.95L8.5 11.05C9.64 11.28 10.5 12.29 10.5 13.5C10.5 14.88 9.38 16 8 16ZM8 1C8.41 1 8.77 1.15 9.06 1.44C9.35 1.73 9.5 2.09 9.5 2.5C9.5 2.91 9.35 3.27 9.06 3.56C8.77 3.85 8.41 4 8 4C7.59 4 7.23 3.85 6.94 3.56C6.65 3.27 6.5 2.91 6.5 2.5C6.5 2.09 6.65 1.73 6.94 1.44C7.23 1.15 7.59 1 8 1ZM2.5 6.5C2.91 6.5 3.27 6.65 3.56 6.94C3.85 7.23 4 7.59 4 8C4 8.41 3.85 8.77 3.56 9.06C3.27 9.35 2.91 9.5 2.5 9.5C2.09 9.5 1.73 9.35 1.44 9.06C1.15 8.77 1 8.41 1 8C1 7.59 1.15 7.23 1.44 6.94C1.73 6.65 2.09 6.5 2.5 6.5ZM12 8C12 8.41 12.15 8.77 12.44 9.06C12.73 9.35 13.09 9.5 13.5 9.5C13.91 9.5 14.27 9.35 14.56 9.06C14.85 8.77 15 8.41 15 8C15 7.59 14.85 7.23 14.56 6.94C14.27 6.65 13.91 6.5 13.5 6.5C13.09 6.5 12.73 6.65 12.44 6.94C12.15 7.23 12 7.59 12 8ZM8 12C7.59 12 7.23 12.15 6.94 12.44C6.65 12.73 6.5 13.09 6.5 13.5C6.5 13.91 6.65 14.27 6.94 14.56C7.23 14.85 7.59 15 8 15C8.41 15 8.77 14.85 9.06 14.56C9.35 14.27 9.5 13.91 9.5 13.5C9.5 13.09 9.35 12.73 9.06 12.44C8.77 12.15 8.41 12 8 12Z" /></g></g></svg>