<svg xmlns="http://www.w3.org/2000/svg" xmlns:xlink="http://www.w3.org/1999/xlink" width="18" height="18" viewBox="0 0 18 18" fill="none"><defs><path id="path_0"
        transform="translate(0 0) rotate(0 9 9)"
        d="M0,18L18,18L18,0L0,0L0,18Z" /></defs><g opacity="1" transform="translate(0 0)  rotate(0 9 9)"><mask id="mask-0" fill="white"><use xlink:href="#path_0"></use></mask><g mask="url(#mask-0)"></g><g mask="url(#mask-0)"><path id="并集" fill-rule="evenodd" style="fill:#2E4FDE" transform="translate(1 1)  rotate(0 8 8)" opacity="1" d="M15 4.7C15.55 4.7 16 4.25 16 3.7L16 1C16 0.45 15.55 0 15 0L1 0C0.45 0 0 0.45 0 1L0 3.7C0 4.25 0.45 4.7 1 4.7L15 4.7ZM14 2.35C14 2.9 13.55 3.35 13 3.35C12.45 3.35 12 2.9 12 2.35C12 1.8 12.45 1.35 13 1.35C13.55 1.35 14 1.8 14 2.35ZM16 6.7C16 6.15 15.55 5.7 15 5.7L1 5.7C0.45 5.7 0 6.15 0 6.7L0 9.3C0 9.85 0.45 10.3 1 10.3L15 10.3C15.55 10.3 16 9.85 16 9.3L16 6.7ZM13 7C13.55 7 14 7.45 14 8C14 8.55 13.55 9 13 9C12.45 9 12 8.55 12 8C12 7.45 12.45 7 13 7ZM0 15L0 12.3C0 11.75 0.45 11.3 1 11.3L15 11.3C15.55 11.3 16 11.75 16 12.3L16 15C16 15.55 15.55 16 15 16L1 16C0.45 16 0 15.55 0 15ZM12 13.65C12 13.1 12.45 12.65 13 12.65C13.55 12.65 14 13.1 14 13.65C14 14.2 13.55 14.65 13 14.65C12.45 14.65 12 14.2 12 13.65Z" /></g></g></svg>